999
dxflib 3.26.4.0
  0
SECTION
  2
HEADER
  9
$ACADVER
  1
AC1015
  9
$HANDSEED
  5
FFFF
  9
$DIMADEC
 70
0
  9
$DIMASZ
 40
2.5
  9
$DIMATFIT
 70
0
  9
$DIMAUNIT
 70
0
  9
$DIMAZIN
 70
2
  9
$DIMBLK
  1

  9
$DIMDEC
 70
4
  9
$DIMDLI
 40
5.0
  9
$DIMDSEP
 70
46
  9
$DIMEXE
 40
1.25
  9
$DIMEXO
 40
0.625
  9
$DIMGAP
 40
0.625
  9
$DIMLFAC
 40
1.0
  9
$DIMLUNIT
 70
2
  9
$DIMSCALE
 40
1.0
  9
$DIMTAD
 70
1
  9
$DIMTIH
 70
0
  9
$DIMTSZ
 40
0.0
  9
$DIMTXT
 40
2.5
  9
$DIMZIN
 70
8
  9
$DWGCODEPAGE
  3
ANSI_1252
  9
$INSUNITS
 70
4
  9
$LTSCALE
 40
1.0
  9
$MAXACTVP
 70
64
  9
$MEASUREMENT
 70
1
  9
$MIRRTEXT
 70
0
  9
$PDMODE
 70
0
  9
$PDSIZE
 40
0.0
  0
ENDSEC
  0
SECTION
  2
TABLES
  0
TABLE
  2
VPORT
  5
8
100
AcDbSymbolTable
 70
1
  0
VPORT
  5
30
100
AcDbSymbolTableRecord
100
AcDbViewportTableRecord
  2
*Active
 70
0
 10
0.0
 20
0.0
 11
1.0
 21
1.0
 12
286.3055555555554861
 22
148.5
 13
0.0
 23
0.0
 14
10.0
 24
10.0
 15
10.0
 25
10.0
 16
0.0
 26
0.0
 36
1.0
 17
0.0
 27
0.0
 37
0.0
 40
297.0
 41
1.92798353909465
 42
50.0
 43
0.0
 44
0.0
 50
0.0
 51
0.0
 71
0
 72
100
 73
1
 74
3
 75
1
 76
1
 77
0
 78
0
281
0
 65
1
110
0.0
120
0.0
130
0.0
111
1.0
121
0.0
131
0.0
112
0.0
122
1.0
132
0.0
 79
0
146
0.0
  0
ENDTAB
  0
TABLE
  2
LTYPE
  5
5
100
AcDbSymbolTable
 70
41
  0
LTYPE
  5
16
100
AcDbSymbolTableRecord
100
AcDbLinetypeTableRecord
  2
Continuous
 70
0
  3
Solid line
 72
65
 73
0
 40
0.0
  0
LTYPE
  5
31
100
AcDbSymbolTableRecord
100
AcDbLinetypeTableRecord
  2
DASHDOT2
 70
0
  3
Dash dot (.5x) _._._._._._._._._._._._._._._.
 72
65
 73
4
 40
12.6999999999999993
 49
6.3499999999999996
 74
0
 49
-3.1749999999999998
 74
0
 49
0.0
 74
0
 49
-3.1749999999999998
 74
0
  0
LTYPE
  5
32
100
AcDbSymbolTableRecord
100
AcDbLinetypeTableRecord
  2
DASHED2
 70
0
  3
Dashed (.5x) _ _ _ _ _ _ _ _ _ _ _ _ _ _ _ _ _ 
 72
65
 73
2
 40
9.5249999999999986
 49
6.3499999999999996
 74
0
 49
-3.1749999999999998
 74
0
  0
LTYPE
  5
33
100
AcDbSymbolTableRecord
100
AcDbLinetypeTableRecord
  2
HIDDEN
 70
0
  3
Hidden __ __ __ __ __ __ __ __ __ __ __ __ __ __
 72
65
 73
2
 40
9.5249999999999986
 49
6.3499999999999996
 74
0
 49
-3.1749999999999998
 74
0
  0
LTYPE
  5
34
100
AcDbSymbolTableRecord
100
AcDbLinetypeTableRecord
  2
HIDDENX2
 70
0
  3
Hidden (2x) ____ ____ ____ ____ ____ ____ ____ 
 72
65
 73
2
 40
19.0499999999999972
 49
12.6999999999999993
 74
0
 49
-6.3499999999999996
 74
0
  0
LTYPE
  5
35
100
AcDbSymbolTableRecord
100
AcDbLinetypeTableRecord
  2
ACAD_ISO11W100
 70
0
  3
ISO double-dash dot __ __ . __ __ . __ __ . __ _
 72
65
 73
6
 40
33.0
 49
12.0
 74
0
 49
-3.0
 74
0
 49
12.0
 74
0
 49
-3.0
 74
0
 49
0.0
 74
0
 49
-3.0
 74
0
  0
LTYPE
  5
36
100
AcDbSymbolTableRecord
100
AcDbLinetypeTableRecord
  2
ACAD_ISO06W100
 70
0
  3
ISO long-dash triple-dot ____ ... ____ ... ____
 72
65
 73
8
 40
36.0
 49
24.0
 74
0
 49
-3.0
 74
0
 49
0.0
 74
0
 49
-3.0
 74
0
 49
0.0
 74
0
 49
-3.0
 74
0
 49
0.0
 74
0
 49
-3.0
 74
0
  0
LTYPE
  5
37
100
AcDbSymbolTableRecord
100
AcDbLinetypeTableRecord
  2
ACAD_ISO02W100
 70
0
  3
ISO dash __ __ __ __ __ __ __ __ __ __ __ __ __
 72
65
 73
2
 40
15.0
 49
12.0
 74
0
 49
-3.0
 74
0
  0
LTYPE
  5
38
100
AcDbSymbolTableRecord
100
AcDbLinetypeTableRecord
  2
BORDERX2
 70
0
  3
Border (2x) ____  ____  .  ____  ____  .  ___
 72
65
 73
6
 40
88.8999999999999915
 49
25.3999999999999986
 74
0
 49
-12.6999999999999993
 74
0
 49
25.3999999999999986
 74
0
 49
-12.6999999999999993
 74
0
 49
0.0
 74
0
 49
-12.6999999999999993
 74
0
  0
LTYPE
  5
39
100
AcDbSymbolTableRecord
100
AcDbLinetypeTableRecord
  2
HIDDEN2
 70
0
  3
Hidden (.5x) _ _ _ _ _ _ _ _ _ _ _ _ _ _ _ _ _ 
 72
65
 73
2
 40
4.7624999999999993
 49
3.1749999999999998
 74
0
 49
-1.5874999999999999
 74
0
  0
LTYPE
  5
3A
100
AcDbSymbolTableRecord
100
AcDbLinetypeTableRecord
  2
ACAD_ISO15W100
 70
0
  3
ISO double-dash triple-dot __ __ . . . __ __ . .
 72
65
 73
10
 40
39.0
 49
12.0
 74
0
 49
-3.0
 74
0
 49
12.0
 74
0
 49
-3.0
 74
0
 49
0.0
 74
0
 49
-3.0
 74
0
 49
0.0
 74
0
 49
-3.0
 74
0
 49
0.0
 74
0
 49
-3.0
 74
0
  0
LTYPE
  5
3B
100
AcDbSymbolTableRecord
100
AcDbLinetypeTableRecord
  2
DIVIDEX2
 70
0
  3
Divide (2x) ________  .  .  ________  .  .  _
 72
65
 73
6
 40
63.5
 49
25.3999999999999986
 74
0
 49
-12.6999999999999993
 74
0
 49
0.0
 74
0
 49
-12.6999999999999993
 74
0
 49
0.0
 74
0
 49
-12.6999999999999993
 74
0
  0
LTYPE
  5
3C
100
AcDbSymbolTableRecord
100
AcDbLinetypeTableRecord
  2
ACAD_ISO14W100
 70
0
  3
ISO dash triple-dot __ . . . __ . . . __ . . . _
 72
65
 73
8
 40
24.0
 49
12.0
 74
0
 49
-3.0
 74
0
 49
0.0
 74
0
 49
-3.0
 74
0
 49
0.0
 74
0
 49
-3.0
 74
0
 49
0.0
 74
0
 49
-3.0
 74
0
  0
LTYPE
  5
3D
100
AcDbSymbolTableRecord
100
AcDbLinetypeTableRecord
  2
BORDER
 70
0
  3
Border __ __ . __ __ . __ __ . __ __ . __ __ .
 72
65
 73
6
 40
44.4499999999999957
 49
12.6999999999999993
 74
0
 49
-6.3499999999999996
 74
0
 49
12.6999999999999993
 74
0
 49
-6.3499999999999996
 74
0
 49
0.0
 74
0
 49
-6.3499999999999996
 74
0
  0
LTYPE
  5
3E
100
AcDbSymbolTableRecord
100
AcDbLinetypeTableRecord
  2
BORDER2
 70
0
  3
Border (.5x) __.__.__.__.__.__.__.__.__.__.__.
 72
65
 73
6
 40
22.2249999999999979
 49
6.3499999999999996
 74
0
 49
-3.1749999999999998
 74
0
 49
6.3499999999999996
 74
0
 49
-3.1749999999999998
 74
0
 49
0.0
 74
0
 49
-3.1749999999999998
 74
0
  0
LTYPE
  5
3F
100
AcDbSymbolTableRecord
100
AcDbLinetypeTableRecord
  2
CENTERX2
 70
0
  3
Center (2x) ________  __  ________  __  _____
 72
65
 73
4
 40
101.6000000000000085
 49
63.5
 74
0
 49
-12.6999999999999993
 74
0
 49
12.6999999999999993
 74
0
 49
-12.6999999999999993
 74
0
  0
LTYPE
  5
40
100
AcDbSymbolTableRecord
100
AcDbLinetypeTableRecord
  2
DOTX2
 70
0
  3
Dot (2x) .  .  .  .  .  .  .  .  .  .  .  .  .  .
 72
65
 73
2
 40
12.6999999999999993
 49
0.0
 74
0
 49
-12.6999999999999993
 74
0
  0
LTYPE
  5
41
100
AcDbSymbolTableRecord
100
AcDbLinetypeTableRecord
  2
PHANTOMX2
 70
0
  3
Phantom (2x) ____________    ____    ____   _
 72
65
 73
6
 40
127.0000000000000142
 49
63.5
 74
0
 49
-12.6999999999999993
 74
0
 49
12.6999999999999993
 74
0
 49
-12.6999999999999993
 74
0
 49
12.6999999999999993
 74
0
 49
-12.6999999999999993
 74
0
  0
LTYPE
  5
42
100
AcDbSymbolTableRecord
100
AcDbLinetypeTableRecord
  2
DOT
 70
0
  3
Dot . . . . . . . . . . . . . . . . . . . . . . . .
 72
65
 73
2
 40
6.3499999999999996
 49
0.0
 74
0
 49
-6.3499999999999996
 74
0
  0
LTYPE
  5
43
100
AcDbSymbolTableRecord
100
AcDbLinetypeTableRecord
  2
PHANTOM
 70
0
  3
Phantom ______  __  __  ______  __  __  ______ 
 72
65
 73
6
 40
63.5000000000000071
 49
31.75
 74
0
 49
-6.3499999999999996
 74
0
 49
6.3499999999999996
 74
0
 49
-6.3499999999999996
 74
0
 49
6.3499999999999996
 74
0
 49
-6.3499999999999996
 74
0
  0
LTYPE
  5
44
100
AcDbSymbolTableRecord
100
AcDbLinetypeTableRecord
  2
PHANTOM2
 70
0
  3
Phantom (.5x) ___ _ _ ___ _ _ ___ _ _ ___ _ _
 72
65
 73
6
 40
31.7500000000000036
 49
15.875
 74
0
 49
-3.1749999999999998
 74
0
 49
3.1749999999999998
 74
0
 49
-3.1749999999999998
 74
0
 49
3.1749999999999998
 74
0
 49
-3.1749999999999998
 74
0
  0
LTYPE
  5
45
100
AcDbSymbolTableRecord
100
AcDbLinetypeTableRecord
  2
ACAD_ISO08W100
 70
0
  3
ISO long-dash short-dash ____ __ ____ __ ____ _
 72
65
 73
4
 40
36.0
 49
24.0
 74
0
 49
-3.0
 74
0
 49
6.0
 74
0
 49
-3.0
 74
0
  0
LTYPE
  5
46
100
AcDbSymbolTableRecord
100
AcDbLinetypeTableRecord
  2
ACAD_ISO10W100
 70
0
  3
ISO dash dot __ . __ . __ . __ . __ . __ . __ . 
 72
65
 73
4
 40
18.0
 49
12.0
 74
0
 49
-3.0
 74
0
 49
0.0
 74
0
 49
-3.0
 74
0
  0
LTYPE
  5
47
100
AcDbSymbolTableRecord
100
AcDbLinetypeTableRecord
  2
ACAD_ISO09W100
 70
0
  3
ISO long-dash double-short-dash ____ __ __ ____
 72
65
 73
6
 40
45.0
 49
24.0
 74
0
 49
-3.0
 74
0
 49
6.0
 74
0
 49
-3.0
 74
0
 49
6.0
 74
0
 49
-3.0
 74
0
  0
LTYPE
  5
48
100
AcDbSymbolTableRecord
100
AcDbLinetypeTableRecord
  2
ACAD_ISO03W100
 70
0
  3
ISO dash space __    __    __    __    __    __
 72
65
 73
2
 40
30.0
 49
12.0
 74
0
 49
-18.0
 74
0
  0
LTYPE
  5
49
100
AcDbSymbolTableRecord
100
AcDbLinetypeTableRecord
  2
CENTER2
 70
0
  3
Center (.5x) ___ _ ___ _ ___ _ ___ _ ___ _ ___
 72
65
 73
4
 40
28.5750000000000028
 49
19.0500000000000007
 74
0
 49
-3.1749999999999998
 74
0
 49
3.1749999999999998
 74
0
 49
-3.1749999999999998
 74
0
  0
LTYPE
  5
4A
100
AcDbSymbolTableRecord
100
AcDbLinetypeTableRecord
  2
CENTER
 70
0
  3
Center ____ _ ____ _ ____ _ ____ _ ____ _ ____
 72
65
 73
4
 40
50.8000000000000043
 49
31.75
 74
0
 49
-6.3499999999999996
 74
0
 49
6.3499999999999996
 74
0
 49
-6.3499999999999996
 74
0
  0
LTYPE
  5
4B
100
AcDbSymbolTableRecord
100
AcDbLinetypeTableRecord
  2
DIVIDE
 70
0
  3
Divide ____ . . ____ . . ____ . . ____ . . ____
 72
65
 73
6
 40
31.75
 49
12.6999999999999993
 74
0
 49
-6.3499999999999996
 74
0
 49
0.0
 74
0
 49
-6.3499999999999996
 74
0
 49
0.0
 74
0
 49
-6.3499999999999996
 74
0
  0
LTYPE
  5
4C
100
AcDbSymbolTableRecord
100
AcDbLinetypeTableRecord
  2
DASHDOT
 70
0
  3
Dash dot __ . __ . __ . __ . __ . __ . __ . __
 72
65
 73
4
 40
25.3999999999999986
 49
12.6999999999999993
 74
0
 49
-6.3499999999999996
 74
0
 49
0.0
 74
0
 49
-6.3499999999999996
 74
0
  0
LTYPE
  5
4D
100
AcDbSymbolTableRecord
100
AcDbLinetypeTableRecord
  2
DASHED
 70
0
  3
Dashed __ __ __ __ __ __ __ __ __ __ __ __ __ _
 72
65
 73
2
 40
19.0499999999999972
 49
12.6999999999999993
 74
0
 49
-6.3499999999999996
 74
0
  0
LTYPE
  5
4E
100
AcDbSymbolTableRecord
100
AcDbLinetypeTableRecord
  2
DIVIDE2
 70
0
  3
Divide (.5x) __..__..__..__..__..__..__..__.._
 72
65
 73
6
 40
15.875
 49
6.3499999999999996
 74
0
 49
-3.1749999999999998
 74
0
 49
0.0
 74
0
 49
-3.1749999999999998
 74
0
 49
0.0
 74
0
 49
-3.1749999999999998
 74
0
  0
LTYPE
  5
4F
100
AcDbSymbolTableRecord
100
AcDbLinetypeTableRecord
  2
ACAD_ISO04W100
 70
0
  3
ISO long-dash dot ____ . ____ . ____ . ____ . _
 72
65
 73
4
 40
30.0
 49
24.0
 74
0
 49
-3.0
 74
0
 49
0.0
 74
0
 49
-3.0
 74
0
  0
LTYPE
  5
50
100
AcDbSymbolTableRecord
100
AcDbLinetypeTableRecord
  2
ACAD_ISO13W100
 70
0
  3
ISO double-dash double-dot __ __ . . __ __ . . _
 72
65
 73
8
 40
36.0
 49
12.0
 74
0
 49
-3.0
 74
0
 49
12.0
 74
0
 49
-3.0
 74
0
 49
0.0
 74
0
 49
-3.0
 74
0
 49
0.0
 74
0
 49
-3.0
 74
0
  0
LTYPE
  5
51
100
AcDbSymbolTableRecord
100
AcDbLinetypeTableRecord
  2
ACAD_ISO05W100
 70
0
  3
ISO long-dash double-dot ____ .. ____ .. ____ . 
 72
65
 73
6
 40
33.0
 49
24.0
 74
0
 49
-3.0
 74
0
 49
0.0
 74
0
 49
-3.0
 74
0
 49
0.0
 74
0
 49
-3.0
 74
0
  0
LTYPE
  5
15
100
AcDbSymbolTableRecord
100
AcDbLinetypeTableRecord
  2
BYLAYER
 70
0
  3

 72
65
 73
0
 40
0.0
  0
LTYPE
  5
52
100
AcDbSymbolTableRecord
100
AcDbLinetypeTableRecord
  2
ACAD_ISO07W100
 70
0
  3
ISO dot . . . . . . . . . . . . . . . . . . . . 
 72
65
 73
2
 40
3.0
 49
0.0
 74
0
 49
-3.0
 74
0
  0
LTYPE
  5
53
100
AcDbSymbolTableRecord
100
AcDbLinetypeTableRecord
  2
DASHDOTX2
 70
0
  3
Dash dot (2x) ____  .  ____  .  ____  .  ___
 72
65
 73
4
 40
50.7999999999999972
 49
25.3999999999999986
 74
0
 49
-12.6999999999999993
 74
0
 49
0.0
 74
0
 49
-12.6999999999999993
 74
0
  0
LTYPE
  5
54
100
AcDbSymbolTableRecord
100
AcDbLinetypeTableRecord
  2
ACAD_ISO12W100
 70
0
  3
ISO dash double-dot __ . . __ . . __ . . __ . . 
 72
65
 73
6
 40
21.0
 49
12.0
 74
0
 49
-3.0
 74
0
 49
0.0
 74
0
 49
-3.0
 74
0
 49
0.0
 74
0
 49
-3.0
 74
0
  0
LTYPE
  5
55
100
AcDbSymbolTableRecord
100
AcDbLinetypeTableRecord
  2
DASHEDX2
 70
0
  3
Dashed (2x) ____  ____  ____  ____  ____  ___
 72
65
 73
2
 40
38.0999999999999943
 49
25.3999999999999986
 74
0
 49
-12.6999999999999993
 74
0
  0
LTYPE
  5
14
100
AcDbSymbolTableRecord
100
AcDbLinetypeTableRecord
  2
BYBLOCK
 70
0
  3

 72
65
 73
0
 40
0.0
  0
LTYPE
  5
56
100
AcDbSymbolTableRecord
100
AcDbLinetypeTableRecord
  2
DOT2
 70
0
  3
Dot (.5x) ........................................
 72
65
 73
2
 40
3.1749999999999998
 49
0.0
 74
0
 49
-3.1749999999999998
 74
0
  0
ENDTAB
  0
TABLE
  2
LAYER
  5
2
100
AcDbSymbolTable
 70
1
  0
LAYER
  5
10
100
AcDbSymbolTableRecord
100
AcDbLayerTableRecord
  2
0
 70
0
 62
7
420
16777215
  6
Continuous
370
25
390
F
  0
ENDTAB
  0
TABLE
  2
STYLE
  5
3
100
AcDbSymbolTable
 70
1
  0
STYLE
  5
57
100
AcDbSymbolTableRecord
100
AcDbTextStyleTableRecord
  2
Standard
 70
0
 40
0.0
 41
1.0
 50
0.0
 71
0
 42
2.5
  3

  4

1001
ACAD
1000
txt
1071
0
  0
ENDTAB
  0
TABLE
  2
VIEW
  5
6
100
AcDbSymbolTable
 70
0
  0
ENDTAB
  0
TABLE
  2
UCS
  5
7
100
AcDbSymbolTable
 70
0
  0
ENDTAB
  0
TABLE
  2
APPID
  5
9
100
AcDbSymbolTable
 70
1
  0
APPID
  5
12
100
AcDbSymbolTableRecord
100
AcDbRegAppTableRecord
  2
ACAD
 70
0
  0
APPID
  5
58
100
AcDbSymbolTableRecord
100
AcDbRegAppTableRecord
  2
QCAD
 70
0
  0
ENDTAB
  0
TABLE
  2
DIMSTYLE
  5
A
100
AcDbSymbolTable
 70
1
100
AcDbDimStyleTable
 71
0
  0
DIMSTYLE
105
27
100
AcDbSymbolTableRecord
100
AcDbDimStyleTableRecord
  2
Standard
 41
2.5
 42
0.625
 43
3.75
 44
1.25
 70
0
 73
0
 74
0
 77
1
 78
8
140
2.5
141
2.5
143
0.03937007874016
147
0.625
171
3
172
1
271
2
272
2
274
3
278
44
283
0
284
8
340
57
  0
ENDTAB
  0
TABLE
  2
BLOCK_RECORD
  5
1
100
AcDbSymbolTable
 70
1
  0
BLOCK_RECORD
  5
1F
100
AcDbSymbolTableRecord
100
AcDbBlockTableRecord
  2
*Model_Space
340
22
  0
BLOCK_RECORD
  5
1B
100
AcDbSymbolTableRecord
100
AcDbBlockTableRecord
  2
*Paper_Space
340
1E
  0
BLOCK_RECORD
  5
23
100
AcDbSymbolTableRecord
100
AcDbBlockTableRecord
  2
*Paper_Space0
340
26
  0
ENDTAB
  0
ENDSEC
  0
SECTION
  2
BLOCKS
  0
BLOCK
  5
20
100
AcDbEntity
  8
0
100
AcDbBlockBegin
  2
*Model_Space
 70
0
 10
0.0
 20
0.0
 30
0.0
  3
*Model_Space
  1

  0
ENDBLK
  5
21
100
AcDbEntity
  8
0
100
AcDbBlockEnd
  0
BLOCK
  5
1C
100
AcDbEntity
 67
1
  8
0
100
AcDbBlockBegin
  2
*Paper_Space
 70
0
 10
0.0
 20
0.0
 30
0.0
  3
*Paper_Space
  1

  0
ENDBLK
  5
1D
100
AcDbEntity
 67
1
  8
0
100
AcDbBlockEnd
  0
BLOCK
  5
24
100
AcDbEntity
  8
0
100
AcDbBlockBegin
  2
*Paper_Space0
 70
0
 10
0.0
 20
0.0
 30
0.0
  3
*Paper_Space0
  1

  0
ENDBLK
  5
25
100
AcDbEntity
  8
0
100
AcDbBlockEnd
  0
ENDSEC
  0
SECTION
  2
ENTITIES
  0
LINE
  5
59
100
AcDbEntity
  8
0
 62
256
370
-1
 48
1.0
  6
BYLAYER
100
AcDbLine
 10
10.0
 20
170.0
 30
0.0
 11
148.9999999999999716
 21
170.0
 31
0.0
  0
LINE
  5
5A
100
AcDbEntity
  8
0
 62
256
370
-1
 48
1.0
  6
BYLAYER
100
AcDbLine
 10
158.0999999999999659
 20
170.0
 30
0.0
 11
370.0
 21
170.0
 31
0.0
  0
LINE
  5
5B
100
AcDbEntity
  8
0
 62
256
370
-1
 48
1.0
  6
BYLAYER
100
AcDbLine
 10
10.0
 20
0.0
 30
0.0
 11
370.0
 21
0.0
 31
0.0
  0
LINE
  5
5C
100
AcDbEntity
  8
0
 62
256
370
-1
 48
1.0
  6
BYLAYER
100
AcDbLine
 10
0.0
 20
10.0
 30
0.0
 11
0.0
 21
160.0
 31
0.0
  0
LINE
  5
5D
100
AcDbEntity
  8
0
 62
256
370
-1
 48
1.0
  6
BYLAYER
100
AcDbLine
 10
380.0
 20
10.0
 30
0.0
 11
380.0
 21
160.0
 31
0.0
  0
CIRCLE
  5
5E
100
AcDbEntity
  8
0
 62
256
370
-1
 48
1.0
  6
BYLAYER
100
AcDbCircle
 10
10.0
 20
10.0
 30
0.0
 40
4.0999999999999996
  0
LINE
  5
5F
100
AcDbEntity
  8
0
 62
256
370
-1
 48
1.0
  6
BYLAYER
100
AcDbLine
 10
201.0
 20
90.0
 30
0.0
 11
217.0
 21
90.0
 31
0.0
  0
LINE
  5
60
100
AcDbEntity
  8
0
 62
256
370
-1
 48
1.0
  6
BYLAYER
100
AcDbLine
 10
179.0
 20
90.0
 30
0.0
 11
163.0
 21
90.0
 31
0.0
  0
CIRCLE
  5
61
100
AcDbEntity
  8
0
 62
256
370
-1
 48
1.0
  6
BYLAYER
100
AcDbCircle
 10
10.0
 20
160.0
 30
0.0
 40
4.0999999999999996
  0
LINE
  5
62
100
AcDbEntity
  8
0
 62
256
370
-1
 48
1.0
  6
BYLAYER
100
AcDbLine
 10
221.9999999999999716
 20
65.0000000000000853
 30
0.0
 11
221.9999999999999716
 21
85.0
 31
0.0
  0
LINE
  5
63
100
AcDbEntity
  8
0
 62
256
370
-1
 48
1.0
  6
BYLAYER
100
AcDbLine
 10
148.9999999999999716
 20
170.0
 30
0.0
 11
148.9999999999999716
 21
160.000000000000199
 31
0.0
  0
CIRCLE
  5
64
100
AcDbEntity
  8
0
 62
256
370
-1
 48
1.0
  6
BYLAYER
100
AcDbCircle
 10
370.0
 20
10.0
 30
0.0
 40
4.0999999999999996
  0
LINE
  5
65
100
AcDbEntity
  8
0
 62
256
370
-1
 48
1.0
  6
BYLAYER
100
AcDbLine
 10
158.0000000000000568
 20
40.7000000000000242
 30
0.0
 11
158.0
 21
85.0
 31
0.0
  0
LINE
  5
66
100
AcDbEntity
  8
0
 62
256
370
-1
 48
1.0
  6
BYLAYER
100
AcDbLine
 10
147.9999999999988631
 20
159.0
 30
0.0
 11
135.0499999999999545
 21
159.0
 31
0.0
  0
CIRCLE
  5
67
100
AcDbEntity
  8
0
 62
256
370
-1
 48
1.0
  6
BYLAYER
100
AcDbCircle
 10
370.0
 20
160.0
 30
0.0
 40
4.0999999999999996
  0
CIRCLE
  5
68
100
AcDbEntity
  8
0
 62
256
370
-1
 48
1.0
  6
BYLAYER
100
AcDbCircle
 10
370.0
 20
85.0
 30
0.0
 40
4.0999999999999996
  0
LINE
  5
69
100
AcDbEntity
  8
0
 62
256
370
-1
 48
1.0
  6
BYLAYER
100
AcDbLine
 10
216.9999999999999716
 20
6.0
 30
0.0
 11
163.0
 21
6.0
 31
0.0
  0
CIRCLE
  5
6A
100
AcDbEntity
  8
0
 62
256
370
-1
 48
1.0
  6
BYLAYER
100
AcDbCircle
 10
260.0
 20
160.0
 30
0.0
 40
4.0999999999999996
  0
LINE
  5
6B
100
AcDbEntity
  8
0
 62
256
370
-1
 48
1.0
  6
BYLAYER
100
AcDbLine
 10
172.0499999999999545
 20
159.0
 30
0.0
 11
159.1000000000020691
 21
159.0
 31
0.0
  0
CIRCLE
  5
6C
100
AcDbEntity
  8
0
 62
256
370
-1
 48
1.0
  6
BYLAYER
100
AcDbCircle
 10
260.0
 20
10.0
 30
0.0
 40
4.0999999999999996
  0
CIRCLE
  5
6D
100
AcDbEntity
  8
0
 62
256
370
-1
 48
1.0
  6
BYLAYER
100
AcDbCircle
 10
120.0
 20
10.0
 30
0.0
 40
4.0999999999999996
  0
LINE
  5
6E
100
AcDbEntity
  8
0
 62
256
370
-1
 48
1.0
  6
BYLAYER
100
AcDbLine
 10
158.0999999999999659
 20
170.0
 30
0.0
 11
158.0999999999999659
 21
160.000000000000199
 31
0.0
  0
CIRCLE
  5
6F
100
AcDbEntity
  8
0
 62
256
370
-1
 48
1.0
  6
BYLAYER
100
AcDbCircle
 10
120.0
 20
160.0
 30
0.0
 40
4.0999999999999996
  0
CIRCLE
  5
70
100
AcDbEntity
  8
0
 62
256
370
-1
 48
1.0
  6
BYLAYER
100
AcDbCircle
 10
10.0
 20
85.0
 30
0.0
 40
4.0999999999999996
  0
LINE
  5
71
100
AcDbEntity
  8
0
 62
256
370
-1
 48
1.0
  6
BYLAYER
100
AcDbLine
 10
135.0499999999999545
 20
159.0
 30
0.0
 11
135.0499999999999545
 21
146.4000000000000341
 31
0.0
  0
ARC
  5
72
100
AcDbEntity
  8
0
 62
256
370
-1
 48
1.0
  6
BYLAYER
100
AcDbCircle
 10
370.0
 20
160.0
 30
0.0
 40
10.0
100
AcDbArc
 50
0.0
 51
90.0
  0
ARC
  5
73
100
AcDbEntity
  8
0
 62
256
370
-1
 48
1.0
  6
BYLAYER
100
AcDbCircle
 10
10.0
 20
160.0
 30
0.0
 40
10.0
100
AcDbArc
 50
90.0
 51
180.0
  0
LINE
  5
74
100
AcDbEntity
  8
0
 62
256
370
-1
 48
1.0
  6
BYLAYER
100
AcDbLine
 10
172.0499999999999545
 20
159.0
 30
0.0
 11
172.0499999999999545
 21
146.4000000000000341
 31
0.0
  0
ARC
  5
75
100
AcDbEntity
  8
0
 62
256
370
-1
 48
1.0
  6
BYLAYER
100
AcDbCircle
 10
10.0
 20
10.0
 30
0.0
 40
10.0
100
AcDbArc
 50
180.0
 51
270.0
  0
ARC
  5
76
100
AcDbEntity
  8
0
 62
256
370
-1
 48
1.0
  6
BYLAYER
100
AcDbCircle
 10
370.0
 20
10.0
 30
0.0
 40
10.0
100
AcDbArc
 50
270.0
 51
0.0
  0
ARC
  5
77
100
AcDbEntity
  8
0
 62
256
370
-1
 48
1.0
  6
BYLAYER
100
AcDbCircle
 10
154.682897750874929
 20
40.7166248486550657
 30
0.0
 40
3.3171439095619286
100
AcDbArc
 50
223.4632687090109187
 51
359.7128440379339054
  0
ARC
  5
78
100
AcDbEntity
  8
0
 62
256
370
-1
 48
1.0
  6
BYLAYER
100
AcDbCircle
 10
201.0297537636162417
 20
92.4274068559502808
 30
0.0
 40
2.4275892014020322
100
AcDbArc
 50
125.0995918377046081
 51
269.2977363040122896
  0
ARC
  5
79
100
AcDbEntity
  8
0
 62
256
370
-1
 48
1.0
  6
BYLAYER
100
AcDbCircle
 10
178.9702462363837867
 20
92.4274068559502808
 30
0.0
 40
2.4275892014020322
100
AcDbArc
 50
270.7022636959877104
 51
54.9004081622953919
  0
ARC
  5
7A
100
AcDbEntity
  8
0
 62
256
370
-1
 48
1.0
  6
BYLAYER
100
AcDbCircle
 10
163.00847925609051
 20
11.00847925609051
 30
0.0
 40
5.0084864336916084
100
AcDbArc
 50
179.9029994738138782
 51
269.902999473811974
  0
ARC
  5
7B
100
AcDbEntity
  8
0
 62
256
370
-1
 48
1.0
  6
BYLAYER
100
AcDbCircle
 10
163.0
 20
85.0
 30
0.0
 40
5.0
100
AcDbArc
 50
90.0
 51
180.0
  0
ARC
  5
7C
100
AcDbEntity
  8
0
 62
256
370
-1
 48
1.0
  6
BYLAYER
100
AcDbCircle
 10
217.0
 20
85.0
 30
0.0
 40
5.0
100
AcDbArc
 50
0.0
 51
90.0
  0
ARC
  5
7D
100
AcDbEntity
  8
0
 62
256
370
-1
 48
1.0
  6
BYLAYER
100
AcDbCircle
 10
216.9915207439058236
 20
11.0084792560941622
 30
0.0
 40
5.0084864336952553
100
AcDbArc
 50
270.0970005262295786
 51
0.0970005262312126
  0
ARC
  5
7E
100
AcDbEntity
  8
0
 62
256
370
-1
 48
1.0
  6
BYLAYER
100
AcDbCircle
 10
190.0000000000001137
 20
107.1886406109755541
 30
0.0
 40
16.0004640116482939
100
AcDbArc
 50
307.0205013605717568
 51
232.97949863947008
  0
ARC
  5
7F
100
AcDbEntity
  8
0
 62
256
370
-1
 48
1.0
  6
BYLAYER
100
AcDbCircle
 10
49.4363777945394531
 20
101.6495759246692359
 30
0.0
 40
2.0570448797018144
100
AcDbArc
 50
63.926477564609236
 51
179.1431062457669157
  0
ARC
  5
80
100
AcDbEntity
  8
0
 62
256
370
-1
 48
1.0
  6
BYLAYER
100
AcDbCircle
 10
31.3885043059135569
 20
102.0995331644496105
 30
0.0
 40
15.9965521447047401
100
AcDbArc
 50
65.6266868300504171
 51
358.4983765774429116
  0
ARC
  5
81
100
AcDbEntity
  8
0
 62
256
370
-1
 48
1.0
  6
BYLAYER
100
AcDbCircle
 10
56.2688043512695799
 20
118.3487322687554979
 30
0.0
 40
15.9909516061008983
100
AcDbArc
 50
248.2394310141279163
 51
333.1461574816182178
  0
ARC
  5
82
100
AcDbEntity
  8
0
 62
256
370
-1
 48
1.0
  6
BYLAYER
100
AcDbCircle
 10
56.2631991107233773
 20
118.3559283576190069
 30
0.0
 40
15.9999999999998721
100
AcDbArc
 50
40.536491195215909
 51
180.0
  0
ARC
  5
83
100
AcDbEntity
  8
0
 62
256
370
-1
 48
1.0
  6
BYLAYER
100
AcDbCircle
 10
84.891243909386688
 20
121.5794969373685603
 30
0.0
 40
16.0249262623797399
100
AcDbArc
 50
219.7859298465288305
 51
302.8807621255646154
  0
ARC
  5
84
100
AcDbEntity
  8
0
 62
256
370
-1
 48
1.0
  6
BYLAYER
100
AcDbCircle
 10
84.8887947842089545
 20
121.5491629386054058
 30
0.0
 40
15.9972912597903694
100
AcDbArc
 50
8.4503428554935756
 51
151.835331045197421
  0
ARC
  5
85
100
AcDbEntity
  8
0
 62
256
370
-1
 48
1.0
  6
BYLAYER
100
AcDbCircle
 10
111.0679403134212606
 20
109.776496549205433
 30
0.0
 40
15.999425443393168
100
AcDbArc
 50
188.3739928239870665
 51
123.4882582309327574
  0
ARC
  5
86
100
AcDbEntity
  8
0
 62
256
370
-1
 48
1.0
  6
BYLAYER
100
AcDbCircle
 10
38.5874956695458593
 20
118.2402254189509847
 30
0.0
 40
1.6796931841234586
100
AcDbArc
 50
249.1613141001779184
 51
3.9498546080460217
  0
ARC
  5
87
100
AcDbEntity
  8
0
 62
256
370
-1
 48
1.0
  6
BYLAYER
100
AcDbCircle
 10
69.4879284417597916
 20
129.7244708811759892
 30
0.0
 40
1.4401706972205881
100
AcDbArc
 50
222.3201321330876112
 51
334.3031888101616005
  0
ARC
  5
88
100
AcDbEntity
  8
0
 62
256
370
-1
 48
1.0
  6
BYLAYER
100
AcDbCircle
 10
71.6170452069804355
 20
110.6020074434919138
 30
0.0
 40
1.2016781872946407
100
AcDbArc
 50
36.9769867368126057
 51
154.1816576329628674
  0
ARC
  5
89
100
AcDbEntity
  8
0
 62
256
370
-1
 48
1.0
  6
BYLAYER
100
AcDbCircle
 10
94.1709727221753496
 20
107.1883582101027628
 30
0.0
 40
1.0988555483702511
100
AcDbArc
 50
13.5834372723030228
 51
121.8532769082635809
  0
ARC
  5
8A
100
AcDbEntity
  8
0
 62
256
370
-1
 48
1.0
  6
BYLAYER
100
AcDbCircle
 10
101.7040419556984574
 20
123.9562032070528232
 30
0.0
 40
0.9932204331047972
100
AcDbArc
 50
183.2439199674976464
 51
302.6575300206591237
  0
ARC
  5
8B
100
AcDbEntity
  8
0
 62
256
370
-1
 48
1.0
  6
BYLAYER
100
AcDbCircle
 10
269.5396642701675773
 20
133.109222553606628
 30
0.0
 40
16.0089510043253362
100
AcDbArc
 50
58.0975029388861941
 51
226.0156760697730078
  0
ARC
  5
8C
100
AcDbEntity
  8
0
 62
256
370
-1
 48
1.0
  6
BYLAYER
100
AcDbCircle
 10
269.5044414282519938
 20
105.7132664391333776
 30
0.0
 40
15.9983153997400667
100
AcDbArc
 50
134.072357067804603
 51
349.8013179642372279
  0
ARC
  5
8D
100
AcDbEntity
  8
0
 62
256
370
-1
 48
1.0
  6
BYLAYER
100
AcDbCircle
 10
295.7838469966300181
 20
117.6868352962751771
 30
0.0
 40
15.9984868500409156
100
AcDbArc
 50
238.8159143292643307
 51
316.9459118098873205
  0
ARC
  5
8E
100
AcDbEntity
  8
0
 62
256
370
-1
 48
1.0
  6
BYLAYER
100
AcDbCircle
 10
324.1266417334948073
 20
114.4793884109756874
 30
0.0
 40
16.016351209294708
100
AcDbArc
 50
209.9540681314294375
 51
300.7650617945095632
  0
ARC
  5
8F
100
AcDbEntity
  8
0
 62
256
370
-1
 48
1.0
  6
BYLAYER
100
AcDbCircle
 10
350.527456997038712
 20
98.5527148852556252
 30
0.0
 40
16.000000000000167
100
AcDbArc
 50
176.9208234614557682
 51
50.5681975241743515
  0
ARC
  5
90
100
AcDbEntity
  8
0
 62
256
370
-1
 48
1.0
  6
BYLAYER
100
AcDbCircle
 10
350.3545108048252814
 20
125.8599887962104731
 30
0.0
 40
15.9991619614088449
100
AcDbArc
 50
309.8665505326006837
 51
122.1452543565573308
  0
ARC
  5
91
100
AcDbEntity
  8
0
 62
256
370
-1
 48
1.0
  6
BYLAYER
100
AcDbCircle
 10
324.1304384653249144
 20
141.7652448100622848
 30
0.0
 40
15.9997575454319083
100
AcDbArc
 50
355.6528767909383646
 51
134.9374350792908501
  0
ARC
  5
92
100
AcDbEntity
  8
0
 62
256
370
-1
 48
1.0
  6
BYLAYER
100
AcDbCircle
 10
295.7835477322100246
 20
144.896470603666188
 30
0.0
 40
15.994610119141095
100
AcDbArc
 50
32.1194534137183751
 51
169.9132195970657619
  0
ARC
  5
93
100
AcDbEntity
  8
0
 62
256
370
-1
 48
1.0
  6
BYLAYER
100
AcDbCircle
 10
262.4577642393525707
 20
38.9051433785942322
 30
0.0
 40
16.007160920729202
100
AcDbArc
 50
252.4822789216368619
 51
353.8949753170875283
  0
ARC
  5
94
100
AcDbEntity
  8
0
 62
256
370
-1
 48
1.0
  6
BYLAYER
100
AcDbCircle
 10
285.2137285347978377
 20
54.1188883837090344
 30
0.0
 40
16.0070625776979441
100
AcDbArc
 50
253.5822651092272508
 51
108.6160439971757796
  0
ARC
  5
95
100
AcDbEntity
  8
0
 62
256
370
-1
 48
1.0
  6
BYLAYER
100
AcDbCircle
 10
262.4645249807586538
 20
70.0357144779322311
 30
0.0
 40
16.0010155241971148
100
AcDbArc
 50
1.6583766778362792
 51
178.8316223588759613
  0
ARC
  5
96
100
AcDbEntity
  8
0
 62
256
370
-1
 48
1.0
  6
BYLAYER
100
AcDbCircle
 10
141.0505374520772932
 20
26.9627050117398568
 30
0.0
 40
16.0493050792816092
100
AcDbArc
 50
181.7834938370366729
 51
308.1562674200402512
  0
ARC
  5
97
100
AcDbEntity
  8
0
 62
256
370
-1
 48
1.0
  6
BYLAYER
100
AcDbCircle
 10
117.8363250231231376
 20
42.6406723434799986
 30
0.0
 40
16.025268353852379
100
AcDbArc
 50
3.0959333574100967
 51
290.2992821055364061
  0
ARC
  5
98
100
AcDbEntity
  8
0
 62
256
370
-1
 48
1.0
  6
BYLAYER
100
AcDbCircle
 10
333.1282515582500423
 20
99.5401501734496179
 30
0.0
 40
1.4280516309890077
100
AcDbArc
 50
354.8583000355399122
 51
124.5041247177145181
  0
ARC
  5
99
100
AcDbEntity
  8
0
 62
256
370
-1
 48
1.0
  6
BYLAYER
100
AcDbCircle
 10
361.6924114288403871
 20
112.2766517383450946
 30
0.0
 40
1.6942051801490825
100
AcDbArc
 50
129.7091292563797822
 51
233.724611216915946
  0
ARC
  5
9A
100
AcDbEntity
  8
0
 62
256
370
-1
 48
1.0
  6
BYLAYER
100
AcDbCircle
 10
341.3138695799713673
 20
140.5176321940001003
 30
0.0
 40
1.230196512914546
100
AcDbArc
 50
178.3766835752794293
 51
295.417148222188473
  0
ARC
  5
9B
100
AcDbEntity
  8
0
 62
256
370
-1
 48
1.0
  6
BYLAYER
100
AcDbCircle
 10
311.2005064556586831
 20
154.6124180179092775
 30
0.0
 40
2.2287137584023498
100
AcDbArc
 50
212.9384061356846871
 51
316.9539417641866521
  0
ARC
  5
9C
100
AcDbEntity
  8
0
 62
256
370
-1
 48
1.0
  6
BYLAYER
100
AcDbCircle
 10
278.6755407776789184
 20
147.8979057102037871
 30
0.0
 40
1.3752575878160938
100
AcDbArc
 50
240.5798337515718401
 51
351.6318302278276064
  0
ARC
  5
9D
100
AcDbEntity
  8
0
 62
256
370
-1
 48
1.0
  6
BYLAYER
100
AcDbCircle
 10
256.5003959975984458
 20
119.4185939321696992
 30
0.0
 40
2.8998507213846012
100
AcDbArc
 50
310.3145974036265784
 51
48.4955578472751512
  0
ARC
  5
9E
100
AcDbEntity
  8
0
 62
256
370
-1
 48
1.0
  6
BYLAYER
100
AcDbCircle
 10
286.7088710970948569
 20
102.7785692782227329
 30
0.0
 40
1.4552587223972224
100
AcDbArc
 50
57.0685979720378285
 51
171.0524431981993132
  0
ARC
  5
9F
100
AcDbEntity
  8
0
 62
256
370
-1
 48
1.0
  6
BYLAYER
100
AcDbCircle
 10
308.7742169387274771
 20
105.7623898469095849
 30
0.0
 40
1.6417219834640697
100
AcDbArc
 50
26.0101541480644265
 51
142.3658861996066776
  0
ARC
  5
A0
100
AcDbEntity
  8
0
 62
256
370
-1
 48
1.0
  6
BYLAYER
100
AcDbCircle
 10
245.2882380902189823
 20
70.4428857125413401
 30
0.0
 40
1.1813714416429533
100
AcDbArc
 50
250.062974108466733
 51
356.0733004498967489
  0
ARC
  5
A1
100
AcDbEntity
  8
0
 62
256
370
-1
 48
1.0
  6
BYLAYER
100
AcDbCircle
 10
279.7670090306765474
 20
70.5536908346148408
 30
0.0
 40
1.3093223038624646
100
AcDbArc
 50
182.4033622727281738
 51
284.9090653146183172
  0
ARC
  5
A2
100
AcDbEntity
  8
0
 62
256
370
-1
 48
1.0
  6
BYLAYER
100
AcDbCircle
 10
280.2828184748889271
 20
36.8702304802162146
 30
0.0
 40
1.9374263537751
100
AcDbArc
 50
77.8824794818190753
 51
170.1170807497734927
  0
ARC
  5
A3
100
AcDbEntity
  8
0
 62
256
370
-1
 48
1.0
  6
BYLAYER
100
AcDbCircle
 10
257.2421902967363962
 20
22.3727083603654648
 30
0.0
 40
1.3284584613912533
100
AcDbArc
 50
72.5935344475129085
 51
178.8458659341382315
  0
ARC
  5
A4
100
AcDbEntity
  8
0
 62
256
370
-1
 48
1.0
  6
BYLAYER
100
AcDbCircle
 10
123.7744806389980852
 20
26.4353125802020656
 30
0.0
 40
1.2348415982887126
100
AcDbArc
 50
1.2943214452584022
 51
107.8546730965998819
  0
ARC
  5
A5
100
AcDbEntity
  8
0
 62
256
370
-1
 48
1.0
  6
BYLAYER
100
AcDbCircle
 10
135.3594530172027817
 20
43.58722593114517
 30
0.0
 40
1.5234066372848034
100
AcDbArc
 50
183.0502009603121394
 51
287.8547622806660797
  0
ARC
  5
A6
100
AcDbEntity
  8
0
 62
256
370
-1
 48
1.0
  6
BYLAYER
100
AcDbCircle
 10
153.8461658595138317
 20
11.3329507961559841
 30
0.0
 40
4.1658359533468223
100
AcDbArc
 50
355.6497491955753958
 51
133.7405408124173221
  0
ARC
  5
A7
100
AcDbEntity
  8
0
 62
256
370
-1
 48
1.0
  6
BYLAYER
100
AcDbCircle
 10
140.7561631242023452
 20
25.6483792100340935
 30
0.0
 40
17.2099430348404709
100
AcDbArc
 50
47.9847642355793553
 51
106.6449770353796254
  0
ARC
  5
A8
100
AcDbEntity
  8
0
 62
256
370
-1
 48
1.0
  6
BYLAYER
100
AcDbCircle
 10
225.1637314583787486
 20
10.7176891412169653
 30
0.0
 40
3.1778544487029321
100
AcDbArc
 50
40.2269219713368926
 51
174.5962539396934119
  0
ARC
  5
A9
100
AcDbEntity
  8
0
 62
256
370
-1
 48
1.0
  6
BYLAYER
100
AcDbCircle
 10
224.681519725842918
 20
64.926244211798263
 30
0.0
 40
2.6825338686356739
100
AcDbArc
 50
178.4244642546613875
 51
323.2175196937172927
  0
ARC
  5
AA
100
AcDbEntity
  8
0
 62
256
370
-1
 48
1.0
  6
BYLAYER
100
AcDbCircle
 10
239.9247761168994373
 20
54.1124529765723423
 30
0.0
 40
16.00787567856365
100
AcDbArc
 50
71.9475907140393929
 51
144.8871614870965914
  0
ARC
  5
AB
100
AcDbEntity
  8
0
 62
256
370
-1
 48
1.0
  6
BYLAYER
100
AcDbCircle
 10
239.913023511270012
 20
22.9938794041894425
 30
0.0
 40
16.0120148179644382
100
AcDbArc
 50
219.6810258211600058
 51
357.8725231389855139
  0
LINE
  5
AC
100
AcDbEntity
  8
0
 62
256
370
-1
 48
1.0
  6
BYLAYER
100
AcDbLine
 10
172.0499999999999545
 20
146.4000000000000341
 30
0.0
 11
167.9999999999988631
 21
146.4000000000000341
 31
0.0
  0
LINE
  5
AD
100
AcDbEntity
  8
0
 62
256
370
-1
 48
1.0
  6
BYLAYER
100
AcDbLine
 10
166.9999999999998863
 20
145.4000000000000057
 30
0.0
 11
166.9999999999998863
 21
139.9499999999991928
 31
0.0
  0
LINE
  5
AE
100
AcDbEntity
  8
0
 62
256
370
-1
 48
1.0
  6
BYLAYER
100
AcDbLine
 10
165.9999999999998863
 20
138.9500000000000171
 30
0.0
 11
141.0000000000009095
 21
138.9500000000000171
 31
0.0
  0
LINE
  5
AF
100
AcDbEntity
  8
0
 62
256
370
-1
 48
1.0
  6
BYLAYER
100
AcDbLine
 10
139.9999999999999432
 20
139.9500000000000739
 30
0.0
 11
139.9999999999999432
 21
145.4000000000000057
 31
0.0
  0
LINE
  5
B0
100
AcDbEntity
  8
0
 62
256
370
-1
 48
1.0
  6
BYLAYER
100
AcDbLine
 10
139.0000000000009095
 20
146.4000000000000341
 30
0.0
 11
135.0499999999999545
 21
146.4000000000000341
 31
0.0
  0
ARC
  5
B1
100
AcDbEntity
  8
0
 62
256
370
-1
 48
1.0
  6
BYLAYER
100
AcDbCircle
 10
168.0276266291031106
 20
145.3723733708968666
 30
0.0
 40
1.0279979180317438
100
AcDbArc
 50
91.5399640574584481
 51
178.4600359425447778
  0
ARC
  5
B2
100
AcDbEntity
  8
0
 62
256
370
-1
 48
1.0
  6
BYLAYER
100
AcDbCircle
 10
138.9723733708967757
 20
145.3723733708968666
 30
0.0
 40
1.0279979180317438
100
AcDbArc
 50
1.5399640574552109
 51
88.4600359425415519
  0
ARC
  5
B3
100
AcDbEntity
  8
0
 62
256
370
-1
 48
1.0
  6
BYLAYER
100
AcDbCircle
 10
141.0276266291031106
 20
139.977626629103213
 30
0.0
 40
1.0279979180317438
100
AcDbArc
 50
181.5399640574551938
 51
268.4600359425415945
  0
ARC
  5
B4
100
AcDbEntity
  8
0
 62
256
370
-1
 48
1.0
  6
BYLAYER
100
AcDbCircle
 10
159.1276266291031618
 20
160.0276266291032243
 30
0.0
 40
1.0279979180317438
100
AcDbArc
 50
181.5399640574551938
 51
268.4600359425415945
  0
ARC
  5
B5
100
AcDbEntity
  8
0
 62
256
370
-1
 48
1.0
  6
BYLAYER
100
AcDbCircle
 10
165.9723733708967188
 20
139.977626629103213
 30
0.0
 40
1.0279979180317438
100
AcDbArc
 50
271.5399640574584055
 51
358.4600359425447778
  0
ARC
  5
B6
100
AcDbEntity
  8
0
 62
256
370
-1
 48
1.0
  6
BYLAYER
100
AcDbCircle
 10
147.9723733708967757
 20
160.0276266291032243
 30
0.0
 40
1.0279979180317438
100
AcDbArc
 50
271.5399640574584055
 51
358.4600359425447778
  0
ENDSEC
  0
SECTION
  2
OBJECTS
  0
DICTIONARY
  5
C
100
AcDbDictionary
280
0
281
1
  3
ACAD_GROUP
350
D
  3
ACAD_LAYOUT
350
1A
  3
ACAD_MLINESTYLE
350
17
  3
ACAD_PLOTSETTINGS
350
19
  3
ACAD_PLOTSTYLENAME
350
E
  3
AcDbVariableDictionary
350
B7
  3
QCAD_OBJECTS
350
B8
  0
DICTIONARY
  5
D
100
AcDbDictionary
280
0
281
1
  0
ACDBDICTIONARYWDFLT
  5
E
100
AcDbDictionary
281
1
  3
Normal
350
F
100
AcDbDictionaryWithDefault
340
F
  0
ACDBPLACEHOLDER
  5
F
  0
DICTIONARY
  5
17
100
AcDbDictionary
280
0
281
1
  3
Standard
350
18
  0
MLINESTYLE
  5
18
100
AcDbMlineStyle
  2
STANDARD
 70
0
  3

 62
256
 51
90.0
 52
90.0
 71
2
 49
0.5
 62
256
  6
BYLAYER
 49
-0.5
 62
256
  6
BYLAYER
  0
DICTIONARY
  5
19
100
AcDbDictionary
280
0
281
1
  0
DICTIONARY
  5
1A
100
AcDbDictionary
281
1
  3
Layout1
350
1E
  3
Layout2
350
26
  3
Model
350
22
  0
LAYOUT
  5
1E
100
AcDbPlotSettings
  1

  2
none_device
  4

  6

 40
0.0
 41
0.0
 42
0.0
 43
0.0
 44
0.0
 45
0.0
 46
0.0
 47
0.0
 48
0.0
 49
0.0
140
0.0
141
0.0
142
1.0
143
1.0
 70
688
 72
0
 73
0
 74
5
  7

 75
16
147
1.0
148
0.0
149
0.0
100
AcDbLayout
  1
Layout1
 70
1
 71
1
 10
0.0
 20
0.0
 11
420.0
 21
297.0
 12
0.0
 22
0.0
 32
0.0
 14
100000000000000000000.0
 24
100000000000000000000.0
 34
100000000000000000000.0
 15
-100000000000000000000.0
 25
-100000000000000000000.0
 35
-100000000000000000000.0
146
0.0
 13
0.0
 23
0.0
 33
0.0
 16
1.0
 26
0.0
 36
0.0
 17
0.0
 27
1.0
 37
0.0
 76
0
330
1B
  0
LAYOUT
  5
22
100
AcDbPlotSettings
  1

  2
none_device
  4

  6

 40
0.0
 41
0.0
 42
0.0
 43
0.0
 44
0.0
 45
0.0
 46
0.0
 47
0.0
 48
0.0
 49
0.0
140
0.0
141
0.0
142
1.0
143
1.0
 70
1712
 72
0
 73
0
 74
0
  7

 75
0
147
1.0
148
0.0
149
0.0
100
AcDbLayout
  1
Model
 70
1
 71
0
 10
0.0
 20
0.0
 11
12.0
 21
9.0
 12
0.0
 22
0.0
 32
0.0
 14
0.0
 24
0.0
 34
0.0
 15
0.0
 25
0.0
 35
0.0
146
0.0
 13
0.0
 23
0.0
 33
0.0
 16
1.0
 26
0.0
 36
0.0
 17
0.0
 27
1.0
 37
0.0
 76
0
330
1F
  0
LAYOUT
  5
26
100
AcDbPlotSettings
  1

  2
none_device
  4

  6

 40
0.0
 41
0.0
 42
0.0
 43
0.0
 44
0.0
 45
0.0
 46
0.0
 47
0.0
 48
0.0
 49
0.0
140
0.0
141
0.0
142
1.0
143
1.0
 70
688
 72
0
 73
0
 74
5
  7

 75
16
147
1.0
148
0.0
149
0.0
100
AcDbLayout
  1
Layout2
 70
1
 71
2
 10
0.0
 20
0.0
 11
12.0
 21
9.0
 12
0.0
 22
0.0
 32
0.0
 14
0.0
 24
0.0
 34
0.0
 15
0.0
 25
0.0
 35
0.0
146
0.0
 13
0.0
 23
0.0
 33
0.0
 16
1.0
 26
0.0
 36
0.0
 17
0.0
 27
1.0
 37
0.0
 76
0
330
23
  0
DICTIONARY
  5
B7
100
AcDbDictionary
281
1
  3
DIMASSOC
350
BA
  3
HIDETEXT
350
B9
  0
DICTIONARYVAR
  5
B9
100
DictionaryVariables
280
0
  1
2
  0
DICTIONARYVAR
  5
BA
100
DictionaryVariables
280
0
  1
1
  0
DICTIONARY
  5
B8
100
AcDbDictionary
281
1
  3
ColorSettings/BackgroundColor
350
BB
  3
ColorSettings/ColorMode
350
BC
  3
Grid/DisplayGrid00
350
BD
  3
Grid/DisplayGrid01
350
BE
  3
Grid/DisplayGrid02
350
BF
  3
Grid/DisplayGrid03
350
C0
  3
Grid/GridSpacingX00
350
C1
  3
Grid/GridSpacingX01
350
C2
  3
Grid/GridSpacingX02
350
C3
  3
Grid/GridSpacingX03
350
C4
  3
Grid/GridSpacingY00
350
C5
  3
Grid/GridSpacingY01
350
C6
  3
Grid/GridSpacingY02
350
C7
  3
Grid/GridSpacingY03
350
C8
  3
Grid/IsometricGrid00
350
C9
  3
Grid/IsometricGrid01
350
CA
  3
Grid/IsometricGrid02
350
CB
  3
Grid/IsometricGrid03
350
CC
  3
Grid/IsometricProjection00
350
CD
  3
Grid/IsometricProjection01
350
CE
  3
Grid/IsometricProjection02
350
CF
  3
Grid/IsometricProjection03
350
D0
  3
Grid/MetaGridSpacingX00
350
D1
  3
Grid/MetaGridSpacingX01
350
D2
  3
Grid/MetaGridSpacingX02
350
D3
  3
Grid/MetaGridSpacingX03
350
D4
  3
Grid/MetaGridSpacingY00
350
D5
  3
Grid/MetaGridSpacingY01
350
D6
  3
Grid/MetaGridSpacingY02
350
D7
  3
Grid/MetaGridSpacingY03
350
D8
  3
MultiPageSettings/Columns
350
D9
  3
MultiPageSettings/GlueMarginsBottom
350
DA
  3
MultiPageSettings/GlueMarginsLeft
350
DB
  3
MultiPageSettings/GlueMarginsRight
350
DC
  3
MultiPageSettings/GlueMarginsTop
350
DD
  3
MultiPageSettings/PrintCropMarks
350
DE
  3
MultiPageSettings/Rows
350
DF
  3
PageSettings/OffsetX
350
E0
  3
PageSettings/OffsetY
350
E1
  3
PageSettings/PageOrientation
350
E2
  3
PageSettings/PaperHeight
350
E3
  3
PageSettings/PaperWidth
350
E4
  3
PageSettings/Scale
350
E5
  3
PageSettings/ShowPaperBorders
350
E6
  3
PageTagSettings/EnablePageTags
350
E7
  3
PageTagSettings/TagAlignment
350
E8
  3
PageTagSettings/TagFont
350
E9
  3
PageTagSettings/TagPosition
350
EA
  3
QCADVersion
350
EB
  3
UnitSettings/PaperUnit
350
EC
  3
ViewportCenter
350
ED
  3
ViewportHeight
350
EE
  3
ViewportWidth
350
EF
  0
XRECORD
  5
BB
330
B8
100
AcDbXrecord
280
1
1000
White
  0
XRECORD
  5
BC
330
B8
100
AcDbXrecord
280
1
1000
FullColor
  0
XRECORD
  5
BD
330
B8
100
AcDbXrecord
280
1
290
1
  0
XRECORD
  5
BE
330
B8
100
AcDbXrecord
280
1
290
1
  0
XRECORD
  5
BF
330
B8
100
AcDbXrecord
280
1
290
1
  0
XRECORD
  5
C0
330
B8
100
AcDbXrecord
280
1
290
1
  0
XRECORD
  5
C1
330
B8
100
AcDbXrecord
280
1
1000
auto
  0
XRECORD
  5
C2
330
B8
100
AcDbXrecord
280
1
1000
auto
  0
XRECORD
  5
C3
330
B8
100
AcDbXrecord
280
1
1000
auto
  0
XRECORD
  5
C4
330
B8
100
AcDbXrecord
280
1
1000
auto
  0
XRECORD
  5
C5
330
B8
100
AcDbXrecord
280
1
1000
auto
  0
XRECORD
  5
C6
330
B8
100
AcDbXrecord
280
1
1000
auto
  0
XRECORD
  5
C7
330
B8
100
AcDbXrecord
280
1
1000
auto
  0
XRECORD
  5
C8
330
B8
100
AcDbXrecord
280
1
1000
auto
  0
XRECORD
  5
C9
330
B8
100
AcDbXrecord
280
1
290
0
  0
XRECORD
  5
CA
330
B8
100
AcDbXrecord
280
1
290
0
  0
XRECORD
  5
CB
330
B8
100
AcDbXrecord
280
1
290
0
  0
XRECORD
  5
CC
330
B8
100
AcDbXrecord
280
1
290
0
  0
XRECORD
  5
CD
330
B8
100
AcDbXrecord
280
1
 90
65537
  0
XRECORD
  5
CE
330
B8
100
AcDbXrecord
280
1
 90
65537
  0
XRECORD
  5
CF
330
B8
100
AcDbXrecord
280
1
 90
65537
  0
XRECORD
  5
D0
330
B8
100
AcDbXrecord
280
1
 90
65537
  0
XRECORD
  5
D1
330
B8
100
AcDbXrecord
280
1
1000
auto
  0
XRECORD
  5
D2
330
B8
100
AcDbXrecord
280
1
1000
auto
  0
XRECORD
  5
D3
330
B8
100
AcDbXrecord
280
1
1000
auto
  0
XRECORD
  5
D4
330
B8
100
AcDbXrecord
280
1
1000
auto
  0
XRECORD
  5
D5
330
B8
100
AcDbXrecord
280
1
1000
auto
  0
XRECORD
  5
D6
330
B8
100
AcDbXrecord
280
1
1000
auto
  0
XRECORD
  5
D7
330
B8
100
AcDbXrecord
280
1
1000
auto
  0
XRECORD
  5
D8
330
B8
100
AcDbXrecord
280
1
1000
auto
  0
XRECORD
  5
D9
330
B8
100
AcDbXrecord
280
1
 90
1
  0
XRECORD
  5
DA
330
B8
100
AcDbXrecord
280
1
 40
10.0
  0
XRECORD
  5
DB
330
B8
100
AcDbXrecord
280
1
 40
10.0
  0
XRECORD
  5
DC
330
B8
100
AcDbXrecord
280
1
 40
10.0
  0
XRECORD
  5
DD
330
B8
100
AcDbXrecord
280
1
 40
10.0
  0
XRECORD
  5
DE
330
B8
100
AcDbXrecord
280
1
290
0
  0
XRECORD
  5
DF
330
B8
100
AcDbXrecord
280
1
 90
1
  0
XRECORD
  5
E0
330
B8
100
AcDbXrecord
280
1
 40
0.0
  0
XRECORD
  5
E1
330
B8
100
AcDbXrecord
280
1
 40
0.0
  0
XRECORD
  5
E2
330
B8
100
AcDbXrecord
280
1
1000
Portrait
  0
XRECORD
  5
E3
330
B8
100
AcDbXrecord
280
1
 40
279.3999999999999773
  0
XRECORD
  5
E4
330
B8
100
AcDbXrecord
280
1
 40
215.9000000000000057
  0
XRECORD
  5
E5
330
B8
100
AcDbXrecord
280
1
1000
1:1
  0
XRECORD
  5
E6
330
B8
100
AcDbXrecord
280
1
290
1
  0
XRECORD
  5
E7
330
B8
100
AcDbXrecord
280
1
290
0
  0
XRECORD
  5
E8
330
B8
100
AcDbXrecord
280
1
1000
Inside
  0
XRECORD
  5
E9
330
B8
100
AcDbXrecord
280
1
1000
Arial,10,-1,5,50,0,0,0,0,0
  0
XRECORD
  5
EA
330
B8
100
AcDbXrecord
280
1
1000
TopLeft
  0
XRECORD
  5
EB
330
B8
100
AcDbXrecord
280
1
1000
3.27.6
  0
XRECORD
  5
EC
330
B8
100
AcDbXrecord
280
1
 90
4
  0
XRECORD
  5
EE
330
B8
100
AcDbXrecord
280
1
 40
111.3000000000000114
  0
XRECORD
  5
EF
330
B8
100
AcDbXrecord
280
1
 40
170.4000000000000057
  0
ENDSEC
  0
EOF
