999
dxflib 3.26.4.0
  0
SECTION
  2
HEADER
  9
$ACADVER
  1
AC1015
  9
$HANDSEED
  5
FFFF
  9
$DIMADEC
 70
0
  9
$DIMASZ
 40
2.5
  9
$DIMATFIT
 70
0
  9
$DIMAUNIT
 70
0
  9
$DIMAZIN
 70
2
  9
$DIMBLK
  1

  9
$DIMDEC
 70
4
  9
$DIMDLI
 40
5.0
  9
$DIMDSEP
 70
46
  9
$DIMEXE
 40
1.25
  9
$DIMEXO
 40
0.625
  9
$DIMGAP
 40
0.625
  9
$DIMLFAC
 40
1.0
  9
$DIMLUNIT
 70
2
  9
$DIMSCALE
 40
1.0
  9
$DIMTAD
 70
1
  9
$DIMTIH
 70
0
  9
$DIMTSZ
 40
0.0
  9
$DIMTXT
 40
2.5
  9
$DIMZIN
 70
8
  9
$DWGCODEPAGE
  3
ANSI_1252
  9
$INSUNITS
 70
4
  9
$LTSCALE
 40
1.0
  9
$MAXACTVP
 70
64
  9
$MEASUREMENT
 70
1
  9
$MIRRTEXT
 70
0
  9
$PDMODE
 70
0
  9
$PDSIZE
 40
0.0
  0
ENDSEC
  0
SECTION
  2
TABLES
  0
TABLE
  2
VPORT
  5
8
100
AcDbSymbolTable
 70
1
  0
VPORT
  5
30
100
AcDbSymbolTableRecord
100
AcDbViewportTableRecord
  2
*Active
 70
0
 10
0.0
 20
0.0
 11
1.0
 21
1.0
 12
286.3055555555554861
 22
148.5
 13
0.0
 23
0.0
 14
10.0
 24
10.0
 15
10.0
 25
10.0
 16
0.0
 26
0.0
 36
1.0
 17
0.0
 27
0.0
 37
0.0
 40
297.0
 41
1.92798353909465
 42
50.0
 43
0.0
 44
0.0
 50
0.0
 51
0.0
 71
0
 72
100
 73
1
 74
3
 75
1
 76
1
 77
0
 78
0
281
0
 65
1
110
0.0
120
0.0
130
0.0
111
1.0
121
0.0
131
0.0
112
0.0
122
1.0
132
0.0
 79
0
146
0.0
  0
ENDTAB
  0
TABLE
  2
LTYPE
  5
5
100
AcDbSymbolTable
 70
41
  0
LTYPE
  5
16
100
AcDbSymbolTableRecord
100
AcDbLinetypeTableRecord
  2
Continuous
 70
0
  3
Solid line
 72
65
 73
0
 40
0.0
  0
LTYPE
  5
31
100
AcDbSymbolTableRecord
100
AcDbLinetypeTableRecord
  2
DASHDOT2
 70
0
  3
Dash dot (.5x) _._._._._._._._._._._._._._._.
 72
65
 73
4
 40
12.6999999999999993
 49
6.3499999999999996
 74
0
 49
-3.1749999999999998
 74
0
 49
0.0
 74
0
 49
-3.1749999999999998
 74
0
  0
LTYPE
  5
32
100
AcDbSymbolTableRecord
100
AcDbLinetypeTableRecord
  2
DASHED2
 70
0
  3
Dashed (.5x) _ _ _ _ _ _ _ _ _ _ _ _ _ _ _ _ _ 
 72
65
 73
2
 40
9.5249999999999986
 49
6.3499999999999996
 74
0
 49
-3.1749999999999998
 74
0
  0
LTYPE
  5
33
100
AcDbSymbolTableRecord
100
AcDbLinetypeTableRecord
  2
HIDDEN
 70
0
  3
Hidden __ __ __ __ __ __ __ __ __ __ __ __ __ __
 72
65
 73
2
 40
9.5249999999999986
 49
6.3499999999999996
 74
0
 49
-3.1749999999999998
 74
0
  0
LTYPE
  5
34
100
AcDbSymbolTableRecord
100
AcDbLinetypeTableRecord
  2
HIDDENX2
 70
0
  3
Hidden (2x) ____ ____ ____ ____ ____ ____ ____ 
 72
65
 73
2
 40
19.0499999999999972
 49
12.6999999999999993
 74
0
 49
-6.3499999999999996
 74
0
  0
LTYPE
  5
35
100
AcDbSymbolTableRecord
100
AcDbLinetypeTableRecord
  2
ACAD_ISO11W100
 70
0
  3
ISO double-dash dot __ __ . __ __ . __ __ . __ _
 72
65
 73
6
 40
33.0
 49
12.0
 74
0
 49
-3.0
 74
0
 49
12.0
 74
0
 49
-3.0
 74
0
 49
0.0
 74
0
 49
-3.0
 74
0
  0
LTYPE
  5
36
100
AcDbSymbolTableRecord
100
AcDbLinetypeTableRecord
  2
ACAD_ISO06W100
 70
0
  3
ISO long-dash triple-dot ____ ... ____ ... ____
 72
65
 73
8
 40
36.0
 49
24.0
 74
0
 49
-3.0
 74
0
 49
0.0
 74
0
 49
-3.0
 74
0
 49
0.0
 74
0
 49
-3.0
 74
0
 49
0.0
 74
0
 49
-3.0
 74
0
  0
LTYPE
  5
37
100
AcDbSymbolTableRecord
100
AcDbLinetypeTableRecord
  2
ACAD_ISO02W100
 70
0
  3
ISO dash __ __ __ __ __ __ __ __ __ __ __ __ __
 72
65
 73
2
 40
15.0
 49
12.0
 74
0
 49
-3.0
 74
0
  0
LTYPE
  5
38
100
AcDbSymbolTableRecord
100
AcDbLinetypeTableRecord
  2
BORDERX2
 70
0
  3
Border (2x) ____  ____  .  ____  ____  .  ___
 72
65
 73
6
 40
88.8999999999999915
 49
25.3999999999999986
 74
0
 49
-12.6999999999999993
 74
0
 49
25.3999999999999986
 74
0
 49
-12.6999999999999993
 74
0
 49
0.0
 74
0
 49
-12.6999999999999993
 74
0
  0
LTYPE
  5
39
100
AcDbSymbolTableRecord
100
AcDbLinetypeTableRecord
  2
HIDDEN2
 70
0
  3
Hidden (.5x) _ _ _ _ _ _ _ _ _ _ _ _ _ _ _ _ _ 
 72
65
 73
2
 40
4.7624999999999993
 49
3.1749999999999998
 74
0
 49
-1.5874999999999999
 74
0
  0
LTYPE
  5
3A
100
AcDbSymbolTableRecord
100
AcDbLinetypeTableRecord
  2
ACAD_ISO15W100
 70
0
  3
ISO double-dash triple-dot __ __ . . . __ __ . .
 72
65
 73
10
 40
39.0
 49
12.0
 74
0
 49
-3.0
 74
0
 49
12.0
 74
0
 49
-3.0
 74
0
 49
0.0
 74
0
 49
-3.0
 74
0
 49
0.0
 74
0
 49
-3.0
 74
0
 49
0.0
 74
0
 49
-3.0
 74
0
  0
LTYPE
  5
3B
100
AcDbSymbolTableRecord
100
AcDbLinetypeTableRecord
  2
DIVIDEX2
 70
0
  3
Divide (2x) ________  .  .  ________  .  .  _
 72
65
 73
6
 40
63.5
 49
25.3999999999999986
 74
0
 49
-12.6999999999999993
 74
0
 49
0.0
 74
0
 49
-12.6999999999999993
 74
0
 49
0.0
 74
0
 49
-12.6999999999999993
 74
0
  0
LTYPE
  5
3C
100
AcDbSymbolTableRecord
100
AcDbLinetypeTableRecord
  2
ACAD_ISO14W100
 70
0
  3
ISO dash triple-dot __ . . . __ . . . __ . . . _
 72
65
 73
8
 40
24.0
 49
12.0
 74
0
 49
-3.0
 74
0
 49
0.0
 74
0
 49
-3.0
 74
0
 49
0.0
 74
0
 49
-3.0
 74
0
 49
0.0
 74
0
 49
-3.0
 74
0
  0
LTYPE
  5
3D
100
AcDbSymbolTableRecord
100
AcDbLinetypeTableRecord
  2
BORDER
 70
0
  3
Border __ __ . __ __ . __ __ . __ __ . __ __ .
 72
65
 73
6
 40
44.4499999999999957
 49
12.6999999999999993
 74
0
 49
-6.3499999999999996
 74
0
 49
12.6999999999999993
 74
0
 49
-6.3499999999999996
 74
0
 49
0.0
 74
0
 49
-6.3499999999999996
 74
0
  0
LTYPE
  5
3E
100
AcDbSymbolTableRecord
100
AcDbLinetypeTableRecord
  2
BORDER2
 70
0
  3
Border (.5x) __.__.__.__.__.__.__.__.__.__.__.
 72
65
 73
6
 40
22.2249999999999979
 49
6.3499999999999996
 74
0
 49
-3.1749999999999998
 74
0
 49
6.3499999999999996
 74
0
 49
-3.1749999999999998
 74
0
 49
0.0
 74
0
 49
-3.1749999999999998
 74
0
  0
LTYPE
  5
3F
100
AcDbSymbolTableRecord
100
AcDbLinetypeTableRecord
  2
CENTERX2
 70
0
  3
Center (2x) ________  __  ________  __  _____
 72
65
 73
4
 40
101.6000000000000085
 49
63.5
 74
0
 49
-12.6999999999999993
 74
0
 49
12.6999999999999993
 74
0
 49
-12.6999999999999993
 74
0
  0
LTYPE
  5
40
100
AcDbSymbolTableRecord
100
AcDbLinetypeTableRecord
  2
DOTX2
 70
0
  3
Dot (2x) .  .  .  .  .  .  .  .  .  .  .  .  .  .
 72
65
 73
2
 40
12.6999999999999993
 49
0.0
 74
0
 49
-12.6999999999999993
 74
0
  0
LTYPE
  5
41
100
AcDbSymbolTableRecord
100
AcDbLinetypeTableRecord
  2
PHANTOMX2
 70
0
  3
Phantom (2x) ____________    ____    ____   _
 72
65
 73
6
 40
127.0000000000000142
 49
63.5
 74
0
 49
-12.6999999999999993
 74
0
 49
12.6999999999999993
 74
0
 49
-12.6999999999999993
 74
0
 49
12.6999999999999993
 74
0
 49
-12.6999999999999993
 74
0
  0
LTYPE
  5
42
100
AcDbSymbolTableRecord
100
AcDbLinetypeTableRecord
  2
DOT
 70
0
  3
Dot . . . . . . . . . . . . . . . . . . . . . . . .
 72
65
 73
2
 40
6.3499999999999996
 49
0.0
 74
0
 49
-6.3499999999999996
 74
0
  0
LTYPE
  5
43
100
AcDbSymbolTableRecord
100
AcDbLinetypeTableRecord
  2
PHANTOM
 70
0
  3
Phantom ______  __  __  ______  __  __  ______ 
 72
65
 73
6
 40
63.5000000000000071
 49
31.75
 74
0
 49
-6.3499999999999996
 74
0
 49
6.3499999999999996
 74
0
 49
-6.3499999999999996
 74
0
 49
6.3499999999999996
 74
0
 49
-6.3499999999999996
 74
0
  0
LTYPE
  5
44
100
AcDbSymbolTableRecord
100
AcDbLinetypeTableRecord
  2
PHANTOM2
 70
0
  3
Phantom (.5x) ___ _ _ ___ _ _ ___ _ _ ___ _ _
 72
65
 73
6
 40
31.7500000000000036
 49
15.875
 74
0
 49
-3.1749999999999998
 74
0
 49
3.1749999999999998
 74
0
 49
-3.1749999999999998
 74
0
 49
3.1749999999999998
 74
0
 49
-3.1749999999999998
 74
0
  0
LTYPE
  5
45
100
AcDbSymbolTableRecord
100
AcDbLinetypeTableRecord
  2
ACAD_ISO08W100
 70
0
  3
ISO long-dash short-dash ____ __ ____ __ ____ _
 72
65
 73
4
 40
36.0
 49
24.0
 74
0
 49
-3.0
 74
0
 49
6.0
 74
0
 49
-3.0
 74
0
  0
LTYPE
  5
46
100
AcDbSymbolTableRecord
100
AcDbLinetypeTableRecord
  2
ACAD_ISO10W100
 70
0
  3
ISO dash dot __ . __ . __ . __ . __ . __ . __ . 
 72
65
 73
4
 40
18.0
 49
12.0
 74
0
 49
-3.0
 74
0
 49
0.0
 74
0
 49
-3.0
 74
0
  0
LTYPE
  5
47
100
AcDbSymbolTableRecord
100
AcDbLinetypeTableRecord
  2
ACAD_ISO09W100
 70
0
  3
ISO long-dash double-short-dash ____ __ __ ____
 72
65
 73
6
 40
45.0
 49
24.0
 74
0
 49
-3.0
 74
0
 49
6.0
 74
0
 49
-3.0
 74
0
 49
6.0
 74
0
 49
-3.0
 74
0
  0
LTYPE
  5
48
100
AcDbSymbolTableRecord
100
AcDbLinetypeTableRecord
  2
ACAD_ISO03W100
 70
0
  3
ISO dash space __    __    __    __    __    __
 72
65
 73
2
 40
30.0
 49
12.0
 74
0
 49
-18.0
 74
0
  0
LTYPE
  5
49
100
AcDbSymbolTableRecord
100
AcDbLinetypeTableRecord
  2
CENTER2
 70
0
  3
Center (.5x) ___ _ ___ _ ___ _ ___ _ ___ _ ___
 72
65
 73
4
 40
28.5750000000000028
 49
19.0500000000000007
 74
0
 49
-3.1749999999999998
 74
0
 49
3.1749999999999998
 74
0
 49
-3.1749999999999998
 74
0
  0
LTYPE
  5
4A
100
AcDbSymbolTableRecord
100
AcDbLinetypeTableRecord
  2
CENTER
 70
0
  3
Center ____ _ ____ _ ____ _ ____ _ ____ _ ____
 72
65
 73
4
 40
50.8000000000000043
 49
31.75
 74
0
 49
-6.3499999999999996
 74
0
 49
6.3499999999999996
 74
0
 49
-6.3499999999999996
 74
0
  0
LTYPE
  5
4B
100
AcDbSymbolTableRecord
100
AcDbLinetypeTableRecord
  2
DIVIDE
 70
0
  3
Divide ____ . . ____ . . ____ . . ____ . . ____
 72
65
 73
6
 40
31.75
 49
12.6999999999999993
 74
0
 49
-6.3499999999999996
 74
0
 49
0.0
 74
0
 49
-6.3499999999999996
 74
0
 49
0.0
 74
0
 49
-6.3499999999999996
 74
0
  0
LTYPE
  5
4C
100
AcDbSymbolTableRecord
100
AcDbLinetypeTableRecord
  2
DASHDOT
 70
0
  3
Dash dot __ . __ . __ . __ . __ . __ . __ . __
 72
65
 73
4
 40
25.3999999999999986
 49
12.6999999999999993
 74
0
 49
-6.3499999999999996
 74
0
 49
0.0
 74
0
 49
-6.3499999999999996
 74
0
  0
LTYPE
  5
4D
100
AcDbSymbolTableRecord
100
AcDbLinetypeTableRecord
  2
DASHED
 70
0
  3
Dashed __ __ __ __ __ __ __ __ __ __ __ __ __ _
 72
65
 73
2
 40
19.0499999999999972
 49
12.6999999999999993
 74
0
 49
-6.3499999999999996
 74
0
  0
LTYPE
  5
4E
100
AcDbSymbolTableRecord
100
AcDbLinetypeTableRecord
  2
DIVIDE2
 70
0
  3
Divide (.5x) __..__..__..__..__..__..__..__.._
 72
65
 73
6
 40
15.875
 49
6.3499999999999996
 74
0
 49
-3.1749999999999998
 74
0
 49
0.0
 74
0
 49
-3.1749999999999998
 74
0
 49
0.0
 74
0
 49
-3.1749999999999998
 74
0
  0
LTYPE
  5
4F
100
AcDbSymbolTableRecord
100
AcDbLinetypeTableRecord
  2
ACAD_ISO04W100
 70
0
  3
ISO long-dash dot ____ . ____ . ____ . ____ . _
 72
65
 73
4
 40
30.0
 49
24.0
 74
0
 49
-3.0
 74
0
 49
0.0
 74
0
 49
-3.0
 74
0
  0
LTYPE
  5
50
100
AcDbSymbolTableRecord
100
AcDbLinetypeTableRecord
  2
ACAD_ISO13W100
 70
0
  3
ISO double-dash double-dot __ __ . . __ __ . . _
 72
65
 73
8
 40
36.0
 49
12.0
 74
0
 49
-3.0
 74
0
 49
12.0
 74
0
 49
-3.0
 74
0
 49
0.0
 74
0
 49
-3.0
 74
0
 49
0.0
 74
0
 49
-3.0
 74
0
  0
LTYPE
  5
51
100
AcDbSymbolTableRecord
100
AcDbLinetypeTableRecord
  2
ACAD_ISO05W100
 70
0
  3
ISO long-dash double-dot ____ .. ____ .. ____ . 
 72
65
 73
6
 40
33.0
 49
24.0
 74
0
 49
-3.0
 74
0
 49
0.0
 74
0
 49
-3.0
 74
0
 49
0.0
 74
0
 49
-3.0
 74
0
  0
LTYPE
  5
15
100
AcDbSymbolTableRecord
100
AcDbLinetypeTableRecord
  2
BYLAYER
 70
0
  3

 72
65
 73
0
 40
0.0
  0
LTYPE
  5
52
100
AcDbSymbolTableRecord
100
AcDbLinetypeTableRecord
  2
ACAD_ISO07W100
 70
0
  3
ISO dot . . . . . . . . . . . . . . . . . . . . 
 72
65
 73
2
 40
3.0
 49
0.0
 74
0
 49
-3.0
 74
0
  0
LTYPE
  5
53
100
AcDbSymbolTableRecord
100
AcDbLinetypeTableRecord
  2
DASHDOTX2
 70
0
  3
Dash dot (2x) ____  .  ____  .  ____  .  ___
 72
65
 73
4
 40
50.7999999999999972
 49
25.3999999999999986
 74
0
 49
-12.6999999999999993
 74
0
 49
0.0
 74
0
 49
-12.6999999999999993
 74
0
  0
LTYPE
  5
54
100
AcDbSymbolTableRecord
100
AcDbLinetypeTableRecord
  2
ACAD_ISO12W100
 70
0
  3
ISO dash double-dot __ . . __ . . __ . . __ . . 
 72
65
 73
6
 40
21.0
 49
12.0
 74
0
 49
-3.0
 74
0
 49
0.0
 74
0
 49
-3.0
 74
0
 49
0.0
 74
0
 49
-3.0
 74
0
  0
LTYPE
  5
55
100
AcDbSymbolTableRecord
100
AcDbLinetypeTableRecord
  2
DASHEDX2
 70
0
  3
Dashed (2x) ____  ____  ____  ____  ____  ___
 72
65
 73
2
 40
38.0999999999999943
 49
25.3999999999999986
 74
0
 49
-12.6999999999999993
 74
0
  0
LTYPE
  5
14
100
AcDbSymbolTableRecord
100
AcDbLinetypeTableRecord
  2
BYBLOCK
 70
0
  3

 72
65
 73
0
 40
0.0
  0
LTYPE
  5
56
100
AcDbSymbolTableRecord
100
AcDbLinetypeTableRecord
  2
DOT2
 70
0
  3
Dot (.5x) ........................................
 72
65
 73
2
 40
3.1749999999999998
 49
0.0
 74
0
 49
-3.1749999999999998
 74
0
  0
ENDTAB
  0
TABLE
  2
LAYER
  5
2
100
AcDbSymbolTable
 70
1
  0
LAYER
  5
10
100
AcDbSymbolTableRecord
100
AcDbLayerTableRecord
  2
0
 70
0
 62
7
420
16777215
  6
Continuous
370
25
390
F
  0
ENDTAB
  0
TABLE
  2
STYLE
  5
3
100
AcDbSymbolTable
 70
1
  0
STYLE
  5
57
100
AcDbSymbolTableRecord
100
AcDbTextStyleTableRecord
  2
Standard
 70
0
 40
0.0
 41
1.0
 50
0.0
 71
0
 42
2.5
  3

  4

1001
ACAD
1000
txt
1071
0
  0
ENDTAB
  0
TABLE
  2
VIEW
  5
6
100
AcDbSymbolTable
 70
0
  0
ENDTAB
  0
TABLE
  2
UCS
  5
7
100
AcDbSymbolTable
 70
0
  0
ENDTAB
  0
TABLE
  2
APPID
  5
9
100
AcDbSymbolTable
 70
1
  0
APPID
  5
12
100
AcDbSymbolTableRecord
100
AcDbRegAppTableRecord
  2
ACAD
 70
0
  0
APPID
  5
58
100
AcDbSymbolTableRecord
100
AcDbRegAppTableRecord
  2
QCAD
 70
0
  0
ENDTAB
  0
TABLE
  2
DIMSTYLE
  5
A
100
AcDbSymbolTable
 70
1
100
AcDbDimStyleTable
 71
0
  0
DIMSTYLE
105
27
100
AcDbSymbolTableRecord
100
AcDbDimStyleTableRecord
  2
Standard
 41
2.5
 42
0.625
 43
3.75
 44
1.25
 70
0
 73
0
 74
0
 77
1
 78
8
140
2.5
141
2.5
143
0.03937007874016
147
0.625
171
3
172
1
271
2
272
2
274
3
278
44
283
0
284
8
340
57
  0
ENDTAB
  0
TABLE
  2
BLOCK_RECORD
  5
1
100
AcDbSymbolTable
 70
1
  0
BLOCK_RECORD
  5
1F
100
AcDbSymbolTableRecord
100
AcDbBlockTableRecord
  2
*Model_Space
340
22
  0
BLOCK_RECORD
  5
1B
100
AcDbSymbolTableRecord
100
AcDbBlockTableRecord
  2
*Paper_Space
340
1E
  0
BLOCK_RECORD
  5
23
100
AcDbSymbolTableRecord
100
AcDbBlockTableRecord
  2
*Paper_Space0
340
26
  0
ENDTAB
  0
ENDSEC
  0
SECTION
  2
BLOCKS
  0
BLOCK
  5
20
100
AcDbEntity
  8
0
100
AcDbBlockBegin
  2
*Model_Space
 70
0
 10
0.0
 20
0.0
 30
0.0
  3
*Model_Space
  1

  0
ENDBLK
  5
21
100
AcDbEntity
  8
0
100
AcDbBlockEnd
  0
BLOCK
  5
1C
100
AcDbEntity
 67
1
  8
0
100
AcDbBlockBegin
  2
*Paper_Space
 70
0
 10
0.0
 20
0.0
 30
0.0
  3
*Paper_Space
  1

  0
ENDBLK
  5
1D
100
AcDbEntity
 67
1
  8
0
100
AcDbBlockEnd
  0
BLOCK
  5
24
100
AcDbEntity
  8
0
100
AcDbBlockBegin
  2
*Paper_Space0
 70
0
 10
0.0
 20
0.0
 30
0.0
  3
*Paper_Space0
  1

  0
ENDBLK
  5
25
100
AcDbEntity
  8
0
100
AcDbBlockEnd
  0
ENDSEC
  0
SECTION
  2
ENTITIES
  0
LINE
  5
59
100
AcDbEntity
  8
0
 62
256
370
-1
 48
1.0
  6
BYLAYER
100
AcDbLine
 10
10.0
 20
170.0
 30
0.0
 11
370.0
 21
170.0
 31
0.0
  0
LINE
  5
5A
100
AcDbEntity
  8
0
 62
256
370
-1
 48
1.0
  6
BYLAYER
100
AcDbLine
 10
10.0
 20
0.0
 30
0.0
 11
370.0
 21
0.0
 31
0.0
  0
LINE
  5
5B
100
AcDbEntity
  8
0
 62
256
370
-1
 48
1.0
  6
BYLAYER
100
AcDbLine
 10
0.0
 20
10.0
 30
0.0
 11
0.0
 21
160.0
 31
0.0
  0
LINE
  5
5C
100
AcDbEntity
  8
0
 62
256
370
-1
 48
1.0
  6
BYLAYER
100
AcDbLine
 10
380.0
 20
10.0
 30
0.0
 11
380.0
 21
160.0
 31
0.0
  0
LINE
  5
5D
100
AcDbEntity
  8
0
 62
256
370
-1
 48
1.0
  6
BYLAYER
100
AcDbLine
 10
216.9999999999999716
 20
6.0
 30
0.0
 11
163.0
 21
6.0
 31
0.0
  0
LINE
  5
5E
100
AcDbEntity
  8
0
 62
256
370
-1
 48
1.0
  6
BYLAYER
100
AcDbLine
 10
128.1999999999981981
 20
152.0
 30
0.0
 11
172.0
 21
152.0
 31
0.0
  0
ARC
  5
5F
100
AcDbEntity
  8
0
 62
256
370
-1
 48
1.0
  6
BYLAYER
100
AcDbCircle
 10
370.0
 20
160.0
 30
0.0
 40
10.0
100
AcDbArc
 50
0.0
 51
90.0
  0
ARC
  5
60
100
AcDbEntity
  8
0
 62
256
370
-1
 48
1.0
  6
BYLAYER
100
AcDbCircle
 10
10.0
 20
160.0
 30
0.0
 40
10.0
100
AcDbArc
 50
90.0
 51
180.0
  0
ARC
  5
61
100
AcDbEntity
  8
0
 62
256
370
-1
 48
1.0
  6
BYLAYER
100
AcDbCircle
 10
10.0
 20
10.0
 30
0.0
 40
10.0
100
AcDbArc
 50
180.0
 51
270.0
  0
ARC
  5
62
100
AcDbEntity
  8
0
 62
256
370
-1
 48
1.0
  6
BYLAYER
100
AcDbCircle
 10
370.0
 20
10.0
 30
0.0
 40
10.0
100
AcDbArc
 50
270.0
 51
0.0
  0
ARC
  5
63
100
AcDbEntity
  8
0
 62
256
370
-1
 48
1.0
  6
BYLAYER
100
AcDbCircle
 10
217.0628772074167614
 20
12.8422270139376735
 30
0.0
 40
6.8425159154708526
100
AcDbArc
 50
269.4734905464118242
 51
314.9545373234011549
  0
ARC
  5
64
100
AcDbEntity
  8
0
 62
256
370
-1
 48
1.0
  6
BYLAYER
100
AcDbCircle
 10
226.7665905922997922
 20
3.0730086108169701
 30
0.0
 40
6.9270490403897691
100
AcDbArc
 50
89.7662411823623643
 51
134.661786687448938
  0
ARC
  5
65
100
AcDbEntity
  8
0
 62
256
370
-1
 48
1.0
  6
BYLAYER
100
AcDbCircle
 10
153.2616707266740264
 20
3.0730662620238149
 30
0.0
 40
6.9270490403897691
100
AcDbArc
 50
45.338213312551062
 51
90.2337588176376357
  0
ARC
  5
66
100
AcDbEntity
  8
0
 62
256
370
-1
 48
1.0
  6
BYLAYER
100
AcDbCircle
 10
162.9888738569289615
 20
12.8999623100128957
 30
0.0
 40
6.8999712804227471
100
AcDbArc
 50
225.2458243314927131
 51
270.0923889811387539
  0
LINE
  5
67
100
AcDbEntity
  8
0
 62
256
370
-1
 48
1.0
  6
BYLAYER
100
AcDbLine
 10
370.0000000000000568
 20
164.7342722073549908
 30
0.0
 11
365.8999999999999773
 21
162.367136103677467
 31
0.0
  0
LINE
  5
68
100
AcDbEntity
  8
0
 62
256
370
-1
 48
1.0
  6
BYLAYER
100
AcDbLine
 10
370.0000000000000568
 20
89.7342722073549908
 30
0.0
 11
365.8999999999999773
 21
87.367136103677467
 31
0.0
  0
LINE
  5
69
100
AcDbEntity
  8
0
 62
256
370
-1
 48
1.0
  6
BYLAYER
100
AcDbLine
 10
370.0000000000000568
 20
14.7342722073549908
 30
0.0
 11
365.8999999999999773
 21
12.367136103677467
 31
0.0
  0
LINE
  5
6A
100
AcDbEntity
  8
0
 62
256
370
-1
 48
1.0
  6
BYLAYER
100
AcDbLine
 10
260.0000000000000568
 20
14.7342722073549908
 30
0.0
 11
255.8999999999999773
 21
12.367136103677467
 31
0.0
  0
LINE
  5
6B
100
AcDbEntity
  8
0
 62
256
370
-1
 48
1.0
  6
BYLAYER
100
AcDbLine
 10
120.0000000000000568
 20
14.7342722073549908
 30
0.0
 11
115.8999999999999773
 21
12.367136103677467
 31
0.0
  0
LINE
  5
6C
100
AcDbEntity
  8
0
 62
256
370
-1
 48
1.0
  6
BYLAYER
100
AcDbLine
 10
10.0000000000000568
 20
14.7342722073549908
 30
0.0
 11
5.8999999999999773
 21
12.367136103677467
 31
0.0
  0
LINE
  5
6D
100
AcDbEntity
  8
0
 62
256
370
-1
 48
1.0
  6
BYLAYER
100
AcDbLine
 10
10.0000000000000568
 20
89.7342722073549908
 30
0.0
 11
5.8999999999999773
 21
87.367136103677467
 31
0.0
  0
LINE
  5
6E
100
AcDbEntity
  8
0
 62
256
370
-1
 48
1.0
  6
BYLAYER
100
AcDbLine
 10
10.0000000000000568
 20
164.7342722073549908
 30
0.0
 11
5.8999999999999773
 21
162.367136103677467
 31
0.0
  0
LINE
  5
6F
100
AcDbEntity
  8
0
 62
256
370
-1
 48
1.0
  6
BYLAYER
100
AcDbLine
 10
120.0000000000000568
 20
164.7342722073549908
 30
0.0
 11
115.8999999999999773
 21
162.367136103677467
 31
0.0
  0
LINE
  5
70
100
AcDbEntity
  8
0
 62
256
370
-1
 48
1.0
  6
BYLAYER
100
AcDbLine
 10
260.0000000000000568
 20
164.7342722073549908
 30
0.0
 11
255.8999999999999773
 21
162.367136103677467
 31
0.0
  0
LINE
  5
71
100
AcDbEntity
  8
0
 62
256
370
-1
 48
1.0
  6
BYLAYER
100
AcDbLine
 10
374.0999999999999659
 20
157.6328638963224762
 30
0.0
 11
370.0
 21
155.2657277926450945
 31
0.0
  0
LINE
  5
72
100
AcDbEntity
  8
0
 62
256
370
-1
 48
1.0
  6
BYLAYER
100
AcDbLine
 10
374.0999999999999659
 20
82.6328638963224762
 30
0.0
 11
370.0
 21
80.2657277926450945
 31
0.0
  0
LINE
  5
73
100
AcDbEntity
  8
0
 62
256
370
-1
 48
1.0
  6
BYLAYER
100
AcDbLine
 10
374.0999999999999659
 20
7.6328638963224762
 30
0.0
 11
370.0
 21
5.2657277926450945
 31
0.0
  0
LINE
  5
74
100
AcDbEntity
  8
0
 62
256
370
-1
 48
1.0
  6
BYLAYER
100
AcDbLine
 10
264.0999999999999659
 20
7.6328638963224762
 30
0.0
 11
260.0
 21
5.2657277926450945
 31
0.0
  0
LINE
  5
75
100
AcDbEntity
  8
0
 62
256
370
-1
 48
1.0
  6
BYLAYER
100
AcDbLine
 10
124.0999999999999659
 20
7.6328638963224762
 30
0.0
 11
120.0
 21
5.2657277926450945
 31
0.0
  0
LINE
  5
76
100
AcDbEntity
  8
0
 62
256
370
-1
 48
1.0
  6
BYLAYER
100
AcDbLine
 10
14.0999999999999659
 20
7.6328638963224762
 30
0.0
 11
10.0
 21
5.2657277926450945
 31
0.0
  0
LINE
  5
77
100
AcDbEntity
  8
0
 62
256
370
-1
 48
1.0
  6
BYLAYER
100
AcDbLine
 10
14.0999999999999659
 20
82.6328638963224762
 30
0.0
 11
10.0
 21
80.2657277926450945
 31
0.0
  0
LINE
  5
78
100
AcDbEntity
  8
0
 62
256
370
-1
 48
1.0
  6
BYLAYER
100
AcDbLine
 10
14.0999999999999659
 20
157.6328638963224762
 30
0.0
 11
10.0
 21
155.2657277926450945
 31
0.0
  0
LINE
  5
79
100
AcDbEntity
  8
0
 62
256
370
-1
 48
1.0
  6
BYLAYER
100
AcDbLine
 10
124.0999999999999659
 20
157.6328638963224762
 30
0.0
 11
120.0
 21
155.2657277926450945
 31
0.0
  0
LINE
  5
7A
100
AcDbEntity
  8
0
 62
256
370
-1
 48
1.0
  6
BYLAYER
100
AcDbLine
 10
264.0999999999999659
 20
157.6328638963224762
 30
0.0
 11
260.0
 21
155.2657277926450945
 31
0.0
  0
LINE
  5
7B
100
AcDbEntity
  8
0
 62
256
370
-1
 48
1.0
  6
BYLAYER
100
AcDbLine
 10
370.0000000000000568
 20
164.7342722073549339
 30
0.0
 11
374.0999999999999659
 21
162.3671361036775238
 31
0.0
  0
LINE
  5
7C
100
AcDbEntity
  8
0
 62
256
370
-1
 48
1.0
  6
BYLAYER
100
AcDbLine
 10
370.0000000000000568
 20
89.7342722073549339
 30
0.0
 11
374.0999999999999659
 21
87.3671361036775238
 31
0.0
  0
LINE
  5
7D
100
AcDbEntity
  8
0
 62
256
370
-1
 48
1.0
  6
BYLAYER
100
AcDbLine
 10
370.0000000000000568
 20
14.7342722073549339
 30
0.0
 11
374.0999999999999659
 21
12.3671361036775238
 31
0.0
  0
LINE
  5
7E
100
AcDbEntity
  8
0
 62
256
370
-1
 48
1.0
  6
BYLAYER
100
AcDbLine
 10
260.0000000000000568
 20
14.7342722073549339
 30
0.0
 11
264.0999999999999659
 21
12.3671361036775238
 31
0.0
  0
LINE
  5
7F
100
AcDbEntity
  8
0
 62
256
370
-1
 48
1.0
  6
BYLAYER
100
AcDbLine
 10
120.0000000000000568
 20
14.7342722073549339
 30
0.0
 11
124.0999999999999659
 21
12.3671361036775238
 31
0.0
  0
LINE
  5
80
100
AcDbEntity
  8
0
 62
256
370
-1
 48
1.0
  6
BYLAYER
100
AcDbLine
 10
10.0000000000000568
 20
14.7342722073549339
 30
0.0
 11
14.0999999999999659
 21
12.3671361036775238
 31
0.0
  0
LINE
  5
81
100
AcDbEntity
  8
0
 62
256
370
-1
 48
1.0
  6
BYLAYER
100
AcDbLine
 10
10.0000000000000568
 20
89.7342722073549339
 30
0.0
 11
14.0999999999999659
 21
87.3671361036775238
 31
0.0
  0
LINE
  5
82
100
AcDbEntity
  8
0
 62
256
370
-1
 48
1.0
  6
BYLAYER
100
AcDbLine
 10
10.0000000000000568
 20
164.7342722073549339
 30
0.0
 11
14.0999999999999659
 21
162.3671361036775238
 31
0.0
  0
LINE
  5
83
100
AcDbEntity
  8
0
 62
256
370
-1
 48
1.0
  6
BYLAYER
100
AcDbLine
 10
120.0000000000000568
 20
164.7342722073549339
 30
0.0
 11
124.0999999999999659
 21
162.3671361036775238
 31
0.0
  0
LINE
  5
84
100
AcDbEntity
  8
0
 62
256
370
-1
 48
1.0
  6
BYLAYER
100
AcDbLine
 10
260.0000000000000568
 20
164.7342722073549339
 30
0.0
 11
264.0999999999999659
 21
162.3671361036775238
 31
0.0
  0
ARC
  5
85
100
AcDbEntity
  8
0
 62
256
370
-1
 48
1.0
  6
BYLAYER
100
AcDbCircle
 10
239.9143549523252261
 20
22.9929617334749707
 30
0.0
 40
16.0106946304367632
100
AcDbArc
 50
237.3649041915158477
 51
342.93543812835685
  0
ARC
  5
86
100
AcDbEntity
  8
0
 62
256
370
-1
 48
1.0
  6
BYLAYER
100
AcDbCircle
 10
370.0
 20
160.0
 30
0.0
 40
10.0
100
AcDbArc
 50
185.710593137499643
 51
264.289406862500357
  0
ARC
  5
87
100
AcDbEntity
  8
0
 62
256
370
-1
 48
1.0
  6
BYLAYER
100
AcDbCircle
 10
370.0
 20
10.0
 30
0.0
 40
10.0
100
AcDbArc
 50
95.7105931374996572
 51
174.2894068625004991
  0
ARC
  5
88
100
AcDbEntity
  8
0
 62
256
370
-1
 48
1.0
  6
BYLAYER
100
AcDbCircle
 10
10.0
 20
10.0
 30
0.0
 40
10.0
100
AcDbArc
 50
5.7105931374994405
 51
84.2894068625003712
  0
ARC
  5
89
100
AcDbEntity
  8
0
 62
256
370
-1
 48
1.0
  6
BYLAYER
100
AcDbCircle
 10
10.0
 20
160.0
 30
0.0
 40
10.0
100
AcDbArc
 50
275.710593137499643
 51
354.2894068625005843
  0
ARC
  5
8A
100
AcDbEntity
  8
0
 62
256
370
-1
 48
1.0
  6
BYLAYER
100
AcDbCircle
 10
369.9958347075014444
 20
84.9957270646272178
 30
0.0
 40
9.9953345003358578
100
AcDbArc
 50
186.5783388598545116
 51
264.3107276773746435
  0
ARC
  5
8B
100
AcDbEntity
  8
0
 62
256
370
-1
 48
1.0
  6
BYLAYER
100
AcDbCircle
 10
10.0
 20
84.9999999999999858
 30
0.0
 40
10.0
100
AcDbArc
 50
275.710593137499643
 51
84.2894068625003428
  0
ARC
  5
8C
100
AcDbEntity
  8
0
 62
256
370
-1
 48
1.0
  6
BYLAYER
100
AcDbCircle
 10
120.0
 20
10.0
 30
0.0
 40
10.0
100
AcDbArc
 50
5.7105931374996333
 51
174.289406862500357
  0
ARC
  5
8D
100
AcDbEntity
  8
0
 62
256
370
-1
 48
1.0
  6
BYLAYER
100
AcDbCircle
 10
259.9990264794500945
 20
9.9993518843335067
 30
0.0
 40
10.0010331940870802
100
AcDbArc
 50
5.7137327953022394
 51
114.6364776879383669
  0
ARC
  5
8E
100
AcDbEntity
  8
0
 62
256
370
-1
 48
1.0
  6
BYLAYER
100
AcDbCircle
 10
260.0
 20
160.0
 30
0.0
 40
10.0
100
AcDbArc
 50
185.710593137499643
 51
354.289406862500357
  0
ARC
  5
8F
100
AcDbEntity
  8
0
 62
256
370
-1
 48
1.0
  6
BYLAYER
100
AcDbCircle
 10
120.0000000000000284
 20
160.0
 30
0.0
 40
10.0000000000000249
100
AcDbArc
 50
185.7105931374995578
 51
297.3837702916237618
  0
LINE
  5
90
100
AcDbEntity
  8
0
 62
256
370
-1
 48
1.0
  6
BYLAYER
100
AcDbLine
 10
358.8999999999999204
 20
160.0000000000001137
 30
0.0
 11
303.0
 21
160.0000000000000284
 31
0.0
  0
LINE
  5
91
100
AcDbEntity
  8
0
 62
256
370
-1
 48
1.0
  6
BYLAYER
100
AcDbLine
 10
289.0
 20
160.0
 30
0.0
 11
271.0999999999999659
 21
159.9999999999999716
 31
0.0
  0
LINE
  5
92
100
AcDbEntity
  8
0
 62
256
370
-1
 48
1.0
  6
BYLAYER
100
AcDbLine
 10
21.1000000000000512
 20
160.0000000000001137
 30
0.0
 11
108.9000000000000199
 21
159.9999999999999716
 31
0.0
  0
LINE
  5
93
100
AcDbEntity
  8
0
 62
256
370
-1
 48
1.0
  6
BYLAYER
100
AcDbLine
 10
21.1000000000000227
 20
10.000000000001009
 30
0.0
 11
108.9000000000000057
 21
10.0000000000000426
 31
0.0
  0
LINE
  5
94
100
AcDbEntity
  8
0
 62
256
370
-1
 48
1.0
  6
BYLAYER
100
AcDbLine
 10
358.8999999999998636
 20
10.0000000000008384
 30
0.0
 11
271.0999999999999091
 21
9.9999999999999289
 31
0.0
  0
LINE
  5
95
100
AcDbEntity
  8
0
 62
256
370
-1
 48
1.0
  6
BYLAYER
100
AcDbLine
 10
369.9999999999991473
 20
21.1000000000001222
 30
0.0
 11
370.0
 21
73.8999999999999915
 31
0.0
  0
LINE
  5
96
100
AcDbEntity
  8
0
 62
256
370
-1
 48
1.0
  6
BYLAYER
100
AcDbLine
 10
369.9999999999991473
 20
148.8999999999998636
 30
0.0
 11
370.0
 21
96.1000000000000085
 31
0.0
  0
LINE
  5
97
100
AcDbEntity
  8
0
 62
256
370
-1
 48
1.0
  6
BYLAYER
100
AcDbLine
 10
10.0000000000008527
 20
148.8999999999998352
 30
0.0
 11
10.0
 21
96.0999999999999801
 31
0.0
  0
LINE
  5
98
100
AcDbEntity
  8
0
 62
256
370
-1
 48
1.0
  6
BYLAYER
100
AcDbLine
 10
10.0000000000008527
 20
21.1000000000000938
 30
0.0
 11
10.0
 21
73.8999999999999631
 31
0.0
  0
LINE
  5
99
100
AcDbEntity
  8
0
 62
256
370
-1
 48
1.0
  6
BYLAYER
100
AcDbLine
 10
248.8999999999999773
 20
159.9999999999999716
 30
0.0
 11
182.0
 21
160.0
 31
0.0
  0
ARC
  5
9A
100
AcDbEntity
  8
0
 62
256
370
-1
 48
1.0
  6
BYLAYER
100
AcDbCircle
 10
21.1117408050165807
 20
11.1752017487742989
 30
0.0
 40
1.1752603953271836
100
AcDbArc
 50
188.8180740205122277
 51
269.4276079004651478
  0
ARC
  5
9B
100
AcDbEntity
  8
0
 62
256
370
-1
 48
1.0
  6
BYLAYER
100
AcDbCircle
 10
358.8882591949833909
 20
11.1752017487743274
 30
0.0
 40
1.1752603953271836
100
AcDbArc
 50
270.5723920995348522
 51
351.1819259794878008
  0
ARC
  5
9C
100
AcDbEntity
  8
0
 62
256
370
-1
 48
1.0
  6
BYLAYER
100
AcDbCircle
 10
358.8882591949833909
 20
158.8247982512256726
 30
0.0
 40
1.1752603953271836
100
AcDbArc
 50
8.8180740205121904
 51
89.4276079004651336
  0
ARC
  5
9D
100
AcDbEntity
  8
0
 62
256
370
-1
 48
1.0
  6
BYLAYER
100
AcDbCircle
 10
21.1117408050165807
 20
158.8247982512257011
 30
0.0
 40
1.1752603953271836
100
AcDbArc
 50
90.5723920995348664
 51
171.1819259794878008
  0
ARC
  5
9E
100
AcDbEntity
  8
0
 62
256
370
-1
 48
1.0
  6
BYLAYER
100
AcDbCircle
 10
108.8882591949834335
 20
158.8247982512256726
 30
0.0
 40
1.1752603953271836
100
AcDbArc
 50
8.8180740205121904
 51
89.4276079004651336
  0
ARC
  5
9F
100
AcDbEntity
  8
0
 62
256
370
-1
 48
1.0
  6
BYLAYER
100
AcDbCircle
 10
248.8882591949833909
 20
158.8247982512256726
 30
0.0
 40
1.1752603953271836
100
AcDbArc
 50
8.8180740205121904
 51
89.4276079004651336
  0
ARC
  5
A0
100
AcDbEntity
  8
0
 62
256
370
-1
 48
1.0
  6
BYLAYER
100
AcDbCircle
 10
271.1117408050165523
 20
158.8247982512256726
 30
0.0
 40
1.1752603953271836
100
AcDbArc
 50
90.5723920995348664
 51
171.1819259794878008
  0
ARC
  5
A1
100
AcDbEntity
  8
0
 62
256
370
-1
 48
1.0
  6
BYLAYER
100
AcDbCircle
 10
271.1117408050165523
 20
11.1752017487743984
 30
0.0
 40
1.1752603953271836
100
AcDbArc
 50
188.8180740205121708
 51
269.4276079004651478
  0
ARC
  5
A2
100
AcDbEntity
  8
0
 62
256
370
-1
 48
1.0
  6
BYLAYER
100
AcDbCircle
 10
108.8882591949834193
 20
11.1752017487743416
 30
0.0
 40
1.1752603953271836
100
AcDbArc
 50
270.5723920995348522
 51
351.1819259794878008
  0
ARC
  5
A3
100
AcDbEntity
  8
0
 62
256
370
-1
 48
1.0
  6
BYLAYER
100
AcDbCircle
 10
131.1117408050165523
 20
11.1752017487746116
 30
0.0
 40
1.1752603953271341
100
AcDbArc
 50
188.8180740205099255
 51
269.4276079004665121
  0
ARC
  5
A4
100
AcDbEntity
  8
0
 62
256
370
-1
 48
1.0
  6
BYLAYER
100
AcDbCircle
 10
368.8247982512256726
 20
21.1117408050165807
 30
0.0
 40
1.1752603953271836
100
AcDbArc
 50
278.8180740205121992
 51
359.4276079004655458
  0
ARC
  5
A5
100
AcDbEntity
  8
0
 62
256
370
-1
 48
1.0
  6
BYLAYER
100
AcDbCircle
 10
368.8247982512256726
 20
73.8882591949834193
 30
0.0
 40
1.1752603953271836
100
AcDbArc
 50
0.5723920995344504
 51
81.1819259794878008
  0
ARC
  5
A6
100
AcDbEntity
  8
0
 62
256
370
-1
 48
1.0
  6
BYLAYER
100
AcDbCircle
 10
368.8247982512256726
 20
96.1117408050165807
 30
0.0
 40
1.1752603953271836
100
AcDbArc
 50
278.8180740205121992
 51
359.4276079004655458
  0
ARC
  5
A7
100
AcDbEntity
  8
0
 62
256
370
-1
 48
1.0
  6
BYLAYER
100
AcDbCircle
 10
368.8247982512256726
 20
148.8882591949834477
 30
0.0
 40
1.1752603953271836
100
AcDbArc
 50
0.5723920995344504
 51
81.1819259794878008
  0
ARC
  5
A8
100
AcDbEntity
  8
0
 62
256
370
-1
 48
1.0
  6
BYLAYER
100
AcDbCircle
 10
11.1752017487743274
 20
96.1117408050165523
 30
0.0
 40
1.1752603953271836
100
AcDbArc
 50
180.5723920995344258
 51
261.1819259794878008
  0
ARC
  5
A9
100
AcDbEntity
  8
0
 62
256
370
-1
 48
1.0
  6
BYLAYER
100
AcDbCircle
 10
11.1752017487743274
 20
73.8882591949833909
 30
0.0
 40
1.1752603953271836
100
AcDbArc
 50
98.8180740205121992
 51
179.4276079004655458
  0
ARC
  5
AA
100
AcDbEntity
  8
0
 62
256
370
-1
 48
1.0
  6
BYLAYER
100
AcDbCircle
 10
11.1752017487743274
 20
148.8882591949834193
 30
0.0
 40
1.1752603953271836
100
AcDbArc
 50
98.8180740205121992
 51
179.4276079004655458
  0
ARC
  5
AB
100
AcDbEntity
  8
0
 62
256
370
-1
 48
1.0
  6
BYLAYER
100
AcDbCircle
 10
11.1752017487743274
 20
21.1117408050165594
 30
0.0
 40
1.1752603953271836
100
AcDbArc
 50
180.5723920995344258
 51
261.1819259794878008
  0
ARC
  5
AC
100
AcDbEntity
  8
0
 62
256
370
-1
 48
1.0
  6
BYLAYER
100
AcDbCircle
 10
256.6647149500481078
 20
17.81853479651474
 30
0.0
 40
1.5209775841570994
100
AcDbArc
 50
123.2848373350716429
 51
161.758413478668075
  0
ARC
  5
AD
100
AcDbEntity
  8
0
 62
256
370
-1
 48
1.0
  6
BYLAYER
100
AcDbCircle
 10
229.5396039773118275
 20
6.6904577227602431
 30
0.0
 40
3.3134267713246581
100
AcDbArc
 50
58.3145471518433851
 51
87.2253474202808405
  0
ARC
  5
AE
100
AcDbEntity
  8
0
 62
256
370
-1
 48
1.0
  6
BYLAYER
100
AcDbCircle
 10
350.5306889119287348
 20
98.5504606002938459
 30
0.0
 40
15.9961684568892863
100
AcDbArc
 50
311.6008502243191174
 51
337.6356474088414075
  0
ARC
  5
AF
100
AcDbEntity
  8
0
 62
256
370
-1
 48
1.0
  6
BYLAYER
100
AcDbCircle
 10
369.2513045667984102
 20
90.6172222870902146
 30
0.0
 40
4.3401462933067245
100
AcDbArc
 50
93.253791792735484
 51
154.8170623181204633
  0
ARC
  5
B0
100
AcDbEntity
  8
0
 62
256
370
-1
 48
1.0
  6
BYLAYER
100
AcDbCircle
 10
363.1434727955527251
 20
84.2154022929713761
 30
0.0
 40
3.0987078746090075
100
AcDbArc
 50
130.0125479722560442
 51
186.7601025108668011
  0
LINE
  5
B1
100
AcDbEntity
  8
0
 62
256
370
-1
 48
1.0
  6
BYLAYER
100
AcDbLine
 10
365.8999999999999773
 20
157.6328638963225899
 30
0.0
 11
370.0
 21
155.2657277926450377
 31
0.0
  0
LINE
  5
B2
100
AcDbEntity
  8
0
 62
256
370
-1
 48
1.0
  6
BYLAYER
100
AcDbLine
 10
365.8999999999999773
 20
82.6328638963225899
 30
0.0
 11
370.0
 21
80.2657277926450377
 31
0.0
  0
LINE
  5
B3
100
AcDbEntity
  8
0
 62
256
370
-1
 48
1.0
  6
BYLAYER
100
AcDbLine
 10
365.8999999999999773
 20
7.6328638963225899
 30
0.0
 11
370.0
 21
5.2657277926450377
 31
0.0
  0
LINE
  5
B4
100
AcDbEntity
  8
0
 62
256
370
-1
 48
1.0
  6
BYLAYER
100
AcDbLine
 10
255.8999999999999773
 20
7.6328638963225899
 30
0.0
 11
260.0
 21
5.2657277926450377
 31
0.0
  0
LINE
  5
B5
100
AcDbEntity
  8
0
 62
256
370
-1
 48
1.0
  6
BYLAYER
100
AcDbLine
 10
115.8999999999999773
 20
7.6328638963225899
 30
0.0
 11
120.0
 21
5.2657277926450377
 31
0.0
  0
LINE
  5
B6
100
AcDbEntity
  8
0
 62
256
370
-1
 48
1.0
  6
BYLAYER
100
AcDbLine
 10
5.8999999999999773
 20
7.6328638963225899
 30
0.0
 11
10.0
 21
5.2657277926450377
 31
0.0
  0
LINE
  5
B7
100
AcDbEntity
  8
0
 62
256
370
-1
 48
1.0
  6
BYLAYER
100
AcDbLine
 10
5.8999999999999773
 20
82.6328638963225899
 30
0.0
 11
10.0
 21
80.2657277926450377
 31
0.0
  0
LINE
  5
B8
100
AcDbEntity
  8
0
 62
256
370
-1
 48
1.0
  6
BYLAYER
100
AcDbLine
 10
5.8999999999999773
 20
157.6328638963225899
 30
0.0
 11
10.0
 21
155.2657277926450377
 31
0.0
  0
LINE
  5
B9
100
AcDbEntity
  8
0
 62
256
370
-1
 48
1.0
  6
BYLAYER
100
AcDbLine
 10
115.8999999999999773
 20
157.6328638963225899
 30
0.0
 11
120.0
 21
155.2657277926450377
 31
0.0
  0
LINE
  5
BA
100
AcDbEntity
  8
0
 62
256
370
-1
 48
1.0
  6
BYLAYER
100
AcDbLine
 10
255.8999999999999773
 20
157.6328638963225899
 30
0.0
 11
260.0
 21
155.2657277926450377
 31
0.0
  0
ARC
  5
BB
100
AcDbEntity
  8
0
 62
256
370
-1
 48
1.0
  6
BYLAYER
100
AcDbCircle
 10
295.7835477322099109
 20
144.8964706036631469
 30
0.0
 40
15.9946101191440988
100
AcDbArc
 50
76.3440285910625533
 51
103.4784556830576179
  0
ARC
  5
BC
100
AcDbEntity
  8
0
 62
256
370
-1
 48
1.0
  6
BYLAYER
100
AcDbCircle
 10
288.304877807984326
 20
175.3003476374622096
 30
0.0
 40
15.3161298208467258
100
AcDbArc
 50
272.6012611398230661
 51
284.1748843760662453
  0
ARC
  5
BD
100
AcDbEntity
  8
0
 62
256
370
-1
 48
1.0
  6
BYLAYER
100
AcDbCircle
 10
303.4908796681664285
 20
177.5491384733577718
 30
0.0
 40
17.5560025064279408
100
AcDbArc
 50
257.0606201266477342
 51
268.3977560226558126
  0
ARC
  5
BE
100
AcDbEntity
  8
0
 62
256
370
-1
 48
1.0
  6
BYLAYER
100
AcDbCircle
 10
128.3215690027106746
 20
143.6922657035301825
 30
0.0
 40
8.3086237225644517
100
AcDbArc
 50
90.838362593283847
 51
116.6140711138071566
  0
ARC
  5
BF
100
AcDbEntity
  8
0
 62
256
370
-1
 48
1.0
  6
BYLAYER
100
AcDbCircle
 10
171.928571428571388
 20
157.2142857142857508
 30
0.0
 40
5.2147749281269338
100
AcDbArc
 50
270.7848246029923303
 51
346.5347919051877739
  0
ARC
  5
C0
100
AcDbEntity
  8
0
 62
256
370
-1
 48
1.0
  6
BYLAYER
100
AcDbCircle
 10
182.0714285714286689
 20
154.7857142857141639
 30
0.0
 40
5.2147749281269338
100
AcDbArc
 50
90.7848246029923303
 51
166.5347919051877454
  0
LINE
  5
C1
100
AcDbEntity
  8
0
 62
256
370
-1
 48
1.0
  6
BYLAYER
100
AcDbLine
 10
229.6999999999999886
 20
9.9999999999999147
 30
0.0
 11
226.7948519112834731
 21
9.9999999999998721
 31
0.0
  0
LINE
  5
C2
100
AcDbEntity
  8
0
 62
256
370
-1
 48
1.0
  6
BYLAYER
100
AcDbLine
 10
131.0999999999999943
 20
10.0000000000003553
 30
0.0
 11
153.2334999999999923
 21
10.0
 31
0.0
  0
LINE
  5
C3
100
AcDbEntity
  8
0
 62
256
370
-1
 48
1.0
  6
BYLAYER
100
AcDbLine
 10
365.8999999999999773
 20
162.367136103677467
 30
0.0
 11
365.8999999999999773
 21
157.6328638963225899
 31
0.0
  0
LINE
  5
C4
100
AcDbEntity
  8
0
 62
256
370
-1
 48
1.0
  6
BYLAYER
100
AcDbLine
 10
365.8999999999999773
 20
87.367136103677467
 30
0.0
 11
365.8999999999999773
 21
82.6328638963225899
 31
0.0
  0
LINE
  5
C5
100
AcDbEntity
  8
0
 62
256
370
-1
 48
1.0
  6
BYLAYER
100
AcDbLine
 10
365.8999999999999773
 20
12.367136103677467
 30
0.0
 11
365.8999999999999773
 21
7.6328638963225899
 31
0.0
  0
LINE
  5
C6
100
AcDbEntity
  8
0
 62
256
370
-1
 48
1.0
  6
BYLAYER
100
AcDbLine
 10
255.8999999999999773
 20
12.367136103677467
 30
0.0
 11
255.8999999999999773
 21
7.6328638963225899
 31
0.0
  0
LINE
  5
C7
100
AcDbEntity
  8
0
 62
256
370
-1
 48
1.0
  6
BYLAYER
100
AcDbLine
 10
115.8999999999999773
 20
12.367136103677467
 30
0.0
 11
115.8999999999999773
 21
7.6328638963225899
 31
0.0
  0
LINE
  5
C8
100
AcDbEntity
  8
0
 62
256
370
-1
 48
1.0
  6
BYLAYER
100
AcDbLine
 10
5.8999999999999773
 20
12.367136103677467
 30
0.0
 11
5.8999999999999773
 21
7.6328638963225899
 31
0.0
  0
LINE
  5
C9
100
AcDbEntity
  8
0
 62
256
370
-1
 48
1.0
  6
BYLAYER
100
AcDbLine
 10
5.8999999999999773
 20
87.367136103677467
 30
0.0
 11
5.8999999999999773
 21
82.6328638963225899
 31
0.0
  0
LINE
  5
CA
100
AcDbEntity
  8
0
 62
256
370
-1
 48
1.0
  6
BYLAYER
100
AcDbLine
 10
5.8999999999999773
 20
162.367136103677467
 30
0.0
 11
5.8999999999999773
 21
157.6328638963225899
 31
0.0
  0
LINE
  5
CB
100
AcDbEntity
  8
0
 62
256
370
-1
 48
1.0
  6
BYLAYER
100
AcDbLine
 10
115.8999999999999773
 20
162.367136103677467
 30
0.0
 11
115.8999999999999773
 21
157.6328638963225899
 31
0.0
  0
LINE
  5
CC
100
AcDbEntity
  8
0
 62
256
370
-1
 48
1.0
  6
BYLAYER
100
AcDbLine
 10
255.8999999999999773
 20
162.367136103677467
 30
0.0
 11
255.8999999999999773
 21
157.6328638963225899
 31
0.0
  0
LINE
  5
CD
100
AcDbEntity
  8
0
 62
256
370
-1
 48
1.0
  6
BYLAYER
100
AcDbLine
 10
374.1000000000000227
 20
162.3671361036775806
 30
0.0
 11
374.0999999999999659
 21
157.632863896322533
 31
0.0
  0
LINE
  5
CE
100
AcDbEntity
  8
0
 62
256
370
-1
 48
1.0
  6
BYLAYER
100
AcDbLine
 10
374.1000000000000227
 20
87.3671361036775806
 30
0.0
 11
374.0999999999999659
 21
82.632863896322533
 31
0.0
  0
LINE
  5
CF
100
AcDbEntity
  8
0
 62
256
370
-1
 48
1.0
  6
BYLAYER
100
AcDbLine
 10
374.1000000000000227
 20
12.3671361036775806
 30
0.0
 11
374.0999999999999659
 21
7.632863896322533
 31
0.0
  0
LINE
  5
D0
100
AcDbEntity
  8
0
 62
256
370
-1
 48
1.0
  6
BYLAYER
100
AcDbLine
 10
264.1000000000000227
 20
12.3671361036775806
 30
0.0
 11
264.0999999999999659
 21
7.632863896322533
 31
0.0
  0
LINE
  5
D1
100
AcDbEntity
  8
0
 62
256
370
-1
 48
1.0
  6
BYLAYER
100
AcDbLine
 10
124.1000000000000227
 20
12.3671361036775806
 30
0.0
 11
124.0999999999999659
 21
7.632863896322533
 31
0.0
  0
LINE
  5
D2
100
AcDbEntity
  8
0
 62
256
370
-1
 48
1.0
  6
BYLAYER
100
AcDbLine
 10
14.1000000000000227
 20
12.3671361036775806
 30
0.0
 11
14.0999999999999659
 21
7.632863896322533
 31
0.0
  0
LINE
  5
D3
100
AcDbEntity
  8
0
 62
256
370
-1
 48
1.0
  6
BYLAYER
100
AcDbLine
 10
14.1000000000000227
 20
87.3671361036775806
 30
0.0
 11
14.0999999999999659
 21
82.632863896322533
 31
0.0
  0
LINE
  5
D4
100
AcDbEntity
  8
0
 62
256
370
-1
 48
1.0
  6
BYLAYER
100
AcDbLine
 10
14.1000000000000227
 20
162.3671361036775806
 30
0.0
 11
14.0999999999999659
 21
157.632863896322533
 31
0.0
  0
LINE
  5
D5
100
AcDbEntity
  8
0
 62
256
370
-1
 48
1.0
  6
BYLAYER
100
AcDbLine
 10
124.1000000000000227
 20
162.3671361036775806
 30
0.0
 11
124.0999999999999659
 21
157.632863896322533
 31
0.0
  0
LINE
  5
D6
100
AcDbEntity
  8
0
 62
256
370
-1
 48
1.0
  6
BYLAYER
100
AcDbLine
 10
264.1000000000000227
 20
162.3671361036775806
 30
0.0
 11
264.0999999999999659
 21
157.632863896322533
 31
0.0
  0
ENDSEC
  0
SECTION
  2
OBJECTS
  0
DICTIONARY
  5
C
100
AcDbDictionary
280
0
281
1
  3
ACAD_GROUP
350
D
  3
ACAD_LAYOUT
350
1A
  3
ACAD_MLINESTYLE
350
17
  3
ACAD_PLOTSETTINGS
350
19
  3
ACAD_PLOTSTYLENAME
350
E
  3
AcDbVariableDictionary
350
D7
  3
QCAD_OBJECTS
350
D8
  0
DICTIONARY
  5
D
100
AcDbDictionary
280
0
281
1
  0
ACDBDICTIONARYWDFLT
  5
E
100
AcDbDictionary
281
1
  3
Normal
350
F
100
AcDbDictionaryWithDefault
340
F
  0
ACDBPLACEHOLDER
  5
F
  0
DICTIONARY
  5
17
100
AcDbDictionary
280
0
281
1
  3
Standard
350
18
  0
MLINESTYLE
  5
18
100
AcDbMlineStyle
  2
STANDARD
 70
0
  3

 62
256
 51
90.0
 52
90.0
 71
2
 49
0.5
 62
256
  6
BYLAYER
 49
-0.5
 62
256
  6
BYLAYER
  0
DICTIONARY
  5
19
100
AcDbDictionary
280
0
281
1
  0
DICTIONARY
  5
1A
100
AcDbDictionary
281
1
  3
Layout1
350
1E
  3
Layout2
350
26
  3
Model
350
22
  0
LAYOUT
  5
1E
100
AcDbPlotSettings
  1

  2
none_device
  4

  6

 40
0.0
 41
0.0
 42
0.0
 43
0.0
 44
0.0
 45
0.0
 46
0.0
 47
0.0
 48
0.0
 49
0.0
140
0.0
141
0.0
142
1.0
143
1.0
 70
688
 72
0
 73
0
 74
5
  7

 75
16
147
1.0
148
0.0
149
0.0
100
AcDbLayout
  1
Layout1
 70
1
 71
1
 10
0.0
 20
0.0
 11
420.0
 21
297.0
 12
0.0
 22
0.0
 32
0.0
 14
100000000000000000000.0
 24
100000000000000000000.0
 34
100000000000000000000.0
 15
-100000000000000000000.0
 25
-100000000000000000000.0
 35
-100000000000000000000.0
146
0.0
 13
0.0
 23
0.0
 33
0.0
 16
1.0
 26
0.0
 36
0.0
 17
0.0
 27
1.0
 37
0.0
 76
0
330
1B
  0
LAYOUT
  5
22
100
AcDbPlotSettings
  1

  2
none_device
  4

  6

 40
0.0
 41
0.0
 42
0.0
 43
0.0
 44
0.0
 45
0.0
 46
0.0
 47
0.0
 48
0.0
 49
0.0
140
0.0
141
0.0
142
1.0
143
1.0
 70
1712
 72
0
 73
0
 74
0
  7

 75
0
147
1.0
148
0.0
149
0.0
100
AcDbLayout
  1
Model
 70
1
 71
0
 10
0.0
 20
0.0
 11
12.0
 21
9.0
 12
0.0
 22
0.0
 32
0.0
 14
0.0
 24
0.0
 34
0.0
 15
0.0
 25
0.0
 35
0.0
146
0.0
 13
0.0
 23
0.0
 33
0.0
 16
1.0
 26
0.0
 36
0.0
 17
0.0
 27
1.0
 37
0.0
 76
0
330
1F
  0
LAYOUT
  5
26
100
AcDbPlotSettings
  1

  2
none_device
  4

  6

 40
0.0
 41
0.0
 42
0.0
 43
0.0
 44
0.0
 45
0.0
 46
0.0
 47
0.0
 48
0.0
 49
0.0
140
0.0
141
0.0
142
1.0
143
1.0
 70
688
 72
0
 73
0
 74
5
  7

 75
16
147
1.0
148
0.0
149
0.0
100
AcDbLayout
  1
Layout2
 70
1
 71
2
 10
0.0
 20
0.0
 11
12.0
 21
9.0
 12
0.0
 22
0.0
 32
0.0
 14
0.0
 24
0.0
 34
0.0
 15
0.0
 25
0.0
 35
0.0
146
0.0
 13
0.0
 23
0.0
 33
0.0
 16
1.0
 26
0.0
 36
0.0
 17
0.0
 27
1.0
 37
0.0
 76
0
330
23
  0
DICTIONARY
  5
D7
100
AcDbDictionary
281
1
  3
DIMASSOC
350
DA
  3
HIDETEXT
350
D9
  0
DICTIONARYVAR
  5
D9
100
DictionaryVariables
280
0
  1
2
  0
DICTIONARYVAR
  5
DA
100
DictionaryVariables
280
0
  1
1
  0
DICTIONARY
  5
D8
100
AcDbDictionary
281
1
  3
ColorSettings/BackgroundColor
350
DB
  3
ColorSettings/ColorMode
350
DC
  3
Grid/DisplayGrid00
350
DD
  3
Grid/DisplayGrid01
350
DE
  3
Grid/DisplayGrid02
350
DF
  3
Grid/DisplayGrid03
350
E0
  3
Grid/GridSpacingX00
350
E1
  3
Grid/GridSpacingX01
350
E2
  3
Grid/GridSpacingX02
350
E3
  3
Grid/GridSpacingX03
350
E4
  3
Grid/GridSpacingY00
350
E5
  3
Grid/GridSpacingY01
350
E6
  3
Grid/GridSpacingY02
350
E7
  3
Grid/GridSpacingY03
350
E8
  3
Grid/IsometricGrid00
350
E9
  3
Grid/IsometricGrid01
350
EA
  3
Grid/IsometricGrid02
350
EB
  3
Grid/IsometricGrid03
350
EC
  3
Grid/IsometricProjection00
350
ED
  3
Grid/IsometricProjection01
350
EE
  3
Grid/IsometricProjection02
350
EF
  3
Grid/IsometricProjection03
350
F0
  3
Grid/MetaGridSpacingX00
350
F1
  3
Grid/MetaGridSpacingX01
350
F2
  3
Grid/MetaGridSpacingX02
350
F3
  3
Grid/MetaGridSpacingX03
350
F4
  3
Grid/MetaGridSpacingY00
350
F5
  3
Grid/MetaGridSpacingY01
350
F6
  3
Grid/MetaGridSpacingY02
350
F7
  3
Grid/MetaGridSpacingY03
350
F8
  3
MultiPageSettings/Columns
350
F9
  3
MultiPageSettings/GlueMarginsBottom
350
FA
  3
MultiPageSettings/GlueMarginsLeft
350
FB
  3
MultiPageSettings/GlueMarginsRight
350
FC
  3
MultiPageSettings/GlueMarginsTop
350
FD
  3
MultiPageSettings/PrintCropMarks
350
FE
  3
MultiPageSettings/Rows
350
FF
  3
PageSettings/OffsetX
350
100
  3
PageSettings/OffsetY
350
101
  3
PageSettings/PageOrientation
350
102
  3
PageSettings/PaperHeight
350
103
  3
PageSettings/PaperWidth
350
104
  3
PageSettings/Scale
350
105
  3
PageSettings/ShowPaperBorders
350
106
  3
PageTagSettings/EnablePageTags
350
107
  3
PageTagSettings/TagAlignment
350
108
  3
PageTagSettings/TagFont
350
109
  3
PageTagSettings/TagPosition
350
10A
  3
QCADVersion
350
10B
  3
UnitSettings/PaperUnit
350
10C
  3
ViewportCenter
350
10D
  3
ViewportHeight
350
10E
  3
ViewportWidth
350
10F
  0
XRECORD
  5
DB
330
D8
100
AcDbXrecord
280
1
1000
White
  0
XRECORD
  5
DC
330
D8
100
AcDbXrecord
280
1
1000
FullColor
  0
XRECORD
  5
DD
330
D8
100
AcDbXrecord
280
1
290
1
  0
XRECORD
  5
DE
330
D8
100
AcDbXrecord
280
1
290
1
  0
XRECORD
  5
DF
330
D8
100
AcDbXrecord
280
1
290
1
  0
XRECORD
  5
E0
330
D8
100
AcDbXrecord
280
1
290
1
  0
XRECORD
  5
E1
330
D8
100
AcDbXrecord
280
1
1000
auto
  0
XRECORD
  5
E2
330
D8
100
AcDbXrecord
280
1
1000
auto
  0
XRECORD
  5
E3
330
D8
100
AcDbXrecord
280
1
1000
auto
  0
XRECORD
  5
E4
330
D8
100
AcDbXrecord
280
1
1000
auto
  0
XRECORD
  5
E5
330
D8
100
AcDbXrecord
280
1
1000
auto
  0
XRECORD
  5
E6
330
D8
100
AcDbXrecord
280
1
1000
auto
  0
XRECORD
  5
E7
330
D8
100
AcDbXrecord
280
1
1000
auto
  0
XRECORD
  5
E8
330
D8
100
AcDbXrecord
280
1
1000
auto
  0
XRECORD
  5
E9
330
D8
100
AcDbXrecord
280
1
290
0
  0
XRECORD
  5
EA
330
D8
100
AcDbXrecord
280
1
290
0
  0
XRECORD
  5
EB
330
D8
100
AcDbXrecord
280
1
290
0
  0
XRECORD
  5
EC
330
D8
100
AcDbXrecord
280
1
290
0
  0
XRECORD
  5
ED
330
D8
100
AcDbXrecord
280
1
 90
65537
  0
XRECORD
  5
EE
330
D8
100
AcDbXrecord
280
1
 90
65537
  0
XRECORD
  5
EF
330
D8
100
AcDbXrecord
280
1
 90
65537
  0
XRECORD
  5
F0
330
D8
100
AcDbXrecord
280
1
 90
65537
  0
XRECORD
  5
F1
330
D8
100
AcDbXrecord
280
1
1000
auto
  0
XRECORD
  5
F2
330
D8
100
AcDbXrecord
280
1
1000
auto
  0
XRECORD
  5
F3
330
D8
100
AcDbXrecord
280
1
1000
auto
  0
XRECORD
  5
F4
330
D8
100
AcDbXrecord
280
1
1000
auto
  0
XRECORD
  5
F5
330
D8
100
AcDbXrecord
280
1
1000
auto
  0
XRECORD
  5
F6
330
D8
100
AcDbXrecord
280
1
1000
auto
  0
XRECORD
  5
F7
330
D8
100
AcDbXrecord
280
1
1000
auto
  0
XRECORD
  5
F8
330
D8
100
AcDbXrecord
280
1
1000
auto
  0
XRECORD
  5
F9
330
D8
100
AcDbXrecord
280
1
 90
1
  0
XRECORD
  5
FA
330
D8
100
AcDbXrecord
280
1
 40
10.0
  0
XRECORD
  5
FB
330
D8
100
AcDbXrecord
280
1
 40
10.0
  0
XRECORD
  5
FC
330
D8
100
AcDbXrecord
280
1
 40
10.0
  0
XRECORD
  5
FD
330
D8
100
AcDbXrecord
280
1
 40
10.0
  0
XRECORD
  5
FE
330
D8
100
AcDbXrecord
280
1
290
0
  0
XRECORD
  5
FF
330
D8
100
AcDbXrecord
280
1
 90
1
  0
XRECORD
  5
100
330
D8
100
AcDbXrecord
280
1
 40
0.0
  0
XRECORD
  5
101
330
D8
100
AcDbXrecord
280
1
 40
0.0
  0
XRECORD
  5
102
330
D8
100
AcDbXrecord
280
1
1000
Portrait
  0
XRECORD
  5
103
330
D8
100
AcDbXrecord
280
1
 40
279.3999999999999773
  0
XRECORD
  5
104
330
D8
100
AcDbXrecord
280
1
 40
215.9000000000000057
  0
XRECORD
  5
105
330
D8
100
AcDbXrecord
280
1
1000
1:1
  0
XRECORD
  5
106
330
D8
100
AcDbXrecord
280
1
290
1
  0
XRECORD
  5
107
330
D8
100
AcDbXrecord
280
1
290
0
  0
XRECORD
  5
108
330
D8
100
AcDbXrecord
280
1
1000
Inside
  0
XRECORD
  5
109
330
D8
100
AcDbXrecord
280
1
1000
Arial,10,-1,5,50,0,0,0,0,0
  0
XRECORD
  5
10A
330
D8
100
AcDbXrecord
280
1
1000
TopLeft
  0
XRECORD
  5
10B
330
D8
100
AcDbXrecord
280
1
1000
3.27.6
  0
XRECORD
  5
10C
330
D8
100
AcDbXrecord
280
1
 90
4
  0
XRECORD
  5
10E
330
D8
100
AcDbXrecord
280
1
 40
111.3000000000000114
  0
XRECORD
  5
10F
330
D8
100
AcDbXrecord
280
1
 40
170.4000000000000057
  0
ENDSEC
  0
EOF
