999
dxflib 3.26.4.0
  0
SECTION
  2
HEADER
  9
$ACADVER
  1
AC1015
  9
$HANDSEED
  5
FFFF
  9
$DIMADEC
 70
0
  9
$DIMASZ
 40
2.5
  9
$DIMATFIT
 70
0
  9
$DIMAUNIT
 70
0
  9
$DIMAZIN
 70
2
  9
$DIMBLK
  1

  9
$DIMDEC
 70
4
  9
$DIMDLI
 40
5.0
  9
$DIMDSEP
 70
46
  9
$DIMEXE
 40
1.25
  9
$DIMEXO
 40
0.625
  9
$DIMGAP
 40
0.625
  9
$DIMLFAC
 40
1.0
  9
$DIMLUNIT
 70
2
  9
$DIMSCALE
 40
1.0
  9
$DIMTAD
 70
1
  9
$DIMTIH
 70
0
  9
$DIMTSZ
 40
0.0
  9
$DIMTXT
 40
2.5
  9
$DIMZIN
 70
8
  9
$DWGCODEPAGE
  3
ANSI_1252
  9
$INSUNITS
 70
4
  9
$LTSCALE
 40
1.0
  9
$MAXACTVP
 70
64
  9
$MEASUREMENT
 70
1
  9
$MIRRTEXT
 70
0
  9
$PDMODE
 70
0
  9
$PDSIZE
 40
0.0
  0
ENDSEC
  0
SECTION
  2
TABLES
  0
TABLE
  2
VPORT
  5
8
100
AcDbSymbolTable
 70
1
  0
VPORT
  5
30
100
AcDbSymbolTableRecord
100
AcDbViewportTableRecord
  2
*Active
 70
0
 10
0.0
 20
0.0
 11
1.0
 21
1.0
 12
286.3055555555554861
 22
148.5
 13
0.0
 23
0.0
 14
10.0
 24
10.0
 15
10.0
 25
10.0
 16
0.0
 26
0.0
 36
1.0
 17
0.0
 27
0.0
 37
0.0
 40
297.0
 41
1.92798353909465
 42
50.0
 43
0.0
 44
0.0
 50
0.0
 51
0.0
 71
0
 72
100
 73
1
 74
3
 75
1
 76
1
 77
0
 78
0
281
0
 65
1
110
0.0
120
0.0
130
0.0
111
1.0
121
0.0
131
0.0
112
0.0
122
1.0
132
0.0
 79
0
146
0.0
  0
ENDTAB
  0
TABLE
  2
LTYPE
  5
5
100
AcDbSymbolTable
 70
41
  0
LTYPE
  5
16
100
AcDbSymbolTableRecord
100
AcDbLinetypeTableRecord
  2
Continuous
 70
0
  3
Solid line
 72
65
 73
0
 40
0.0
  0
LTYPE
  5
31
100
AcDbSymbolTableRecord
100
AcDbLinetypeTableRecord
  2
DASHDOT2
 70
0
  3
Dash dot (.5x) _._._._._._._._._._._._._._._.
 72
65
 73
4
 40
12.6999999999999993
 49
6.3499999999999996
 74
0
 49
-3.1749999999999998
 74
0
 49
0.0
 74
0
 49
-3.1749999999999998
 74
0
  0
LTYPE
  5
32
100
AcDbSymbolTableRecord
100
AcDbLinetypeTableRecord
  2
DASHED2
 70
0
  3
Dashed (.5x) _ _ _ _ _ _ _ _ _ _ _ _ _ _ _ _ _ 
 72
65
 73
2
 40
9.5249999999999986
 49
6.3499999999999996
 74
0
 49
-3.1749999999999998
 74
0
  0
LTYPE
  5
33
100
AcDbSymbolTableRecord
100
AcDbLinetypeTableRecord
  2
HIDDEN
 70
0
  3
Hidden __ __ __ __ __ __ __ __ __ __ __ __ __ __
 72
65
 73
2
 40
9.5249999999999986
 49
6.3499999999999996
 74
0
 49
-3.1749999999999998
 74
0
  0
LTYPE
  5
34
100
AcDbSymbolTableRecord
100
AcDbLinetypeTableRecord
  2
HIDDENX2
 70
0
  3
Hidden (2x) ____ ____ ____ ____ ____ ____ ____ 
 72
65
 73
2
 40
19.0499999999999972
 49
12.6999999999999993
 74
0
 49
-6.3499999999999996
 74
0
  0
LTYPE
  5
35
100
AcDbSymbolTableRecord
100
AcDbLinetypeTableRecord
  2
ACAD_ISO11W100
 70
0
  3
ISO double-dash dot __ __ . __ __ . __ __ . __ _
 72
65
 73
6
 40
33.0
 49
12.0
 74
0
 49
-3.0
 74
0
 49
12.0
 74
0
 49
-3.0
 74
0
 49
0.0
 74
0
 49
-3.0
 74
0
  0
LTYPE
  5
36
100
AcDbSymbolTableRecord
100
AcDbLinetypeTableRecord
  2
ACAD_ISO06W100
 70
0
  3
ISO long-dash triple-dot ____ ... ____ ... ____
 72
65
 73
8
 40
36.0
 49
24.0
 74
0
 49
-3.0
 74
0
 49
0.0
 74
0
 49
-3.0
 74
0
 49
0.0
 74
0
 49
-3.0
 74
0
 49
0.0
 74
0
 49
-3.0
 74
0
  0
LTYPE
  5
37
100
AcDbSymbolTableRecord
100
AcDbLinetypeTableRecord
  2
ACAD_ISO02W100
 70
0
  3
ISO dash __ __ __ __ __ __ __ __ __ __ __ __ __
 72
65
 73
2
 40
15.0
 49
12.0
 74
0
 49
-3.0
 74
0
  0
LTYPE
  5
38
100
AcDbSymbolTableRecord
100
AcDbLinetypeTableRecord
  2
BORDERX2
 70
0
  3
Border (2x) ____  ____  .  ____  ____  .  ___
 72
65
 73
6
 40
88.8999999999999915
 49
25.3999999999999986
 74
0
 49
-12.6999999999999993
 74
0
 49
25.3999999999999986
 74
0
 49
-12.6999999999999993
 74
0
 49
0.0
 74
0
 49
-12.6999999999999993
 74
0
  0
LTYPE
  5
39
100
AcDbSymbolTableRecord
100
AcDbLinetypeTableRecord
  2
HIDDEN2
 70
0
  3
Hidden (.5x) _ _ _ _ _ _ _ _ _ _ _ _ _ _ _ _ _ 
 72
65
 73
2
 40
4.7624999999999993
 49
3.1749999999999998
 74
0
 49
-1.5874999999999999
 74
0
  0
LTYPE
  5
3A
100
AcDbSymbolTableRecord
100
AcDbLinetypeTableRecord
  2
ACAD_ISO15W100
 70
0
  3
ISO double-dash triple-dot __ __ . . . __ __ . .
 72
65
 73
10
 40
39.0
 49
12.0
 74
0
 49
-3.0
 74
0
 49
12.0
 74
0
 49
-3.0
 74
0
 49
0.0
 74
0
 49
-3.0
 74
0
 49
0.0
 74
0
 49
-3.0
 74
0
 49
0.0
 74
0
 49
-3.0
 74
0
  0
LTYPE
  5
3B
100
AcDbSymbolTableRecord
100
AcDbLinetypeTableRecord
  2
DIVIDEX2
 70
0
  3
Divide (2x) ________  .  .  ________  .  .  _
 72
65
 73
6
 40
63.5
 49
25.3999999999999986
 74
0
 49
-12.6999999999999993
 74
0
 49
0.0
 74
0
 49
-12.6999999999999993
 74
0
 49
0.0
 74
0
 49
-12.6999999999999993
 74
0
  0
LTYPE
  5
3C
100
AcDbSymbolTableRecord
100
AcDbLinetypeTableRecord
  2
ACAD_ISO14W100
 70
0
  3
ISO dash triple-dot __ . . . __ . . . __ . . . _
 72
65
 73
8
 40
24.0
 49
12.0
 74
0
 49
-3.0
 74
0
 49
0.0
 74
0
 49
-3.0
 74
0
 49
0.0
 74
0
 49
-3.0
 74
0
 49
0.0
 74
0
 49
-3.0
 74
0
  0
LTYPE
  5
3D
100
AcDbSymbolTableRecord
100
AcDbLinetypeTableRecord
  2
BORDER
 70
0
  3
Border __ __ . __ __ . __ __ . __ __ . __ __ .
 72
65
 73
6
 40
44.4499999999999957
 49
12.6999999999999993
 74
0
 49
-6.3499999999999996
 74
0
 49
12.6999999999999993
 74
0
 49
-6.3499999999999996
 74
0
 49
0.0
 74
0
 49
-6.3499999999999996
 74
0
  0
LTYPE
  5
3E
100
AcDbSymbolTableRecord
100
AcDbLinetypeTableRecord
  2
BORDER2
 70
0
  3
Border (.5x) __.__.__.__.__.__.__.__.__.__.__.
 72
65
 73
6
 40
22.2249999999999979
 49
6.3499999999999996
 74
0
 49
-3.1749999999999998
 74
0
 49
6.3499999999999996
 74
0
 49
-3.1749999999999998
 74
0
 49
0.0
 74
0
 49
-3.1749999999999998
 74
0
  0
LTYPE
  5
3F
100
AcDbSymbolTableRecord
100
AcDbLinetypeTableRecord
  2
CENTERX2
 70
0
  3
Center (2x) ________  __  ________  __  _____
 72
65
 73
4
 40
101.6000000000000085
 49
63.5
 74
0
 49
-12.6999999999999993
 74
0
 49
12.6999999999999993
 74
0
 49
-12.6999999999999993
 74
0
  0
LTYPE
  5
40
100
AcDbSymbolTableRecord
100
AcDbLinetypeTableRecord
  2
DOTX2
 70
0
  3
Dot (2x) .  .  .  .  .  .  .  .  .  .  .  .  .  .
 72
65
 73
2
 40
12.6999999999999993
 49
0.0
 74
0
 49
-12.6999999999999993
 74
0
  0
LTYPE
  5
41
100
AcDbSymbolTableRecord
100
AcDbLinetypeTableRecord
  2
PHANTOMX2
 70
0
  3
Phantom (2x) ____________    ____    ____   _
 72
65
 73
6
 40
127.0000000000000142
 49
63.5
 74
0
 49
-12.6999999999999993
 74
0
 49
12.6999999999999993
 74
0
 49
-12.6999999999999993
 74
0
 49
12.6999999999999993
 74
0
 49
-12.6999999999999993
 74
0
  0
LTYPE
  5
42
100
AcDbSymbolTableRecord
100
AcDbLinetypeTableRecord
  2
DOT
 70
0
  3
Dot . . . . . . . . . . . . . . . . . . . . . . . .
 72
65
 73
2
 40
6.3499999999999996
 49
0.0
 74
0
 49
-6.3499999999999996
 74
0
  0
LTYPE
  5
43
100
AcDbSymbolTableRecord
100
AcDbLinetypeTableRecord
  2
PHANTOM
 70
0
  3
Phantom ______  __  __  ______  __  __  ______ 
 72
65
 73
6
 40
63.5000000000000071
 49
31.75
 74
0
 49
-6.3499999999999996
 74
0
 49
6.3499999999999996
 74
0
 49
-6.3499999999999996
 74
0
 49
6.3499999999999996
 74
0
 49
-6.3499999999999996
 74
0
  0
LTYPE
  5
44
100
AcDbSymbolTableRecord
100
AcDbLinetypeTableRecord
  2
PHANTOM2
 70
0
  3
Phantom (.5x) ___ _ _ ___ _ _ ___ _ _ ___ _ _
 72
65
 73
6
 40
31.7500000000000036
 49
15.875
 74
0
 49
-3.1749999999999998
 74
0
 49
3.1749999999999998
 74
0
 49
-3.1749999999999998
 74
0
 49
3.1749999999999998
 74
0
 49
-3.1749999999999998
 74
0
  0
LTYPE
  5
45
100
AcDbSymbolTableRecord
100
AcDbLinetypeTableRecord
  2
ACAD_ISO08W100
 70
0
  3
ISO long-dash short-dash ____ __ ____ __ ____ _
 72
65
 73
4
 40
36.0
 49
24.0
 74
0
 49
-3.0
 74
0
 49
6.0
 74
0
 49
-3.0
 74
0
  0
LTYPE
  5
46
100
AcDbSymbolTableRecord
100
AcDbLinetypeTableRecord
  2
ACAD_ISO10W100
 70
0
  3
ISO dash dot __ . __ . __ . __ . __ . __ . __ . 
 72
65
 73
4
 40
18.0
 49
12.0
 74
0
 49
-3.0
 74
0
 49
0.0
 74
0
 49
-3.0
 74
0
  0
LTYPE
  5
47
100
AcDbSymbolTableRecord
100
AcDbLinetypeTableRecord
  2
ACAD_ISO09W100
 70
0
  3
ISO long-dash double-short-dash ____ __ __ ____
 72
65
 73
6
 40
45.0
 49
24.0
 74
0
 49
-3.0
 74
0
 49
6.0
 74
0
 49
-3.0
 74
0
 49
6.0
 74
0
 49
-3.0
 74
0
  0
LTYPE
  5
48
100
AcDbSymbolTableRecord
100
AcDbLinetypeTableRecord
  2
ACAD_ISO03W100
 70
0
  3
ISO dash space __    __    __    __    __    __
 72
65
 73
2
 40
30.0
 49
12.0
 74
0
 49
-18.0
 74
0
  0
LTYPE
  5
49
100
AcDbSymbolTableRecord
100
AcDbLinetypeTableRecord
  2
CENTER2
 70
0
  3
Center (.5x) ___ _ ___ _ ___ _ ___ _ ___ _ ___
 72
65
 73
4
 40
28.5750000000000028
 49
19.0500000000000007
 74
0
 49
-3.1749999999999998
 74
0
 49
3.1749999999999998
 74
0
 49
-3.1749999999999998
 74
0
  0
LTYPE
  5
4A
100
AcDbSymbolTableRecord
100
AcDbLinetypeTableRecord
  2
CENTER
 70
0
  3
Center ____ _ ____ _ ____ _ ____ _ ____ _ ____
 72
65
 73
4
 40
50.8000000000000043
 49
31.75
 74
0
 49
-6.3499999999999996
 74
0
 49
6.3499999999999996
 74
0
 49
-6.3499999999999996
 74
0
  0
LTYPE
  5
4B
100
AcDbSymbolTableRecord
100
AcDbLinetypeTableRecord
  2
DIVIDE
 70
0
  3
Divide ____ . . ____ . . ____ . . ____ . . ____
 72
65
 73
6
 40
31.75
 49
12.6999999999999993
 74
0
 49
-6.3499999999999996
 74
0
 49
0.0
 74
0
 49
-6.3499999999999996
 74
0
 49
0.0
 74
0
 49
-6.3499999999999996
 74
0
  0
LTYPE
  5
4C
100
AcDbSymbolTableRecord
100
AcDbLinetypeTableRecord
  2
DASHDOT
 70
0
  3
Dash dot __ . __ . __ . __ . __ . __ . __ . __
 72
65
 73
4
 40
25.3999999999999986
 49
12.6999999999999993
 74
0
 49
-6.3499999999999996
 74
0
 49
0.0
 74
0
 49
-6.3499999999999996
 74
0
  0
LTYPE
  5
4D
100
AcDbSymbolTableRecord
100
AcDbLinetypeTableRecord
  2
DASHED
 70
0
  3
Dashed __ __ __ __ __ __ __ __ __ __ __ __ __ _
 72
65
 73
2
 40
19.0499999999999972
 49
12.6999999999999993
 74
0
 49
-6.3499999999999996
 74
0
  0
LTYPE
  5
4E
100
AcDbSymbolTableRecord
100
AcDbLinetypeTableRecord
  2
DIVIDE2
 70
0
  3
Divide (.5x) __..__..__..__..__..__..__..__.._
 72
65
 73
6
 40
15.875
 49
6.3499999999999996
 74
0
 49
-3.1749999999999998
 74
0
 49
0.0
 74
0
 49
-3.1749999999999998
 74
0
 49
0.0
 74
0
 49
-3.1749999999999998
 74
0
  0
LTYPE
  5
4F
100
AcDbSymbolTableRecord
100
AcDbLinetypeTableRecord
  2
ACAD_ISO04W100
 70
0
  3
ISO long-dash dot ____ . ____ . ____ . ____ . _
 72
65
 73
4
 40
30.0
 49
24.0
 74
0
 49
-3.0
 74
0
 49
0.0
 74
0
 49
-3.0
 74
0
  0
LTYPE
  5
50
100
AcDbSymbolTableRecord
100
AcDbLinetypeTableRecord
  2
ACAD_ISO13W100
 70
0
  3
ISO double-dash double-dot __ __ . . __ __ . . _
 72
65
 73
8
 40
36.0
 49
12.0
 74
0
 49
-3.0
 74
0
 49
12.0
 74
0
 49
-3.0
 74
0
 49
0.0
 74
0
 49
-3.0
 74
0
 49
0.0
 74
0
 49
-3.0
 74
0
  0
LTYPE
  5
51
100
AcDbSymbolTableRecord
100
AcDbLinetypeTableRecord
  2
ACAD_ISO05W100
 70
0
  3
ISO long-dash double-dot ____ .. ____ .. ____ . 
 72
65
 73
6
 40
33.0
 49
24.0
 74
0
 49
-3.0
 74
0
 49
0.0
 74
0
 49
-3.0
 74
0
 49
0.0
 74
0
 49
-3.0
 74
0
  0
LTYPE
  5
15
100
AcDbSymbolTableRecord
100
AcDbLinetypeTableRecord
  2
BYLAYER
 70
0
  3

 72
65
 73
0
 40
0.0
  0
LTYPE
  5
52
100
AcDbSymbolTableRecord
100
AcDbLinetypeTableRecord
  2
ACAD_ISO07W100
 70
0
  3
ISO dot . . . . . . . . . . . . . . . . . . . . 
 72
65
 73
2
 40
3.0
 49
0.0
 74
0
 49
-3.0
 74
0
  0
LTYPE
  5
53
100
AcDbSymbolTableRecord
100
AcDbLinetypeTableRecord
  2
DASHDOTX2
 70
0
  3
Dash dot (2x) ____  .  ____  .  ____  .  ___
 72
65
 73
4
 40
50.7999999999999972
 49
25.3999999999999986
 74
0
 49
-12.6999999999999993
 74
0
 49
0.0
 74
0
 49
-12.6999999999999993
 74
0
  0
LTYPE
  5
54
100
AcDbSymbolTableRecord
100
AcDbLinetypeTableRecord
  2
ACAD_ISO12W100
 70
0
  3
ISO dash double-dot __ . . __ . . __ . . __ . . 
 72
65
 73
6
 40
21.0
 49
12.0
 74
0
 49
-3.0
 74
0
 49
0.0
 74
0
 49
-3.0
 74
0
 49
0.0
 74
0
 49
-3.0
 74
0
  0
LTYPE
  5
55
100
AcDbSymbolTableRecord
100
AcDbLinetypeTableRecord
  2
DASHEDX2
 70
0
  3
Dashed (2x) ____  ____  ____  ____  ____  ___
 72
65
 73
2
 40
38.0999999999999943
 49
25.3999999999999986
 74
0
 49
-12.6999999999999993
 74
0
  0
LTYPE
  5
14
100
AcDbSymbolTableRecord
100
AcDbLinetypeTableRecord
  2
BYBLOCK
 70
0
  3

 72
65
 73
0
 40
0.0
  0
LTYPE
  5
56
100
AcDbSymbolTableRecord
100
AcDbLinetypeTableRecord
  2
DOT2
 70
0
  3
Dot (.5x) ........................................
 72
65
 73
2
 40
3.1749999999999998
 49
0.0
 74
0
 49
-3.1749999999999998
 74
0
  0
ENDTAB
  0
TABLE
  2
LAYER
  5
2
100
AcDbSymbolTable
 70
1
  0
LAYER
  5
10
100
AcDbSymbolTableRecord
100
AcDbLayerTableRecord
  2
0
 70
0
 62
7
420
16777215
  6
Continuous
370
25
390
F
  0
ENDTAB
  0
TABLE
  2
STYLE
  5
3
100
AcDbSymbolTable
 70
1
  0
STYLE
  5
57
100
AcDbSymbolTableRecord
100
AcDbTextStyleTableRecord
  2
Standard
 70
0
 40
0.0
 41
1.0
 50
0.0
 71
0
 42
2.5
  3

  4

1001
ACAD
1000
txt
1071
0
  0
ENDTAB
  0
TABLE
  2
VIEW
  5
6
100
AcDbSymbolTable
 70
0
  0
ENDTAB
  0
TABLE
  2
UCS
  5
7
100
AcDbSymbolTable
 70
0
  0
ENDTAB
  0
TABLE
  2
APPID
  5
9
100
AcDbSymbolTable
 70
1
  0
APPID
  5
12
100
AcDbSymbolTableRecord
100
AcDbRegAppTableRecord
  2
ACAD
 70
0
  0
APPID
  5
58
100
AcDbSymbolTableRecord
100
AcDbRegAppTableRecord
  2
QCAD
 70
0
  0
ENDTAB
  0
TABLE
  2
DIMSTYLE
  5
A
100
AcDbSymbolTable
 70
1
100
AcDbDimStyleTable
 71
0
  0
DIMSTYLE
105
27
100
AcDbSymbolTableRecord
100
AcDbDimStyleTableRecord
  2
Standard
 41
2.5
 42
0.625
 43
3.75
 44
1.25
 70
0
 73
0
 74
0
 77
1
 78
8
140
2.5
141
2.5
143
0.03937007874016
147
0.625
171
3
172
1
271
2
272
2
274
3
278
44
283
0
284
8
340
57
  0
ENDTAB
  0
TABLE
  2
BLOCK_RECORD
  5
1
100
AcDbSymbolTable
 70
1
  0
BLOCK_RECORD
  5
1F
100
AcDbSymbolTableRecord
100
AcDbBlockTableRecord
  2
*Model_Space
340
22
  0
BLOCK_RECORD
  5
1B
100
AcDbSymbolTableRecord
100
AcDbBlockTableRecord
  2
*Paper_Space
340
1E
  0
BLOCK_RECORD
  5
23
100
AcDbSymbolTableRecord
100
AcDbBlockTableRecord
  2
*Paper_Space0
340
26
  0
ENDTAB
  0
ENDSEC
  0
SECTION
  2
BLOCKS
  0
BLOCK
  5
20
100
AcDbEntity
  8
0
100
AcDbBlockBegin
  2
*Model_Space
 70
0
 10
0.0
 20
0.0
 30
0.0
  3
*Model_Space
  1

  0
ENDBLK
  5
21
100
AcDbEntity
  8
0
100
AcDbBlockEnd
  0
BLOCK
  5
1C
100
AcDbEntity
 67
1
  8
0
100
AcDbBlockBegin
  2
*Paper_Space
 70
0
 10
0.0
 20
0.0
 30
0.0
  3
*Paper_Space
  1

  0
ENDBLK
  5
1D
100
AcDbEntity
 67
1
  8
0
100
AcDbBlockEnd
  0
BLOCK
  5
24
100
AcDbEntity
  8
0
100
AcDbBlockBegin
  2
*Paper_Space0
 70
0
 10
0.0
 20
0.0
 30
0.0
  3
*Paper_Space0
  1

  0
ENDBLK
  5
25
100
AcDbEntity
  8
0
100
AcDbBlockEnd
  0
ENDSEC
  0
SECTION
  2
ENTITIES
  0
LINE
  5
59
100
AcDbEntity
  8
0
 62
256
370
-1
 48
1.0
  6
BYLAYER
100
AcDbLine
 10
10.0
 20
170.0
 30
0.0
 11
370.0
 21
170.0
 31
0.0
  0
LINE
  5
5A
100
AcDbEntity
  8
0
 62
256
370
-1
 48
1.0
  6
BYLAYER
100
AcDbLine
 10
10.0
 20
0.0
 30
0.0
 11
370.0
 21
0.0
 31
0.0
  0
LINE
  5
5B
100
AcDbEntity
  8
0
 62
256
370
-1
 48
1.0
  6
BYLAYER
100
AcDbLine
 10
0.0
 20
10.0
 30
0.0
 11
0.0
 21
160.0
 31
0.0
  0
LINE
  5
5C
100
AcDbEntity
  8
0
 62
256
370
-1
 48
1.0
  6
BYLAYER
100
AcDbLine
 10
380.0
 20
10.0
 30
0.0
 11
380.0
 21
160.0
 31
0.0
  0
LINE
  5
5D
100
AcDbEntity
  8
0
 62
256
370
-1
 48
1.0
  6
BYLAYER
100
AcDbLine
 10
201.0
 20
90.0
 30
0.0
 11
217.0
 21
90.0
 31
0.0
  0
LINE
  5
5E
100
AcDbEntity
  8
0
 62
256
370
-1
 48
1.0
  6
BYLAYER
100
AcDbLine
 10
167.9999999999997726
 20
90.0000000000000568
 30
0.0
 11
179.0
 21
90.0
 31
0.0
  0
LINE
  5
5F
100
AcDbEntity
  8
0
 62
256
370
-1
 48
1.0
  6
BYLAYER
100
AcDbLine
 10
158.0
 20
46.9999999999999929
 30
0.0
 11
158.0
 21
63.0
 31
0.0
  0
LINE
  5
60
100
AcDbEntity
  8
0
 62
256
370
-1
 48
1.0
  6
BYLAYER
100
AcDbLine
 10
216.9999999999999716
 20
6.0
 30
0.0
 11
163.0
 21
6.0
 31
0.0
  0
ARC
  5
61
100
AcDbEntity
  8
0
 62
256
370
-1
 48
1.0
  6
BYLAYER
100
AcDbCircle
 10
370.0
 20
160.0
 30
0.0
 40
10.0
100
AcDbArc
 50
0.0
 51
90.0
  0
ARC
  5
62
100
AcDbEntity
  8
0
 62
256
370
-1
 48
1.0
  6
BYLAYER
100
AcDbCircle
 10
10.0
 20
160.0
 30
0.0
 40
10.0
100
AcDbArc
 50
90.0
 51
180.0
  0
ARC
  5
63
100
AcDbEntity
  8
0
 62
256
370
-1
 48
1.0
  6
BYLAYER
100
AcDbCircle
 10
10.0
 20
10.0
 30
0.0
 40
10.0
100
AcDbArc
 50
180.0
 51
270.0
  0
ARC
  5
64
100
AcDbEntity
  8
0
 62
256
370
-1
 48
1.0
  6
BYLAYER
100
AcDbCircle
 10
370.0
 20
10.0
 30
0.0
 40
10.0
100
AcDbArc
 50
270.0
 51
0.0
  0
ARC
  5
65
100
AcDbEntity
  8
0
 62
256
370
-1
 48
1.0
  6
BYLAYER
100
AcDbCircle
 10
309.9086041500655142
 20
32.3337550664707578
 30
0.0
 40
61.6844574616591999
100
AcDbArc
 50
58.3786123335187028
 51
107.8782737244350756
  0
ARC
  5
66
100
AcDbEntity
  8
0
 62
256
370
-1
 48
1.0
  6
BYLAYER
100
AcDbCircle
 10
294.62100410145257
 20
80.0415762989916857
 30
0.0
 40
11.5875801205964368
100
AcDbArc
 50
108.3565358382649038
 51
249.3003498930841033
  0
ARC
  5
67
100
AcDbEntity
  8
0
 62
256
370
-1
 48
1.0
  6
BYLAYER
100
AcDbCircle
 10
350.3750354048202098
 20
125.8647785271347175
 30
0.0
 40
15.9784693614045246
100
AcDbArc
 50
2.1822431933259101
 51
45.9960783596703706
  0
ARC
  5
68
100
AcDbEntity
  8
0
 62
256
370
-1
 48
1.0
  6
BYLAYER
100
AcDbCircle
 10
191.569783188300562
 20
128.0627907621014856
 30
0.0
 40
62.1291329502472536
100
AcDbArc
 50
333.1481635809165027
 51
3.3931227222863454
  0
ARC
  5
69
100
AcDbEntity
  8
0
 62
256
370
-1
 48
1.0
  6
BYLAYER
100
AcDbCircle
 10
75.2756706719297171
 20
29.7168179623047592
 30
0.0
 40
66.9553702825403718
100
AcDbArc
 50
67.1514316570437586
 51
117.0911381806512992
  0
ARC
  5
6A
100
AcDbEntity
  8
0
 62
256
370
-1
 48
1.0
  6
BYLAYER
100
AcDbCircle
 10
175.2943831664734375
 20
227.1761692624434374
 30
0.0
 40
154.6257741897833853
100
AcDbArc
 50
241.399134252207034
 51
250.3200623677702481
  0
ARC
  5
6B
100
AcDbEntity
  8
0
 62
256
370
-1
 48
1.0
  6
BYLAYER
100
AcDbCircle
 10
110.4836317520448574
 20
103.5886894579518582
 30
0.0
 40
22.2136737673499596
100
AcDbArc
 50
10.3849793193323272
 51
84.0436611515205527
  0
ARC
  5
6C
100
AcDbEntity
  8
0
 62
256
370
-1
 48
1.0
  6
BYLAYER
100
AcDbCircle
 10
153.9403524926337354
 20
62.6639798185565269
 30
0.0
 40
4.0735300964154462
100
AcDbArc
 50
4.7316304312859652
 51
55.8207608991904465
  0
ARC
  5
6D
100
AcDbEntity
  8
0
 62
256
370
-1
 48
1.0
  6
BYLAYER
100
AcDbCircle
 10
138.4019020269038549
 20
101.3582592431632321
 30
0.0
 40
2.6995258255149088
100
AcDbArc
 50
228.1914503731241837
 51
1.8636085406713279
  0
ARC
  5
6E
100
AcDbEntity
  8
0
 62
256
370
-1
 48
1.0
  6
BYLAYER
100
AcDbCircle
 10
201.0297537636162417
 20
92.4274068559502808
 30
0.0
 40
2.4275892014020322
100
AcDbArc
 50
125.0995918377046081
 51
269.2977363040122896
  0
ARC
  5
6F
100
AcDbEntity
  8
0
 62
256
370
-1
 48
1.0
  6
BYLAYER
100
AcDbCircle
 10
178.9702462363837867
 20
92.4274068559502808
 30
0.0
 40
2.4275892014020322
100
AcDbArc
 50
270.7022636959877104
 51
54.9004081622953919
  0
ARC
  5
70
100
AcDbEntity
  8
0
 62
256
370
-1
 48
1.0
  6
BYLAYER
100
AcDbCircle
 10
163.00847925609051
 20
11.00847925609051
 30
0.0
 40
5.0084864336916084
100
AcDbArc
 50
179.9029994738138782
 51
269.902999473811974
  0
ARC
  5
71
100
AcDbEntity
  8
0
 62
256
370
-1
 48
1.0
  6
BYLAYER
100
AcDbCircle
 10
216.9915207439058236
 20
11.0084792560941622
 30
0.0
 40
5.0084864336952553
100
AcDbArc
 50
270.0970005262295786
 51
0.0970005262312126
  0
ARC
  5
72
100
AcDbEntity
  8
0
 62
256
370
-1
 48
1.0
  6
BYLAYER
100
AcDbCircle
 10
233.3315831218584151
 20
109.1249110658122277
 30
0.0
 40
16.4344036068742909
100
AcDbArc
 50
291.4549896071384296
 51
326.2732861984096644
  0
ARC
  5
73
100
AcDbEntity
  8
0
 62
256
370
-1
 48
1.0
  6
BYLAYER
100
AcDbCircle
 10
215.3414516098710862
 20
166.7729828304020714
 30
0.0
 40
76.7908957848494538
100
AcDbArc
 50
271.2375843726487119
 51
288.2132492658454339
  0
LINE
  5
74
100
AcDbEntity
  8
0
 62
256
370
-1
 48
1.0
  6
BYLAYER
100
AcDbLine
 10
370.0000000000000568
 20
164.7342722073549908
 30
0.0
 11
365.8999999999999773
 21
162.367136103677467
 31
0.0
  0
LINE
  5
75
100
AcDbEntity
  8
0
 62
256
370
-1
 48
1.0
  6
BYLAYER
100
AcDbLine
 10
370.0000000000000568
 20
89.7342722073549908
 30
0.0
 11
365.8999999999999773
 21
87.367136103677467
 31
0.0
  0
LINE
  5
76
100
AcDbEntity
  8
0
 62
256
370
-1
 48
1.0
  6
BYLAYER
100
AcDbLine
 10
370.0000000000000568
 20
14.7342722073549908
 30
0.0
 11
365.8999999999999773
 21
12.367136103677467
 31
0.0
  0
LINE
  5
77
100
AcDbEntity
  8
0
 62
256
370
-1
 48
1.0
  6
BYLAYER
100
AcDbLine
 10
260.0000000000000568
 20
14.7342722073549908
 30
0.0
 11
255.8999999999999773
 21
12.367136103677467
 31
0.0
  0
LINE
  5
78
100
AcDbEntity
  8
0
 62
256
370
-1
 48
1.0
  6
BYLAYER
100
AcDbLine
 10
120.0000000000000568
 20
14.7342722073549908
 30
0.0
 11
115.8999999999999773
 21
12.367136103677467
 31
0.0
  0
LINE
  5
79
100
AcDbEntity
  8
0
 62
256
370
-1
 48
1.0
  6
BYLAYER
100
AcDbLine
 10
10.0000000000000568
 20
14.7342722073549908
 30
0.0
 11
5.8999999999999773
 21
12.367136103677467
 31
0.0
  0
LINE
  5
7A
100
AcDbEntity
  8
0
 62
256
370
-1
 48
1.0
  6
BYLAYER
100
AcDbLine
 10
10.0000000000000568
 20
89.7342722073549908
 30
0.0
 11
5.8999999999999773
 21
87.367136103677467
 31
0.0
  0
LINE
  5
7B
100
AcDbEntity
  8
0
 62
256
370
-1
 48
1.0
  6
BYLAYER
100
AcDbLine
 10
10.0000000000000568
 20
164.7342722073549908
 30
0.0
 11
5.8999999999999773
 21
162.367136103677467
 31
0.0
  0
LINE
  5
7C
100
AcDbEntity
  8
0
 62
256
370
-1
 48
1.0
  6
BYLAYER
100
AcDbLine
 10
120.0000000000000568
 20
164.7342722073549908
 30
0.0
 11
115.8999999999999773
 21
162.367136103677467
 31
0.0
  0
LINE
  5
7D
100
AcDbEntity
  8
0
 62
256
370
-1
 48
1.0
  6
BYLAYER
100
AcDbLine
 10
260.0000000000000568
 20
164.7342722073549908
 30
0.0
 11
255.8999999999999773
 21
162.367136103677467
 31
0.0
  0
ARC
  5
7E
100
AcDbEntity
  8
0
 62
256
370
-1
 48
1.0
  6
BYLAYER
100
AcDbCircle
 10
85.1535098827468886
 20
-42.0402208415829932
 30
0.0
 40
129.3511572954902817
100
AcDbArc
 50
56.6689659867596163
 51
72.8843451022150504
  0
ARC
  5
7F
100
AcDbEntity
  8
0
 62
256
370
-1
 48
1.0
  6
BYLAYER
100
AcDbCircle
 10
145.4600249077170986
 20
109.159459494227093
 30
0.0
 40
13.219748280873171
100
AcDbArc
 50
186.8053861528035213
 51
227.9299376247405462
  0
ARC
  5
80
100
AcDbEntity
  8
0
 62
256
370
-1
 48
1.0
  6
BYLAYER
100
AcDbCircle
 10
190.0000000000001137
 20
107.1886406109755541
 30
0.0
 40
16.0004640116482939
100
AcDbArc
 50
307.0205013605717568
 51
232.97949863947008
  0
ARC
  5
81
100
AcDbEntity
  8
0
 62
256
370
-1
 48
1.0
  6
BYLAYER
100
AcDbCircle
 10
167.9999999999997726
 20
92.0
 30
0.0
 40
1.9999999999999432
100
AcDbArc
 50
180.0
 51
270.0
  0
ARC
  5
82
100
AcDbEntity
  8
0
 62
256
370
-1
 48
1.0
  6
BYLAYER
100
AcDbCircle
 10
31.3885043059135285
 20
102.0995331644496389
 30
0.0
 40
15.9965521447047241
100
AcDbArc
 50
65.6266868300502466
 51
270.0000000000001137
  0
ARC
  5
83
100
AcDbEntity
  8
0
 62
256
370
-1
 48
1.0
  6
BYLAYER
100
AcDbCircle
 10
56.2631991107233773
 20
118.3559283576190069
 30
0.0
 40
15.9999999999998721
100
AcDbArc
 50
40.536491195215909
 51
180.0
  0
ARC
  5
84
100
AcDbEntity
  8
0
 62
256
370
-1
 48
1.0
  6
BYLAYER
100
AcDbCircle
 10
84.8887947842089545
 20
121.5491629386054058
 30
0.0
 40
15.9972912597903694
100
AcDbArc
 50
8.4503428554935756
 51
151.835331045197421
  0
ARC
  5
85
100
AcDbEntity
  8
0
 62
256
370
-1
 48
1.0
  6
BYLAYER
100
AcDbCircle
 10
111.0656467738146631
 20
109.7817531018039858
 30
0.0
 40
15.9937760173569465
100
AcDbArc
 50
83.8151587711250698
 51
123.4917961100075416
  0
ARC
  5
86
100
AcDbEntity
  8
0
 62
256
370
-1
 48
1.0
  6
BYLAYER
100
AcDbCircle
 10
38.5874956695458593
 20
118.2402254189509847
 30
0.0
 40
1.6796931841234586
100
AcDbArc
 50
249.1613141001779184
 51
3.9498546080460217
  0
LINE
  5
87
100
AcDbEntity
  8
0
 62
256
370
-1
 48
1.0
  6
BYLAYER
100
AcDbLine
 10
374.0999999999999659
 20
157.6328638963224762
 30
0.0
 11
370.0
 21
155.2657277926450945
 31
0.0
  0
LINE
  5
88
100
AcDbEntity
  8
0
 62
256
370
-1
 48
1.0
  6
BYLAYER
100
AcDbLine
 10
374.0999999999999659
 20
82.6328638963224762
 30
0.0
 11
370.0
 21
80.2657277926450945
 31
0.0
  0
LINE
  5
89
100
AcDbEntity
  8
0
 62
256
370
-1
 48
1.0
  6
BYLAYER
100
AcDbLine
 10
374.0999999999999659
 20
7.6328638963224762
 30
0.0
 11
370.0
 21
5.2657277926450945
 31
0.0
  0
LINE
  5
8A
100
AcDbEntity
  8
0
 62
256
370
-1
 48
1.0
  6
BYLAYER
100
AcDbLine
 10
264.0999999999999659
 20
7.6328638963224762
 30
0.0
 11
260.0
 21
5.2657277926450945
 31
0.0
  0
LINE
  5
8B
100
AcDbEntity
  8
0
 62
256
370
-1
 48
1.0
  6
BYLAYER
100
AcDbLine
 10
124.0999999999999659
 20
7.6328638963224762
 30
0.0
 11
120.0
 21
5.2657277926450945
 31
0.0
  0
LINE
  5
8C
100
AcDbEntity
  8
0
 62
256
370
-1
 48
1.0
  6
BYLAYER
100
AcDbLine
 10
14.0999999999999659
 20
7.6328638963224762
 30
0.0
 11
10.0
 21
5.2657277926450945
 31
0.0
  0
LINE
  5
8D
100
AcDbEntity
  8
0
 62
256
370
-1
 48
1.0
  6
BYLAYER
100
AcDbLine
 10
14.0999999999999659
 20
82.6328638963224762
 30
0.0
 11
10.0
 21
80.2657277926450945
 31
0.0
  0
LINE
  5
8E
100
AcDbEntity
  8
0
 62
256
370
-1
 48
1.0
  6
BYLAYER
100
AcDbLine
 10
14.0999999999999659
 20
157.6328638963224762
 30
0.0
 11
10.0
 21
155.2657277926450945
 31
0.0
  0
LINE
  5
8F
100
AcDbEntity
  8
0
 62
256
370
-1
 48
1.0
  6
BYLAYER
100
AcDbLine
 10
124.0999999999999659
 20
157.6328638963224762
 30
0.0
 11
120.0
 21
155.2657277926450945
 31
0.0
  0
LINE
  5
90
100
AcDbEntity
  8
0
 62
256
370
-1
 48
1.0
  6
BYLAYER
100
AcDbLine
 10
264.0999999999999659
 20
157.6328638963224762
 30
0.0
 11
260.0
 21
155.2657277926450945
 31
0.0
  0
ARC
  5
91
100
AcDbEntity
  8
0
 62
256
370
-1
 48
1.0
  6
BYLAYER
100
AcDbCircle
 10
69.4879284417597916
 20
129.7244708811759892
 30
0.0
 40
1.4401706972205881
100
AcDbArc
 50
222.3201321330876112
 51
334.3031888101616005
  0
ARC
  5
92
100
AcDbEntity
  8
0
 62
256
370
-1
 48
1.0
  6
BYLAYER
100
AcDbCircle
 10
101.7040419556984574
 20
123.9562032070528232
 30
0.0
 40
0.9932204331047972
100
AcDbArc
 50
183.2439199674976464
 51
302.6575300206591237
  0
ARC
  5
93
100
AcDbEntity
  8
0
 62
256
370
-1
 48
1.0
  6
BYLAYER
100
AcDbCircle
 10
269.5396665914741448
 20
133.1098855950611721
 30
0.0
 40
16.0083868932116999
100
AcDbArc
 50
58.0962558681727543
 51
184.9089750612096452
  0
ARC
  5
94
100
AcDbEntity
  8
0
 62
256
370
-1
 48
1.0
  6
BYLAYER
100
AcDbCircle
 10
350.5273255945741653
 20
98.5526786264602919
 30
0.0
 40
16.0001114673032916
100
AcDbArc
 50
238.8467275242857681
 51
50.5679165523788257
  0
ARC
  5
95
100
AcDbEntity
  8
0
 62
256
370
-1
 48
1.0
  6
BYLAYER
100
AcDbCircle
 10
350.3545108048252814
 20
125.8599887962104731
 30
0.0
 40
15.9991619614088449
100
AcDbArc
 50
309.8665505326006837
 51
122.1452543565573308
  0
ARC
  5
96
100
AcDbEntity
  8
0
 62
256
370
-1
 48
1.0
  6
BYLAYER
100
AcDbCircle
 10
324.1304384653249144
 20
141.7652448100622848
 30
0.0
 40
15.9997575454319083
100
AcDbArc
 50
355.6528767909383646
 51
134.9374350792908501
  0
ARC
  5
97
100
AcDbEntity
  8
0
 62
256
370
-1
 48
1.0
  6
BYLAYER
100
AcDbCircle
 10
295.7835477322100246
 20
144.896470603666188
 30
0.0
 40
15.994610119141095
100
AcDbArc
 50
32.1194534137183751
 51
169.9132195970657619
  0
ARC
  5
98
100
AcDbEntity
  8
0
 62
256
370
-1
 48
1.0
  6
BYLAYER
100
AcDbCircle
 10
262.4577642393525707
 20
38.9051433785942322
 30
0.0
 40
16.007160920729202
100
AcDbArc
 50
252.4822789216368619
 51
353.8949753170875283
  0
ARC
  5
99
100
AcDbEntity
  8
0
 62
256
370
-1
 48
1.0
  6
BYLAYER
100
AcDbCircle
 10
285.2191006840421323
 20
54.108708685852605
 30
0.0
 40
15.9988183322860955
100
AcDbArc
 50
253.5535066569300682
 51
70.6308806932661923
  0
ARC
  5
9A
100
AcDbEntity
  8
0
 62
256
370
-1
 48
1.0
  6
BYLAYER
100
AcDbCircle
 10
141.0505374520772932
 20
26.9627050117398568
 30
0.0
 40
16.0493050792816092
100
AcDbArc
 50
181.7834938370366729
 51
308.1562674200402512
  0
ARC
  5
9B
100
AcDbEntity
  8
0
 62
256
370
-1
 48
1.0
  6
BYLAYER
100
AcDbCircle
 10
117.8363250231230523
 20
42.6406723434799844
 30
0.0
 40
16.0252683538523897
100
AcDbArc
 50
89.9999999999996874
 51
290.2992821055367472
  0
ARC
  5
9C
100
AcDbEntity
  8
0
 62
256
370
-1
 48
1.0
  6
BYLAYER
100
AcDbCircle
 10
361.6924114288403871
 20
112.2766517383450946
 30
0.0
 40
1.6942051801490825
100
AcDbArc
 50
129.7091292563797822
 51
233.724611216915946
  0
ARC
  5
9D
100
AcDbEntity
  8
0
 62
256
370
-1
 48
1.0
  6
BYLAYER
100
AcDbCircle
 10
341.3138695799713673
 20
140.5176321940001003
 30
0.0
 40
1.230196512914546
100
AcDbArc
 50
178.3766835752794293
 51
295.417148222188473
  0
ARC
  5
9E
100
AcDbEntity
  8
0
 62
256
370
-1
 48
1.0
  6
BYLAYER
100
AcDbCircle
 10
311.2005064556586831
 20
154.6124180179092775
 30
0.0
 40
2.2287137584023498
100
AcDbArc
 50
212.9384061356846871
 51
316.9539417641866521
  0
ARC
  5
9F
100
AcDbEntity
  8
0
 62
256
370
-1
 48
1.0
  6
BYLAYER
100
AcDbCircle
 10
278.6755407776789184
 20
147.8979057102037871
 30
0.0
 40
1.3752575878160938
100
AcDbArc
 50
240.5798337515718401
 51
351.6318302278276064
  0
ARC
  5
A0
100
AcDbEntity
  8
0
 62
256
370
-1
 48
1.0
  6
BYLAYER
100
AcDbCircle
 10
280.2828184748889271
 20
36.8702304802162146
 30
0.0
 40
1.9374263537751
100
AcDbArc
 50
77.8824794818190753
 51
170.1170807497734927
  0
LINE
  5
A1
100
AcDbEntity
  8
0
 62
256
370
-1
 48
1.0
  6
BYLAYER
100
AcDbLine
 10
370.0000000000000568
 20
164.7342722073549339
 30
0.0
 11
374.0999999999999659
 21
162.3671361036775238
 31
0.0
  0
LINE
  5
A2
100
AcDbEntity
  8
0
 62
256
370
-1
 48
1.0
  6
BYLAYER
100
AcDbLine
 10
370.0000000000000568
 20
89.7342722073549339
 30
0.0
 11
374.0999999999999659
 21
87.3671361036775238
 31
0.0
  0
LINE
  5
A3
100
AcDbEntity
  8
0
 62
256
370
-1
 48
1.0
  6
BYLAYER
100
AcDbLine
 10
370.0000000000000568
 20
14.7342722073549339
 30
0.0
 11
374.0999999999999659
 21
12.3671361036775238
 31
0.0
  0
LINE
  5
A4
100
AcDbEntity
  8
0
 62
256
370
-1
 48
1.0
  6
BYLAYER
100
AcDbLine
 10
260.0000000000000568
 20
14.7342722073549339
 30
0.0
 11
264.0999999999999659
 21
12.3671361036775238
 31
0.0
  0
LINE
  5
A5
100
AcDbEntity
  8
0
 62
256
370
-1
 48
1.0
  6
BYLAYER
100
AcDbLine
 10
120.0000000000000568
 20
14.7342722073549339
 30
0.0
 11
124.0999999999999659
 21
12.3671361036775238
 31
0.0
  0
LINE
  5
A6
100
AcDbEntity
  8
0
 62
256
370
-1
 48
1.0
  6
BYLAYER
100
AcDbLine
 10
10.0000000000000568
 20
14.7342722073549339
 30
0.0
 11
14.0999999999999659
 21
12.3671361036775238
 31
0.0
  0
LINE
  5
A7
100
AcDbEntity
  8
0
 62
256
370
-1
 48
1.0
  6
BYLAYER
100
AcDbLine
 10
10.0000000000000568
 20
89.7342722073549339
 30
0.0
 11
14.0999999999999659
 21
87.3671361036775238
 31
0.0
  0
LINE
  5
A8
100
AcDbEntity
  8
0
 62
256
370
-1
 48
1.0
  6
BYLAYER
100
AcDbLine
 10
10.0000000000000568
 20
164.7342722073549339
 30
0.0
 11
14.0999999999999659
 21
162.3671361036775238
 31
0.0
  0
LINE
  5
A9
100
AcDbEntity
  8
0
 62
256
370
-1
 48
1.0
  6
BYLAYER
100
AcDbLine
 10
120.0000000000000568
 20
164.7342722073549339
 30
0.0
 11
124.0999999999999659
 21
162.3671361036775238
 31
0.0
  0
LINE
  5
AA
100
AcDbEntity
  8
0
 62
256
370
-1
 48
1.0
  6
BYLAYER
100
AcDbLine
 10
260.0000000000000568
 20
164.7342722073549339
 30
0.0
 11
264.0999999999999659
 21
162.3671361036775238
 31
0.0
  0
ARC
  5
AB
100
AcDbEntity
  8
0
 62
256
370
-1
 48
1.0
  6
BYLAYER
100
AcDbCircle
 10
257.2421902967363962
 20
22.3727083603654648
 30
0.0
 40
1.3284584613912533
100
AcDbArc
 50
72.5935344475129085
 51
178.8458659341382315
  0
ARC
  5
AC
100
AcDbEntity
  8
0
 62
256
370
-1
 48
1.0
  6
BYLAYER
100
AcDbCircle
 10
123.7744806389980852
 20
26.4353125802020656
 30
0.0
 40
1.2348415982887126
100
AcDbArc
 50
1.2943214452584022
 51
107.8546730965998819
  0
ARC
  5
AD
100
AcDbEntity
  8
0
 62
256
370
-1
 48
1.0
  6
BYLAYER
100
AcDbCircle
 10
153.8461658595138317
 20
11.3329507961559841
 30
0.0
 40
4.1658359533468223
100
AcDbArc
 50
355.6497491955753958
 51
133.7405408124173221
  0
ARC
  5
AE
100
AcDbEntity
  8
0
 62
256
370
-1
 48
1.0
  6
BYLAYER
100
AcDbCircle
 10
225.1637314583787486
 20
10.7176891412169653
 30
0.0
 40
3.1778544487029321
100
AcDbArc
 50
40.2269219713368926
 51
174.5962539396934119
  0
ARC
  5
AF
100
AcDbEntity
  8
0
 62
256
370
-1
 48
1.0
  6
BYLAYER
100
AcDbCircle
 10
239.913023511270012
 20
22.9938794041894425
 30
0.0
 40
16.0120148179644382
100
AcDbArc
 50
219.6810258211600058
 51
357.8725231389855139
  0
ARC
  5
B0
100
AcDbEntity
  8
0
 62
256
370
-1
 48
1.0
  6
BYLAYER
100
AcDbCircle
 10
141.0459057924815625
 20
26.9753590145476849
 30
0.0
 40
16.0621173055680266
100
AcDbArc
 50
235.9904535471357008
 51
308.1413719733078551
  0
ARC
  5
B1
100
AcDbEntity
  8
0
 62
256
370
-1
 48
1.0
  6
BYLAYER
100
AcDbCircle
 10
164.841324121248249
 20
157.8421540210803755
 30
0.0
 40
1.159327484892837
100
AcDbArc
 50
358.0789109698109201
 51
92.8968934862826927
  0
ARC
  5
B2
100
AcDbEntity
  8
0
 62
256
370
-1
 48
1.0
  6
BYLAYER
100
AcDbCircle
 10
142.2586758787516317
 20
157.8421540210803755
 30
0.0
 40
1.1593274848928086
100
AcDbArc
 50
87.1031065137159288
 51
181.9210890301890515
  0
ARC
  5
B3
100
AcDbEntity
  8
0
 62
256
370
-1
 48
1.0
  6
BYLAYER
100
AcDbCircle
 10
31.1306982987160268
 20
116.6213777966421503
 30
0.0
 40
30.5194856734100455
100
AcDbArc
 50
270.4839980587688615
 51
296.5740450381901496
  0
ARC
  5
B4
100
AcDbEntity
  8
0
 62
256
370
-1
 48
1.0
  6
BYLAYER
100
AcDbCircle
 10
116.7995108128921942
 20
21.7003760588927292
 30
0.0
 40
36.9801021191829236
100
AcDbArc
 50
48.5799462164890699
 51
88.393382912077314
  0
ARC
  5
B5
100
AcDbEntity
  8
0
 62
256
370
-1
 48
1.0
  6
BYLAYER
100
AcDbCircle
 10
155.4323999999998591
 20
46.9624000000001303
 30
0.0
 40
2.5678752929223507
100
AcDbArc
 50
273.7422391952495673
 51
0.8389808900273303
  0
ARC
  5
B6
100
AcDbEntity
  8
0
 62
256
370
-1
 48
1.0
  6
BYLAYER
100
AcDbCircle
 10
154.332300888668442
 20
63.7270503110016477
 30
0.0
 40
19.368581124100686
100
AcDbArc
 50
227.5702614290988492
 51
273.752766790455496
  0
LINE
  5
B7
100
AcDbEntity
  8
0
 62
256
370
-1
 48
1.0
  6
BYLAYER
100
AcDbLine
 10
365.8999999999999773
 20
157.6328638963225899
 30
0.0
 11
370.0
 21
155.2657277926450377
 31
0.0
  0
LINE
  5
B8
100
AcDbEntity
  8
0
 62
256
370
-1
 48
1.0
  6
BYLAYER
100
AcDbLine
 10
365.8999999999999773
 20
82.6328638963225899
 30
0.0
 11
370.0
 21
80.2657277926450377
 31
0.0
  0
LINE
  5
B9
100
AcDbEntity
  8
0
 62
256
370
-1
 48
1.0
  6
BYLAYER
100
AcDbLine
 10
365.8999999999999773
 20
7.6328638963225899
 30
0.0
 11
370.0
 21
5.2657277926450377
 31
0.0
  0
LINE
  5
BA
100
AcDbEntity
  8
0
 62
256
370
-1
 48
1.0
  6
BYLAYER
100
AcDbLine
 10
255.8999999999999773
 20
7.6328638963225899
 30
0.0
 11
260.0
 21
5.2657277926450377
 31
0.0
  0
LINE
  5
BB
100
AcDbEntity
  8
0
 62
256
370
-1
 48
1.0
  6
BYLAYER
100
AcDbLine
 10
115.8999999999999773
 20
7.6328638963225899
 30
0.0
 11
120.0
 21
5.2657277926450377
 31
0.0
  0
LINE
  5
BC
100
AcDbEntity
  8
0
 62
256
370
-1
 48
1.0
  6
BYLAYER
100
AcDbLine
 10
5.8999999999999773
 20
7.6328638963225899
 30
0.0
 11
10.0
 21
5.2657277926450377
 31
0.0
  0
LINE
  5
BD
100
AcDbEntity
  8
0
 62
256
370
-1
 48
1.0
  6
BYLAYER
100
AcDbLine
 10
5.8999999999999773
 20
82.6328638963225899
 30
0.0
 11
10.0
 21
80.2657277926450377
 31
0.0
  0
LINE
  5
BE
100
AcDbEntity
  8
0
 62
256
370
-1
 48
1.0
  6
BYLAYER
100
AcDbLine
 10
5.8999999999999773
 20
157.6328638963225899
 30
0.0
 11
10.0
 21
155.2657277926450377
 31
0.0
  0
LINE
  5
BF
100
AcDbEntity
  8
0
 62
256
370
-1
 48
1.0
  6
BYLAYER
100
AcDbLine
 10
115.8999999999999773
 20
157.6328638963225899
 30
0.0
 11
120.0
 21
155.2657277926450377
 31
0.0
  0
LINE
  5
C0
100
AcDbEntity
  8
0
 62
256
370
-1
 48
1.0
  6
BYLAYER
100
AcDbLine
 10
255.8999999999999773
 20
157.6328638963225899
 30
0.0
 11
260.0
 21
155.2657277926450377
 31
0.0
  0
LINE
  5
C1
100
AcDbEntity
  8
0
 62
256
370
-1
 48
1.0
  6
BYLAYER
100
AcDbLine
 10
165.9999999999998295
 20
92.0
 30
0.0
 11
166.0
 21
157.8032898315634327
 31
0.0
  0
LINE
  5
C2
100
AcDbEntity
  8
0
 62
256
370
-1
 48
1.0
  6
BYLAYER
100
AcDbLine
 10
141.1000000000000227
 20
101.4460488222503898
 30
0.0
 11
141.0999999999999091
 21
157.8032898315634327
 31
0.0
  0
LINE
  5
C3
100
AcDbEntity
  8
0
 62
256
370
-1
 48
1.0
  6
BYLAYER
100
AcDbLine
 10
142.3172668876825355
 20
159.0
 30
0.0
 11
164.7827331123169188
 21
159.0
 31
0.0
  0
LINE
  5
C4
100
AcDbEntity
  8
0
 62
256
370
-1
 48
1.0
  6
BYLAYER
100
AcDbLine
 10
365.8999999999999773
 20
162.367136103677467
 30
0.0
 11
365.8999999999999773
 21
157.6328638963225899
 31
0.0
  0
LINE
  5
C5
100
AcDbEntity
  8
0
 62
256
370
-1
 48
1.0
  6
BYLAYER
100
AcDbLine
 10
365.8999999999999773
 20
87.367136103677467
 30
0.0
 11
365.8999999999999773
 21
82.6328638963225899
 31
0.0
  0
LINE
  5
C6
100
AcDbEntity
  8
0
 62
256
370
-1
 48
1.0
  6
BYLAYER
100
AcDbLine
 10
365.8999999999999773
 20
12.367136103677467
 30
0.0
 11
365.8999999999999773
 21
7.6328638963225899
 31
0.0
  0
LINE
  5
C7
100
AcDbEntity
  8
0
 62
256
370
-1
 48
1.0
  6
BYLAYER
100
AcDbLine
 10
255.8999999999999773
 20
12.367136103677467
 30
0.0
 11
255.8999999999999773
 21
7.6328638963225899
 31
0.0
  0
LINE
  5
C8
100
AcDbEntity
  8
0
 62
256
370
-1
 48
1.0
  6
BYLAYER
100
AcDbLine
 10
115.8999999999999773
 20
12.367136103677467
 30
0.0
 11
115.8999999999999773
 21
7.6328638963225899
 31
0.0
  0
LINE
  5
C9
100
AcDbEntity
  8
0
 62
256
370
-1
 48
1.0
  6
BYLAYER
100
AcDbLine
 10
5.8999999999999773
 20
12.367136103677467
 30
0.0
 11
5.8999999999999773
 21
7.6328638963225899
 31
0.0
  0
LINE
  5
CA
100
AcDbEntity
  8
0
 62
256
370
-1
 48
1.0
  6
BYLAYER
100
AcDbLine
 10
5.8999999999999773
 20
87.367136103677467
 30
0.0
 11
5.8999999999999773
 21
82.6328638963225899
 31
0.0
  0
LINE
  5
CB
100
AcDbEntity
  8
0
 62
256
370
-1
 48
1.0
  6
BYLAYER
100
AcDbLine
 10
5.8999999999999773
 20
162.367136103677467
 30
0.0
 11
5.8999999999999773
 21
157.6328638963225899
 31
0.0
  0
LINE
  5
CC
100
AcDbEntity
  8
0
 62
256
370
-1
 48
1.0
  6
BYLAYER
100
AcDbLine
 10
115.8999999999999773
 20
162.367136103677467
 30
0.0
 11
115.8999999999999773
 21
157.6328638963225899
 31
0.0
  0
LINE
  5
CD
100
AcDbEntity
  8
0
 62
256
370
-1
 48
1.0
  6
BYLAYER
100
AcDbLine
 10
255.8999999999999773
 20
162.367136103677467
 30
0.0
 11
255.8999999999999773
 21
157.6328638963225899
 31
0.0
  0
LINE
  5
CE
100
AcDbEntity
  8
0
 62
256
370
-1
 48
1.0
  6
BYLAYER
100
AcDbLine
 10
374.1000000000000227
 20
162.3671361036775806
 30
0.0
 11
374.0999999999999659
 21
157.632863896322533
 31
0.0
  0
LINE
  5
CF
100
AcDbEntity
  8
0
 62
256
370
-1
 48
1.0
  6
BYLAYER
100
AcDbLine
 10
374.1000000000000227
 20
87.3671361036775806
 30
0.0
 11
374.0999999999999659
 21
82.632863896322533
 31
0.0
  0
LINE
  5
D0
100
AcDbEntity
  8
0
 62
256
370
-1
 48
1.0
  6
BYLAYER
100
AcDbLine
 10
374.1000000000000227
 20
12.3671361036775806
 30
0.0
 11
374.0999999999999659
 21
7.632863896322533
 31
0.0
  0
LINE
  5
D1
100
AcDbEntity
  8
0
 62
256
370
-1
 48
1.0
  6
BYLAYER
100
AcDbLine
 10
264.1000000000000227
 20
12.3671361036775806
 30
0.0
 11
264.0999999999999659
 21
7.632863896322533
 31
0.0
  0
LINE
  5
D2
100
AcDbEntity
  8
0
 62
256
370
-1
 48
1.0
  6
BYLAYER
100
AcDbLine
 10
124.1000000000000227
 20
12.3671361036775806
 30
0.0
 11
124.0999999999999659
 21
7.632863896322533
 31
0.0
  0
LINE
  5
D3
100
AcDbEntity
  8
0
 62
256
370
-1
 48
1.0
  6
BYLAYER
100
AcDbLine
 10
14.1000000000000227
 20
12.3671361036775806
 30
0.0
 11
14.0999999999999659
 21
7.632863896322533
 31
0.0
  0
LINE
  5
D4
100
AcDbEntity
  8
0
 62
256
370
-1
 48
1.0
  6
BYLAYER
100
AcDbLine
 10
14.1000000000000227
 20
87.3671361036775806
 30
0.0
 11
14.0999999999999659
 21
82.632863896322533
 31
0.0
  0
LINE
  5
D5
100
AcDbEntity
  8
0
 62
256
370
-1
 48
1.0
  6
BYLAYER
100
AcDbLine
 10
14.1000000000000227
 20
162.3671361036775806
 30
0.0
 11
14.0999999999999659
 21
157.632863896322533
 31
0.0
  0
LINE
  5
D6
100
AcDbEntity
  8
0
 62
256
370
-1
 48
1.0
  6
BYLAYER
100
AcDbLine
 10
124.1000000000000227
 20
162.3671361036775806
 30
0.0
 11
124.0999999999999659
 21
157.632863896322533
 31
0.0
  0
LINE
  5
D7
100
AcDbEntity
  8
0
 62
256
370
-1
 48
1.0
  6
BYLAYER
100
AcDbLine
 10
264.1000000000000227
 20
162.3671361036775806
 30
0.0
 11
264.0999999999999659
 21
157.632863896322533
 31
0.0
  0
ENDSEC
  0
SECTION
  2
OBJECTS
  0
DICTIONARY
  5
C
100
AcDbDictionary
280
0
281
1
  3
ACAD_GROUP
350
D
  3
ACAD_LAYOUT
350
1A
  3
ACAD_MLINESTYLE
350
17
  3
ACAD_PLOTSETTINGS
350
19
  3
ACAD_PLOTSTYLENAME
350
E
  3
AcDbVariableDictionary
350
D8
  3
QCAD_OBJECTS
350
D9
  0
DICTIONARY
  5
D
100
AcDbDictionary
280
0
281
1
  0
ACDBDICTIONARYWDFLT
  5
E
100
AcDbDictionary
281
1
  3
Normal
350
F
100
AcDbDictionaryWithDefault
340
F
  0
ACDBPLACEHOLDER
  5
F
  0
DICTIONARY
  5
17
100
AcDbDictionary
280
0
281
1
  3
Standard
350
18
  0
MLINESTYLE
  5
18
100
AcDbMlineStyle
  2
STANDARD
 70
0
  3

 62
256
 51
90.0
 52
90.0
 71
2
 49
0.5
 62
256
  6
BYLAYER
 49
-0.5
 62
256
  6
BYLAYER
  0
DICTIONARY
  5
19
100
AcDbDictionary
280
0
281
1
  0
DICTIONARY
  5
1A
100
AcDbDictionary
281
1
  3
Layout1
350
1E
  3
Layout2
350
26
  3
Model
350
22
  0
LAYOUT
  5
1E
100
AcDbPlotSettings
  1

  2
none_device
  4

  6

 40
0.0
 41
0.0
 42
0.0
 43
0.0
 44
0.0
 45
0.0
 46
0.0
 47
0.0
 48
0.0
 49
0.0
140
0.0
141
0.0
142
1.0
143
1.0
 70
688
 72
0
 73
0
 74
5
  7

 75
16
147
1.0
148
0.0
149
0.0
100
AcDbLayout
  1
Layout1
 70
1
 71
1
 10
0.0
 20
0.0
 11
420.0
 21
297.0
 12
0.0
 22
0.0
 32
0.0
 14
100000000000000000000.0
 24
100000000000000000000.0
 34
100000000000000000000.0
 15
-100000000000000000000.0
 25
-100000000000000000000.0
 35
-100000000000000000000.0
146
0.0
 13
0.0
 23
0.0
 33
0.0
 16
1.0
 26
0.0
 36
0.0
 17
0.0
 27
1.0
 37
0.0
 76
0
330
1B
  0
LAYOUT
  5
22
100
AcDbPlotSettings
  1

  2
none_device
  4

  6

 40
0.0
 41
0.0
 42
0.0
 43
0.0
 44
0.0
 45
0.0
 46
0.0
 47
0.0
 48
0.0
 49
0.0
140
0.0
141
0.0
142
1.0
143
1.0
 70
1712
 72
0
 73
0
 74
0
  7

 75
0
147
1.0
148
0.0
149
0.0
100
AcDbLayout
  1
Model
 70
1
 71
0
 10
0.0
 20
0.0
 11
12.0
 21
9.0
 12
0.0
 22
0.0
 32
0.0
 14
0.0
 24
0.0
 34
0.0
 15
0.0
 25
0.0
 35
0.0
146
0.0
 13
0.0
 23
0.0
 33
0.0
 16
1.0
 26
0.0
 36
0.0
 17
0.0
 27
1.0
 37
0.0
 76
0
330
1F
  0
LAYOUT
  5
26
100
AcDbPlotSettings
  1

  2
none_device
  4

  6

 40
0.0
 41
0.0
 42
0.0
 43
0.0
 44
0.0
 45
0.0
 46
0.0
 47
0.0
 48
0.0
 49
0.0
140
0.0
141
0.0
142
1.0
143
1.0
 70
688
 72
0
 73
0
 74
5
  7

 75
16
147
1.0
148
0.0
149
0.0
100
AcDbLayout
  1
Layout2
 70
1
 71
2
 10
0.0
 20
0.0
 11
12.0
 21
9.0
 12
0.0
 22
0.0
 32
0.0
 14
0.0
 24
0.0
 34
0.0
 15
0.0
 25
0.0
 35
0.0
146
0.0
 13
0.0
 23
0.0
 33
0.0
 16
1.0
 26
0.0
 36
0.0
 17
0.0
 27
1.0
 37
0.0
 76
0
330
23
  0
DICTIONARY
  5
D8
100
AcDbDictionary
281
1
  3
DIMASSOC
350
DB
  3
HIDETEXT
350
DA
  0
DICTIONARYVAR
  5
DA
100
DictionaryVariables
280
0
  1
2
  0
DICTIONARYVAR
  5
DB
100
DictionaryVariables
280
0
  1
1
  0
DICTIONARY
  5
D9
100
AcDbDictionary
281
1
  3
ColorSettings/BackgroundColor
350
DC
  3
ColorSettings/ColorMode
350
DD
  3
Grid/DisplayGrid00
350
DE
  3
Grid/DisplayGrid01
350
DF
  3
Grid/DisplayGrid02
350
E0
  3
Grid/DisplayGrid03
350
E1
  3
Grid/GridSpacingX00
350
E2
  3
Grid/GridSpacingX01
350
E3
  3
Grid/GridSpacingX02
350
E4
  3
Grid/GridSpacingX03
350
E5
  3
Grid/GridSpacingY00
350
E6
  3
Grid/GridSpacingY01
350
E7
  3
Grid/GridSpacingY02
350
E8
  3
Grid/GridSpacingY03
350
E9
  3
Grid/IsometricGrid00
350
EA
  3
Grid/IsometricGrid01
350
EB
  3
Grid/IsometricGrid02
350
EC
  3
Grid/IsometricGrid03
350
ED
  3
Grid/IsometricProjection00
350
EE
  3
Grid/IsometricProjection01
350
EF
  3
Grid/IsometricProjection02
350
F0
  3
Grid/IsometricProjection03
350
F1
  3
Grid/MetaGridSpacingX00
350
F2
  3
Grid/MetaGridSpacingX01
350
F3
  3
Grid/MetaGridSpacingX02
350
F4
  3
Grid/MetaGridSpacingX03
350
F5
  3
Grid/MetaGridSpacingY00
350
F6
  3
Grid/MetaGridSpacingY01
350
F7
  3
Grid/MetaGridSpacingY02
350
F8
  3
Grid/MetaGridSpacingY03
350
F9
  3
MultiPageSettings/Columns
350
FA
  3
MultiPageSettings/GlueMarginsBottom
350
FB
  3
MultiPageSettings/GlueMarginsLeft
350
FC
  3
MultiPageSettings/GlueMarginsRight
350
FD
  3
MultiPageSettings/GlueMarginsTop
350
FE
  3
MultiPageSettings/PrintCropMarks
350
FF
  3
MultiPageSettings/Rows
350
100
  3
PageSettings/OffsetX
350
101
  3
PageSettings/OffsetY
350
102
  3
PageSettings/PageOrientation
350
103
  3
PageSettings/PaperHeight
350
104
  3
PageSettings/PaperWidth
350
105
  3
PageSettings/Scale
350
106
  3
PageSettings/ShowPaperBorders
350
107
  3
PageTagSettings/EnablePageTags
350
108
  3
PageTagSettings/TagAlignment
350
109
  3
PageTagSettings/TagFont
350
10A
  3
PageTagSettings/TagPosition
350
10B
  3
QCADVersion
350
10C
  3
UnitSettings/PaperUnit
350
10D
  3
ViewportCenter
350
10E
  3
ViewportHeight
350
10F
  3
ViewportWidth
350
110
  0
XRECORD
  5
DC
330
D9
100
AcDbXrecord
280
1
1000
White
  0
XRECORD
  5
DD
330
D9
100
AcDbXrecord
280
1
1000
FullColor
  0
XRECORD
  5
DE
330
D9
100
AcDbXrecord
280
1
290
1
  0
XRECORD
  5
DF
330
D9
100
AcDbXrecord
280
1
290
1
  0
XRECORD
  5
E0
330
D9
100
AcDbXrecord
280
1
290
1
  0
XRECORD
  5
E1
330
D9
100
AcDbXrecord
280
1
290
1
  0
XRECORD
  5
E2
330
D9
100
AcDbXrecord
280
1
1000
auto
  0
XRECORD
  5
E3
330
D9
100
AcDbXrecord
280
1
1000
auto
  0
XRECORD
  5
E4
330
D9
100
AcDbXrecord
280
1
1000
auto
  0
XRECORD
  5
E5
330
D9
100
AcDbXrecord
280
1
1000
auto
  0
XRECORD
  5
E6
330
D9
100
AcDbXrecord
280
1
1000
auto
  0
XRECORD
  5
E7
330
D9
100
AcDbXrecord
280
1
1000
auto
  0
XRECORD
  5
E8
330
D9
100
AcDbXrecord
280
1
1000
auto
  0
XRECORD
  5
E9
330
D9
100
AcDbXrecord
280
1
1000
auto
  0
XRECORD
  5
EA
330
D9
100
AcDbXrecord
280
1
290
0
  0
XRECORD
  5
EB
330
D9
100
AcDbXrecord
280
1
290
0
  0
XRECORD
  5
EC
330
D9
100
AcDbXrecord
280
1
290
0
  0
XRECORD
  5
ED
330
D9
100
AcDbXrecord
280
1
290
0
  0
XRECORD
  5
EE
330
D9
100
AcDbXrecord
280
1
 90
65537
  0
XRECORD
  5
EF
330
D9
100
AcDbXrecord
280
1
 90
65537
  0
XRECORD
  5
F0
330
D9
100
AcDbXrecord
280
1
 90
65537
  0
XRECORD
  5
F1
330
D9
100
AcDbXrecord
280
1
 90
65537
  0
XRECORD
  5
F2
330
D9
100
AcDbXrecord
280
1
1000
auto
  0
XRECORD
  5
F3
330
D9
100
AcDbXrecord
280
1
1000
auto
  0
XRECORD
  5
F4
330
D9
100
AcDbXrecord
280
1
1000
auto
  0
XRECORD
  5
F5
330
D9
100
AcDbXrecord
280
1
1000
auto
  0
XRECORD
  5
F6
330
D9
100
AcDbXrecord
280
1
1000
auto
  0
XRECORD
  5
F7
330
D9
100
AcDbXrecord
280
1
1000
auto
  0
XRECORD
  5
F8
330
D9
100
AcDbXrecord
280
1
1000
auto
  0
XRECORD
  5
F9
330
D9
100
AcDbXrecord
280
1
1000
auto
  0
XRECORD
  5
FA
330
D9
100
AcDbXrecord
280
1
 90
1
  0
XRECORD
  5
FB
330
D9
100
AcDbXrecord
280
1
 40
10.0
  0
XRECORD
  5
FC
330
D9
100
AcDbXrecord
280
1
 40
10.0
  0
XRECORD
  5
FD
330
D9
100
AcDbXrecord
280
1
 40
10.0
  0
XRECORD
  5
FE
330
D9
100
AcDbXrecord
280
1
 40
10.0
  0
XRECORD
  5
FF
330
D9
100
AcDbXrecord
280
1
290
0
  0
XRECORD
  5
100
330
D9
100
AcDbXrecord
280
1
 90
1
  0
XRECORD
  5
101
330
D9
100
AcDbXrecord
280
1
 40
0.0
  0
XRECORD
  5
102
330
D9
100
AcDbXrecord
280
1
 40
0.0
  0
XRECORD
  5
103
330
D9
100
AcDbXrecord
280
1
1000
Portrait
  0
XRECORD
  5
104
330
D9
100
AcDbXrecord
280
1
 40
279.3999999999999773
  0
XRECORD
  5
105
330
D9
100
AcDbXrecord
280
1
 40
215.9000000000000057
  0
XRECORD
  5
106
330
D9
100
AcDbXrecord
280
1
1000
1:1
  0
XRECORD
  5
107
330
D9
100
AcDbXrecord
280
1
290
1
  0
XRECORD
  5
108
330
D9
100
AcDbXrecord
280
1
290
0
  0
XRECORD
  5
109
330
D9
100
AcDbXrecord
280
1
1000
Inside
  0
XRECORD
  5
10A
330
D9
100
AcDbXrecord
280
1
1000
Arial,10,-1,5,50,0,0,0,0,0
  0
XRECORD
  5
10B
330
D9
100
AcDbXrecord
280
1
1000
TopLeft
  0
XRECORD
  5
10C
330
D9
100
AcDbXrecord
280
1
1000
3.27.6
  0
XRECORD
  5
10D
330
D9
100
AcDbXrecord
280
1
 90
4
  0
XRECORD
  5
10F
330
D9
100
AcDbXrecord
280
1
 40
111.3000000000000114
  0
XRECORD
  5
110
330
D9
100
AcDbXrecord
280
1
 40
170.4000000000000057
  0
ENDSEC
  0
EOF
