999
dxflib 3.26.4.0
  0
SECTION
  2
HEADER
  9
$ACADVER
  1
AC1015
  9
$HANDSEED
  5
FFFF
  9
$DIMADEC
 70
0
  9
$DIMASZ
 40
2.5
  9
$DIMATFIT
 70
0
  9
$DIMAUNIT
 70
0
  9
$DIMAZIN
 70
2
  9
$DIMBLK
  1

  9
$DIMDEC
 70
4
  9
$DIMDLI
 40
5.0
  9
$DIMDSEP
 70
46
  9
$DIMEXE
 40
1.25
  9
$DIMEXO
 40
0.625
  9
$DIMGAP
 40
0.625
  9
$DIMLFAC
 40
1.0
  9
$DIMLUNIT
 70
2
  9
$DIMSCALE
 40
1.0
  9
$DIMTAD
 70
1
  9
$DIMTIH
 70
0
  9
$DIMTSZ
 40
0.0
  9
$DIMTXT
 40
2.5
  9
$DIMZIN
 70
8
  9
$DWGCODEPAGE
  3
ANSI_1252
  9
$INSUNITS
 70
4
  9
$LTSCALE
 40
1.0
  9
$MAXACTVP
 70
64
  9
$MEASUREMENT
 70
1
  9
$MIRRTEXT
 70
0
  9
$PDMODE
 70
0
  9
$PDSIZE
 40
0.0
  0
ENDSEC
  0
SECTION
  2
TABLES
  0
TABLE
  2
VPORT
  5
8
100
AcDbSymbolTable
 70
1
  0
VPORT
  5
30
100
AcDbSymbolTableRecord
100
AcDbViewportTableRecord
  2
*Active
 70
0
 10
0.0
 20
0.0
 11
1.0
 21
1.0
 12
286.3055555555554861
 22
148.5
 13
0.0
 23
0.0
 14
10.0
 24
10.0
 15
10.0
 25
10.0
 16
0.0
 26
0.0
 36
1.0
 17
0.0
 27
0.0
 37
0.0
 40
297.0
 41
1.92798353909465
 42
50.0
 43
0.0
 44
0.0
 50
0.0
 51
0.0
 71
0
 72
100
 73
1
 74
3
 75
1
 76
1
 77
0
 78
0
281
0
 65
1
110
0.0
120
0.0
130
0.0
111
1.0
121
0.0
131
0.0
112
0.0
122
1.0
132
0.0
 79
0
146
0.0
  0
ENDTAB
  0
TABLE
  2
LTYPE
  5
5
100
AcDbSymbolTable
 70
41
  0
LTYPE
  5
16
100
AcDbSymbolTableRecord
100
AcDbLinetypeTableRecord
  2
Continuous
 70
0
  3
Solid line
 72
65
 73
0
 40
0.0
  0
LTYPE
  5
31
100
AcDbSymbolTableRecord
100
AcDbLinetypeTableRecord
  2
DASHDOT2
 70
0
  3
Dash dot (.5x) _._._._._._._._._._._._._._._.
 72
65
 73
4
 40
12.6999999999999993
 49
6.3499999999999996
 74
0
 49
-3.1749999999999998
 74
0
 49
0.0
 74
0
 49
-3.1749999999999998
 74
0
  0
LTYPE
  5
32
100
AcDbSymbolTableRecord
100
AcDbLinetypeTableRecord
  2
DASHED2
 70
0
  3
Dashed (.5x) _ _ _ _ _ _ _ _ _ _ _ _ _ _ _ _ _ 
 72
65
 73
2
 40
9.5249999999999986
 49
6.3499999999999996
 74
0
 49
-3.1749999999999998
 74
0
  0
LTYPE
  5
33
100
AcDbSymbolTableRecord
100
AcDbLinetypeTableRecord
  2
HIDDEN
 70
0
  3
Hidden __ __ __ __ __ __ __ __ __ __ __ __ __ __
 72
65
 73
2
 40
9.5249999999999986
 49
6.3499999999999996
 74
0
 49
-3.1749999999999998
 74
0
  0
LTYPE
  5
34
100
AcDbSymbolTableRecord
100
AcDbLinetypeTableRecord
  2
HIDDENX2
 70
0
  3
Hidden (2x) ____ ____ ____ ____ ____ ____ ____ 
 72
65
 73
2
 40
19.0499999999999972
 49
12.6999999999999993
 74
0
 49
-6.3499999999999996
 74
0
  0
LTYPE
  5
35
100
AcDbSymbolTableRecord
100
AcDbLinetypeTableRecord
  2
ACAD_ISO11W100
 70
0
  3
ISO double-dash dot __ __ . __ __ . __ __ . __ _
 72
65
 73
6
 40
33.0
 49
12.0
 74
0
 49
-3.0
 74
0
 49
12.0
 74
0
 49
-3.0
 74
0
 49
0.0
 74
0
 49
-3.0
 74
0
  0
LTYPE
  5
36
100
AcDbSymbolTableRecord
100
AcDbLinetypeTableRecord
  2
ACAD_ISO06W100
 70
0
  3
ISO long-dash triple-dot ____ ... ____ ... ____
 72
65
 73
8
 40
36.0
 49
24.0
 74
0
 49
-3.0
 74
0
 49
0.0
 74
0
 49
-3.0
 74
0
 49
0.0
 74
0
 49
-3.0
 74
0
 49
0.0
 74
0
 49
-3.0
 74
0
  0
LTYPE
  5
37
100
AcDbSymbolTableRecord
100
AcDbLinetypeTableRecord
  2
ACAD_ISO02W100
 70
0
  3
ISO dash __ __ __ __ __ __ __ __ __ __ __ __ __
 72
65
 73
2
 40
15.0
 49
12.0
 74
0
 49
-3.0
 74
0
  0
LTYPE
  5
38
100
AcDbSymbolTableRecord
100
AcDbLinetypeTableRecord
  2
BORDERX2
 70
0
  3
Border (2x) ____  ____  .  ____  ____  .  ___
 72
65
 73
6
 40
88.8999999999999915
 49
25.3999999999999986
 74
0
 49
-12.6999999999999993
 74
0
 49
25.3999999999999986
 74
0
 49
-12.6999999999999993
 74
0
 49
0.0
 74
0
 49
-12.6999999999999993
 74
0
  0
LTYPE
  5
39
100
AcDbSymbolTableRecord
100
AcDbLinetypeTableRecord
  2
HIDDEN2
 70
0
  3
Hidden (.5x) _ _ _ _ _ _ _ _ _ _ _ _ _ _ _ _ _ 
 72
65
 73
2
 40
4.7624999999999993
 49
3.1749999999999998
 74
0
 49
-1.5874999999999999
 74
0
  0
LTYPE
  5
3A
100
AcDbSymbolTableRecord
100
AcDbLinetypeTableRecord
  2
ACAD_ISO15W100
 70
0
  3
ISO double-dash triple-dot __ __ . . . __ __ . .
 72
65
 73
10
 40
39.0
 49
12.0
 74
0
 49
-3.0
 74
0
 49
12.0
 74
0
 49
-3.0
 74
0
 49
0.0
 74
0
 49
-3.0
 74
0
 49
0.0
 74
0
 49
-3.0
 74
0
 49
0.0
 74
0
 49
-3.0
 74
0
  0
LTYPE
  5
3B
100
AcDbSymbolTableRecord
100
AcDbLinetypeTableRecord
  2
DIVIDEX2
 70
0
  3
Divide (2x) ________  .  .  ________  .  .  _
 72
65
 73
6
 40
63.5
 49
25.3999999999999986
 74
0
 49
-12.6999999999999993
 74
0
 49
0.0
 74
0
 49
-12.6999999999999993
 74
0
 49
0.0
 74
0
 49
-12.6999999999999993
 74
0
  0
LTYPE
  5
3C
100
AcDbSymbolTableRecord
100
AcDbLinetypeTableRecord
  2
ACAD_ISO14W100
 70
0
  3
ISO dash triple-dot __ . . . __ . . . __ . . . _
 72
65
 73
8
 40
24.0
 49
12.0
 74
0
 49
-3.0
 74
0
 49
0.0
 74
0
 49
-3.0
 74
0
 49
0.0
 74
0
 49
-3.0
 74
0
 49
0.0
 74
0
 49
-3.0
 74
0
  0
LTYPE
  5
3D
100
AcDbSymbolTableRecord
100
AcDbLinetypeTableRecord
  2
BORDER
 70
0
  3
Border __ __ . __ __ . __ __ . __ __ . __ __ .
 72
65
 73
6
 40
44.4499999999999957
 49
12.6999999999999993
 74
0
 49
-6.3499999999999996
 74
0
 49
12.6999999999999993
 74
0
 49
-6.3499999999999996
 74
0
 49
0.0
 74
0
 49
-6.3499999999999996
 74
0
  0
LTYPE
  5
3E
100
AcDbSymbolTableRecord
100
AcDbLinetypeTableRecord
  2
BORDER2
 70
0
  3
Border (.5x) __.__.__.__.__.__.__.__.__.__.__.
 72
65
 73
6
 40
22.2249999999999979
 49
6.3499999999999996
 74
0
 49
-3.1749999999999998
 74
0
 49
6.3499999999999996
 74
0
 49
-3.1749999999999998
 74
0
 49
0.0
 74
0
 49
-3.1749999999999998
 74
0
  0
LTYPE
  5
3F
100
AcDbSymbolTableRecord
100
AcDbLinetypeTableRecord
  2
CENTERX2
 70
0
  3
Center (2x) ________  __  ________  __  _____
 72
65
 73
4
 40
101.6000000000000085
 49
63.5
 74
0
 49
-12.6999999999999993
 74
0
 49
12.6999999999999993
 74
0
 49
-12.6999999999999993
 74
0
  0
LTYPE
  5
40
100
AcDbSymbolTableRecord
100
AcDbLinetypeTableRecord
  2
DOTX2
 70
0
  3
Dot (2x) .  .  .  .  .  .  .  .  .  .  .  .  .  .
 72
65
 73
2
 40
12.6999999999999993
 49
0.0
 74
0
 49
-12.6999999999999993
 74
0
  0
LTYPE
  5
41
100
AcDbSymbolTableRecord
100
AcDbLinetypeTableRecord
  2
PHANTOMX2
 70
0
  3
Phantom (2x) ____________    ____    ____   _
 72
65
 73
6
 40
127.0000000000000142
 49
63.5
 74
0
 49
-12.6999999999999993
 74
0
 49
12.6999999999999993
 74
0
 49
-12.6999999999999993
 74
0
 49
12.6999999999999993
 74
0
 49
-12.6999999999999993
 74
0
  0
LTYPE
  5
42
100
AcDbSymbolTableRecord
100
AcDbLinetypeTableRecord
  2
DOT
 70
0
  3
Dot . . . . . . . . . . . . . . . . . . . . . . . .
 72
65
 73
2
 40
6.3499999999999996
 49
0.0
 74
0
 49
-6.3499999999999996
 74
0
  0
LTYPE
  5
43
100
AcDbSymbolTableRecord
100
AcDbLinetypeTableRecord
  2
PHANTOM
 70
0
  3
Phantom ______  __  __  ______  __  __  ______ 
 72
65
 73
6
 40
63.5000000000000071
 49
31.75
 74
0
 49
-6.3499999999999996
 74
0
 49
6.3499999999999996
 74
0
 49
-6.3499999999999996
 74
0
 49
6.3499999999999996
 74
0
 49
-6.3499999999999996
 74
0
  0
LTYPE
  5
44
100
AcDbSymbolTableRecord
100
AcDbLinetypeTableRecord
  2
PHANTOM2
 70
0
  3
Phantom (.5x) ___ _ _ ___ _ _ ___ _ _ ___ _ _
 72
65
 73
6
 40
31.7500000000000036
 49
15.875
 74
0
 49
-3.1749999999999998
 74
0
 49
3.1749999999999998
 74
0
 49
-3.1749999999999998
 74
0
 49
3.1749999999999998
 74
0
 49
-3.1749999999999998
 74
0
  0
LTYPE
  5
45
100
AcDbSymbolTableRecord
100
AcDbLinetypeTableRecord
  2
ACAD_ISO08W100
 70
0
  3
ISO long-dash short-dash ____ __ ____ __ ____ _
 72
65
 73
4
 40
36.0
 49
24.0
 74
0
 49
-3.0
 74
0
 49
6.0
 74
0
 49
-3.0
 74
0
  0
LTYPE
  5
46
100
AcDbSymbolTableRecord
100
AcDbLinetypeTableRecord
  2
ACAD_ISO10W100
 70
0
  3
ISO dash dot __ . __ . __ . __ . __ . __ . __ . 
 72
65
 73
4
 40
18.0
 49
12.0
 74
0
 49
-3.0
 74
0
 49
0.0
 74
0
 49
-3.0
 74
0
  0
LTYPE
  5
47
100
AcDbSymbolTableRecord
100
AcDbLinetypeTableRecord
  2
ACAD_ISO09W100
 70
0
  3
ISO long-dash double-short-dash ____ __ __ ____
 72
65
 73
6
 40
45.0
 49
24.0
 74
0
 49
-3.0
 74
0
 49
6.0
 74
0
 49
-3.0
 74
0
 49
6.0
 74
0
 49
-3.0
 74
0
  0
LTYPE
  5
48
100
AcDbSymbolTableRecord
100
AcDbLinetypeTableRecord
  2
ACAD_ISO03W100
 70
0
  3
ISO dash space __    __    __    __    __    __
 72
65
 73
2
 40
30.0
 49
12.0
 74
0
 49
-18.0
 74
0
  0
LTYPE
  5
49
100
AcDbSymbolTableRecord
100
AcDbLinetypeTableRecord
  2
CENTER2
 70
0
  3
Center (.5x) ___ _ ___ _ ___ _ ___ _ ___ _ ___
 72
65
 73
4
 40
28.5750000000000028
 49
19.0500000000000007
 74
0
 49
-3.1749999999999998
 74
0
 49
3.1749999999999998
 74
0
 49
-3.1749999999999998
 74
0
  0
LTYPE
  5
4A
100
AcDbSymbolTableRecord
100
AcDbLinetypeTableRecord
  2
CENTER
 70
0
  3
Center ____ _ ____ _ ____ _ ____ _ ____ _ ____
 72
65
 73
4
 40
50.8000000000000043
 49
31.75
 74
0
 49
-6.3499999999999996
 74
0
 49
6.3499999999999996
 74
0
 49
-6.3499999999999996
 74
0
  0
LTYPE
  5
4B
100
AcDbSymbolTableRecord
100
AcDbLinetypeTableRecord
  2
DIVIDE
 70
0
  3
Divide ____ . . ____ . . ____ . . ____ . . ____
 72
65
 73
6
 40
31.75
 49
12.6999999999999993
 74
0
 49
-6.3499999999999996
 74
0
 49
0.0
 74
0
 49
-6.3499999999999996
 74
0
 49
0.0
 74
0
 49
-6.3499999999999996
 74
0
  0
LTYPE
  5
4C
100
AcDbSymbolTableRecord
100
AcDbLinetypeTableRecord
  2
DASHDOT
 70
0
  3
Dash dot __ . __ . __ . __ . __ . __ . __ . __
 72
65
 73
4
 40
25.3999999999999986
 49
12.6999999999999993
 74
0
 49
-6.3499999999999996
 74
0
 49
0.0
 74
0
 49
-6.3499999999999996
 74
0
  0
LTYPE
  5
4D
100
AcDbSymbolTableRecord
100
AcDbLinetypeTableRecord
  2
DASHED
 70
0
  3
Dashed __ __ __ __ __ __ __ __ __ __ __ __ __ _
 72
65
 73
2
 40
19.0499999999999972
 49
12.6999999999999993
 74
0
 49
-6.3499999999999996
 74
0
  0
LTYPE
  5
4E
100
AcDbSymbolTableRecord
100
AcDbLinetypeTableRecord
  2
DIVIDE2
 70
0
  3
Divide (.5x) __..__..__..__..__..__..__..__.._
 72
65
 73
6
 40
15.875
 49
6.3499999999999996
 74
0
 49
-3.1749999999999998
 74
0
 49
0.0
 74
0
 49
-3.1749999999999998
 74
0
 49
0.0
 74
0
 49
-3.1749999999999998
 74
0
  0
LTYPE
  5
4F
100
AcDbSymbolTableRecord
100
AcDbLinetypeTableRecord
  2
ACAD_ISO04W100
 70
0
  3
ISO long-dash dot ____ . ____ . ____ . ____ . _
 72
65
 73
4
 40
30.0
 49
24.0
 74
0
 49
-3.0
 74
0
 49
0.0
 74
0
 49
-3.0
 74
0
  0
LTYPE
  5
50
100
AcDbSymbolTableRecord
100
AcDbLinetypeTableRecord
  2
ACAD_ISO13W100
 70
0
  3
ISO double-dash double-dot __ __ . . __ __ . . _
 72
65
 73
8
 40
36.0
 49
12.0
 74
0
 49
-3.0
 74
0
 49
12.0
 74
0
 49
-3.0
 74
0
 49
0.0
 74
0
 49
-3.0
 74
0
 49
0.0
 74
0
 49
-3.0
 74
0
  0
LTYPE
  5
51
100
AcDbSymbolTableRecord
100
AcDbLinetypeTableRecord
  2
ACAD_ISO05W100
 70
0
  3
ISO long-dash double-dot ____ .. ____ .. ____ . 
 72
65
 73
6
 40
33.0
 49
24.0
 74
0
 49
-3.0
 74
0
 49
0.0
 74
0
 49
-3.0
 74
0
 49
0.0
 74
0
 49
-3.0
 74
0
  0
LTYPE
  5
15
100
AcDbSymbolTableRecord
100
AcDbLinetypeTableRecord
  2
BYLAYER
 70
0
  3

 72
65
 73
0
 40
0.0
  0
LTYPE
  5
52
100
AcDbSymbolTableRecord
100
AcDbLinetypeTableRecord
  2
ACAD_ISO07W100
 70
0
  3
ISO dot . . . . . . . . . . . . . . . . . . . . 
 72
65
 73
2
 40
3.0
 49
0.0
 74
0
 49
-3.0
 74
0
  0
LTYPE
  5
53
100
AcDbSymbolTableRecord
100
AcDbLinetypeTableRecord
  2
DASHDOTX2
 70
0
  3
Dash dot (2x) ____  .  ____  .  ____  .  ___
 72
65
 73
4
 40
50.7999999999999972
 49
25.3999999999999986
 74
0
 49
-12.6999999999999993
 74
0
 49
0.0
 74
0
 49
-12.6999999999999993
 74
0
  0
LTYPE
  5
54
100
AcDbSymbolTableRecord
100
AcDbLinetypeTableRecord
  2
ACAD_ISO12W100
 70
0
  3
ISO dash double-dot __ . . __ . . __ . . __ . . 
 72
65
 73
6
 40
21.0
 49
12.0
 74
0
 49
-3.0
 74
0
 49
0.0
 74
0
 49
-3.0
 74
0
 49
0.0
 74
0
 49
-3.0
 74
0
  0
LTYPE
  5
55
100
AcDbSymbolTableRecord
100
AcDbLinetypeTableRecord
  2
DASHEDX2
 70
0
  3
Dashed (2x) ____  ____  ____  ____  ____  ___
 72
65
 73
2
 40
38.0999999999999943
 49
25.3999999999999986
 74
0
 49
-12.6999999999999993
 74
0
  0
LTYPE
  5
14
100
AcDbSymbolTableRecord
100
AcDbLinetypeTableRecord
  2
BYBLOCK
 70
0
  3

 72
65
 73
0
 40
0.0
  0
LTYPE
  5
56
100
AcDbSymbolTableRecord
100
AcDbLinetypeTableRecord
  2
DOT2
 70
0
  3
Dot (.5x) ........................................
 72
65
 73
2
 40
3.1749999999999998
 49
0.0
 74
0
 49
-3.1749999999999998
 74
0
  0
ENDTAB
  0
TABLE
  2
LAYER
  5
2
100
AcDbSymbolTable
 70
1
  0
LAYER
  5
10
100
AcDbSymbolTableRecord
100
AcDbLayerTableRecord
  2
0
 70
0
 62
7
420
16777215
  6
Continuous
370
25
390
F
  0
ENDTAB
  0
TABLE
  2
STYLE
  5
3
100
AcDbSymbolTable
 70
1
  0
STYLE
  5
57
100
AcDbSymbolTableRecord
100
AcDbTextStyleTableRecord
  2
Standard
 70
0
 40
0.0
 41
1.0
 50
0.0
 71
0
 42
2.5
  3

  4

1001
ACAD
1000
txt
1071
0
  0
ENDTAB
  0
TABLE
  2
VIEW
  5
6
100
AcDbSymbolTable
 70
0
  0
ENDTAB
  0
TABLE
  2
UCS
  5
7
100
AcDbSymbolTable
 70
0
  0
ENDTAB
  0
TABLE
  2
APPID
  5
9
100
AcDbSymbolTable
 70
1
  0
APPID
  5
12
100
AcDbSymbolTableRecord
100
AcDbRegAppTableRecord
  2
ACAD
 70
0
  0
APPID
  5
58
100
AcDbSymbolTableRecord
100
AcDbRegAppTableRecord
  2
QCAD
 70
0
  0
ENDTAB
  0
TABLE
  2
DIMSTYLE
  5
A
100
AcDbSymbolTable
 70
1
100
AcDbDimStyleTable
 71
0
  0
DIMSTYLE
105
27
100
AcDbSymbolTableRecord
100
AcDbDimStyleTableRecord
  2
Standard
 41
2.5
 42
0.625
 43
3.75
 44
1.25
 70
0
 73
0
 74
0
 77
1
 78
8
140
2.5
141
2.5
143
0.03937007874016
147
0.625
171
3
172
1
271
2
272
2
274
3
278
44
283
0
284
8
340
57
  0
ENDTAB
  0
TABLE
  2
BLOCK_RECORD
  5
1
100
AcDbSymbolTable
 70
1
  0
BLOCK_RECORD
  5
1F
100
AcDbSymbolTableRecord
100
AcDbBlockTableRecord
  2
*Model_Space
340
22
  0
BLOCK_RECORD
  5
1B
100
AcDbSymbolTableRecord
100
AcDbBlockTableRecord
  2
*Paper_Space
340
1E
  0
BLOCK_RECORD
  5
23
100
AcDbSymbolTableRecord
100
AcDbBlockTableRecord
  2
*Paper_Space0
340
26
  0
ENDTAB
  0
ENDSEC
  0
SECTION
  2
BLOCKS
  0
BLOCK
  5
20
100
AcDbEntity
  8
0
100
AcDbBlockBegin
  2
*Model_Space
 70
0
 10
0.0
 20
0.0
 30
0.0
  3
*Model_Space
  1

  0
ENDBLK
  5
21
100
AcDbEntity
  8
0
100
AcDbBlockEnd
  0
BLOCK
  5
1C
100
AcDbEntity
 67
1
  8
0
100
AcDbBlockBegin
  2
*Paper_Space
 70
0
 10
0.0
 20
0.0
 30
0.0
  3
*Paper_Space
  1

  0
ENDBLK
  5
1D
100
AcDbEntity
 67
1
  8
0
100
AcDbBlockEnd
  0
BLOCK
  5
24
100
AcDbEntity
  8
0
100
AcDbBlockBegin
  2
*Paper_Space0
 70
0
 10
0.0
 20
0.0
 30
0.0
  3
*Paper_Space0
  1

  0
ENDBLK
  5
25
100
AcDbEntity
  8
0
100
AcDbBlockEnd
  0
ENDSEC
  0
SECTION
  2
ENTITIES
  0
LINE
  5
59
100
AcDbEntity
  8
0
 62
256
370
-1
 48
1.0
  6
BYLAYER
100
AcDbLine
 10
110.0
 20
170.0
 30
0.0
 11
260.0000000017671482
 21
170.0
 31
0.0
  0
LINE
  5
5A
100
AcDbEntity
  8
0
 62
256
370
-1
 48
1.0
  6
BYLAYER
100
AcDbLine
 10
10.0
 20
170.0
 30
0.0
 11
100.9000000000000341
 21
170.0
 31
0.0
  0
LINE
  5
5B
100
AcDbEntity
  8
0
 62
256
370
-1
 48
1.0
  6
BYLAYER
100
AcDbLine
 10
10.0
 20
0.0
 30
0.0
 11
260.0
 21
0.0
 31
0.0
  0
LINE
  5
5C
100
AcDbEntity
  8
0
 62
256
370
-1
 48
1.0
  6
BYLAYER
100
AcDbLine
 10
0.0
 20
10.0
 30
0.0
 11
0.0
 21
160.0
 31
0.0
  0
LINE
  5
5D
100
AcDbEntity
  8
0
 62
256
370
-1
 48
1.0
  6
BYLAYER
100
AcDbLine
 10
270.0
 20
10.0
 30
0.0
 11
270.0000000017671482
 21
160.0
 31
0.0
  0
CIRCLE
  5
5E
100
AcDbEntity
  8
0
 62
256
370
-1
 48
1.0
  6
BYLAYER
100
AcDbCircle
 10
10.0
 20
9.9999999999999716
 30
0.0
 40
4.0999999999999996
  0
CIRCLE
  5
5F
100
AcDbEntity
  8
0
 62
256
370
-1
 48
1.0
  6
BYLAYER
100
AcDbCircle
 10
10.0
 20
160.0
 30
0.0
 40
4.0999999999999996
  0
CIRCLE
  5
60
100
AcDbEntity
  8
0
 62
256
370
-1
 48
1.0
  6
BYLAYER
100
AcDbCircle
 10
260.0
 20
9.9999999999999716
 30
0.0
 40
4.0999999999999996
  0
CIRCLE
  5
61
100
AcDbEntity
  8
0
 62
256
370
-1
 48
1.0
  6
BYLAYER
100
AcDbCircle
 10
260.0
 20
160.0
 30
0.0
 40
4.0999999999999996
  0
CIRCLE
  5
62
100
AcDbEntity
  8
0
 62
256
370
-1
 48
1.0
  6
BYLAYER
100
AcDbCircle
 10
135.0000000008835741
 20
160.0
 30
0.0
 40
4.0999999999999996
  0
CIRCLE
  5
63
100
AcDbEntity
  8
0
 62
256
370
-1
 48
1.0
  6
BYLAYER
100
AcDbCircle
 10
135.0000000008835741
 20
9.9999999999999716
 30
0.0
 40
4.0999999999999996
  0
CIRCLE
  5
64
100
AcDbEntity
  8
0
 62
256
370
-1
 48
1.0
  6
BYLAYER
100
AcDbCircle
 10
10.0
 20
84.9999999999999716
 30
0.0
 40
4.0999999999999996
  0
CIRCLE
  5
65
100
AcDbEntity
  8
0
 62
256
370
-1
 48
1.0
  6
BYLAYER
100
AcDbCircle
 10
260.0000000017671482
 20
84.9999999999999716
 30
0.0
 40
4.0999999999999996
  0
ARC
  5
66
100
AcDbEntity
  8
0
 62
256
370
-1
 48
1.0
  6
BYLAYER
100
AcDbCircle
 10
260.0000000017671482
 20
160.0
 30
0.0
 40
10.0
100
AcDbArc
 50
0.0
 51
90.0
  0
ARC
  5
67
100
AcDbEntity
  8
0
 62
256
370
-1
 48
1.0
  6
BYLAYER
100
AcDbCircle
 10
10.0
 20
160.0
 30
0.0
 40
10.0
100
AcDbArc
 50
90.0
 51
180.0
  0
ARC
  5
68
100
AcDbEntity
  8
0
 62
256
370
-1
 48
1.0
  6
BYLAYER
100
AcDbCircle
 10
10.0
 20
10.0
 30
0.0
 40
10.0
100
AcDbArc
 50
180.0
 51
270.0
  0
ARC
  5
69
100
AcDbEntity
  8
0
 62
256
370
-1
 48
1.0
  6
BYLAYER
100
AcDbCircle
 10
260.0
 20
10.0
 30
0.0
 40
10.0
100
AcDbArc
 50
270.0
 51
0.0
  0
LINE
  5
6A
100
AcDbEntity
  8
0
 62
256
370
-1
 48
1.0
  6
BYLAYER
100
AcDbLine
 10
100.9000000000000341
 20
162.8000000000000114
 30
0.0
 11
87.4000000000000625
 21
162.8000000000000114
 31
0.0
  0
LINE
  5
6B
100
AcDbEntity
  8
0
 62
256
370
-1
 48
1.0
  6
BYLAYER
100
AcDbLine
 10
87.4000000000000625
 20
162.8000000000000114
 30
0.0
 11
87.4000000000000625
 21
142.4500000000000171
 31
0.0
  0
LINE
  5
6C
100
AcDbEntity
  8
0
 62
256
370
-1
 48
1.0
  6
BYLAYER
100
AcDbLine
 10
110.0
 20
170.0
 30
0.0
 11
110.0
 21
162.8000000000000114
 31
0.0
  0
LINE
  5
6D
100
AcDbEntity
  8
0
 62
256
370
-1
 48
1.0
  6
BYLAYER
100
AcDbLine
 10
100.9000000000000341
 20
170.0
 30
0.0
 11
100.9000000000000341
 21
162.8000000000000114
 31
0.0
  0
LINE
  5
6E
100
AcDbEntity
  8
0
 62
256
370
-1
 48
1.0
  6
BYLAYER
100
AcDbLine
 10
110.0
 20
162.8000000000000114
 30
0.0
 11
123.5000000000000284
 21
162.8000000000000114
 31
0.0
  0
LINE
  5
6F
100
AcDbEntity
  8
0
 62
256
370
-1
 48
1.0
  6
BYLAYER
100
AcDbLine
 10
123.5000000000000284
 20
162.8000000000000114
 30
0.0
 11
123.5000000000000284
 21
142.4500000000000171
 31
0.0
  0
LINE
  5
70
100
AcDbEntity
  8
0
 62
256
370
-1
 48
1.0
  6
BYLAYER
100
AcDbLine
 10
123.5000000000000284
 20
142.4500000000000171
 30
0.0
 11
119.8999999999989541
 21
142.4500000000000171
 31
0.0
  0
LINE
  5
71
100
AcDbEntity
  8
0
 62
256
370
-1
 48
1.0
  6
BYLAYER
100
AcDbLine
 10
118.9000000000000057
 20
141.4499999999999886
 30
0.0
 11
118.8999999999999773
 21
135.9999999999991758
 31
0.0
  0
LINE
  5
72
100
AcDbEntity
  8
0
 62
256
370
-1
 48
1.0
  6
BYLAYER
100
AcDbLine
 10
117.8999999999999488
 20
135.0
 30
0.0
 11
92.9000000000010004
 21
135.0
 31
0.0
  0
LINE
  5
73
100
AcDbEntity
  8
0
 62
256
370
-1
 48
1.0
  6
BYLAYER
100
AcDbLine
 10
91.9000000000000341
 20
136.0000000000000568
 30
0.0
 11
91.9000000000000341
 21
141.4499999999999886
 31
0.0
  0
LINE
  5
74
100
AcDbEntity
  8
0
 62
256
370
-1
 48
1.0
  6
BYLAYER
100
AcDbLine
 10
90.9000000000010004
 20
142.4500000000000171
 30
0.0
 11
87.4000000000000625
 21
142.4500000000000171
 31
0.0
  0
ARC
  5
75
100
AcDbEntity
  8
0
 62
256
370
-1
 48
1.0
  6
BYLAYER
100
AcDbCircle
 10
119.9276266291032016
 20
141.4223733708968496
 30
0.0
 40
1.0279979180317438
100
AcDbArc
 50
91.5399640574584481
 51
178.4600359425447778
  0
ARC
  5
76
100
AcDbEntity
  8
0
 62
256
370
-1
 48
1.0
  6
BYLAYER
100
AcDbCircle
 10
90.8723733708968382
 20
141.4223733708968496
 30
0.0
 40
1.0279979180317438
100
AcDbArc
 50
1.5399640574552109
 51
88.4600359425415519
  0
ARC
  5
77
100
AcDbEntity
  8
0
 62
256
370
-1
 48
1.0
  6
BYLAYER
100
AcDbCircle
 10
92.92762662910323
 20
136.0276266291031959
 30
0.0
 40
1.0279979180317438
100
AcDbArc
 50
181.5399640574551938
 51
268.4600359425415945
  0
ARC
  5
78
100
AcDbEntity
  8
0
 62
256
370
-1
 48
1.0
  6
BYLAYER
100
AcDbCircle
 10
117.8723733708968098
 20
136.0276266291031959
 30
0.0
 40
1.0279979180317438
100
AcDbArc
 50
271.5399640574584055
 51
358.4600359425447778
  0
ARC
  5
79
100
AcDbEntity
  8
0
 62
256
370
-1
 48
1.0
  6
BYLAYER
100
AcDbCircle
 10
21.7161501171901818
 20
114.5251788593764246
 30
0.0
 40
15.998857486432124
100
AcDbArc
 50
62.9979076129121438
 51
340.0536047737238619
  0
ARC
  5
7A
100
AcDbEntity
  8
0
 62
256
370
-1
 48
1.0
  6
BYLAYER
100
AcDbCircle
 10
47.5211845579183887
 20
124.0372104967091502
 30
0.0
 40
15.9984657789178346
100
AcDbArc
 50
240.609218405615735
 51
314.5440571474203466
  0
ARC
  5
7B
100
AcDbEntity
  8
0
 62
256
370
-1
 48
1.0
  6
BYLAYER
100
AcDbCircle
 10
47.5175560890197062
 20
124.0402123345023853
 30
0.0
 40
15.9980942465105489
100
AcDbArc
 50
36.4549643331101763
 51
158.0478167630797088
  0
ARC
  5
7C
100
AcDbEntity
  8
0
 62
256
370
-1
 48
1.0
  6
BYLAYER
100
AcDbCircle
 10
74.8758500350862874
 20
121.2127016347052972
 30
0.0
 40
16.0027996597870228
100
AcDbArc
 50
213.7909847173948492
 51
280.5392747355607526
  0
ARC
  5
7D
100
AcDbEntity
  8
0
 62
256
370
-1
 48
1.0
  6
BYLAYER
100
AcDbCircle
 10
74.8732522990466975
 20
121.212566152513034
 30
0.0
 40
15.9988099165709503
100
AcDbArc
 50
3.9316120025622427
 51
131.0371733260321605
  0
ARC
  5
7E
100
AcDbEntity
  8
0
 62
256
370
-1
 48
1.0
  6
BYLAYER
100
AcDbCircle
 10
97.0363207692644067
 20
104.9322365337113752
 30
0.0
 40
15.9999999999999769
100
AcDbArc
 50
186.3949074580334866
 51
102.8232487642603843
  0
ARC
  5
7F
100
AcDbEntity
  8
0
 62
256
370
-1
 48
1.0
  6
BYLAYER
100
AcDbCircle
 10
167.2600713117963949
 20
131.7656020901258671
 30
0.0
 40
16.0000000000000817
100
AcDbArc
 50
76.2070882322152556
 51
239.0340704050900058
  0
ARC
  5
80
100
AcDbEntity
  8
0
 62
256
370
-1
 48
1.0
  6
BYLAYER
100
AcDbCircle
 10
172.9675314921414326
 20
104.9439590854087925
 30
0.0
 40
15.9979535065607728
100
AcDbArc
 50
144.4711842166339011
 51
356.3801289473739189
  0
ARC
  5
81
100
AcDbEntity
  8
0
 62
256
370
-1
 48
1.0
  6
BYLAYER
100
AcDbCircle
 10
195.1266658205950364
 20
121.2150073140844029
 30
0.0
 40
16.0041918391002156
100
AcDbArc
 50
255.797343481522347
 51
326.0834429121187554
  0
ARC
  5
82
100
AcDbEntity
  8
0
 62
256
370
-1
 48
1.0
  6
BYLAYER
100
AcDbCircle
 10
222.482596095007068
 20
124.0326185611240817
 30
0.0
 40
15.9946583671517075
100
AcDbArc
 50
225.7701472810518339
 51
298.9040512596164376
  0
ARC
  5
83
100
AcDbEntity
  8
0
 62
256
370
-1
 48
1.0
  6
BYLAYER
100
AcDbCircle
 10
248.2848996191663673
 20
114.5218252835632171
 30
0.0
 40
15.9989676843334081
100
AcDbArc
 50
200.7824142455464766
 51
66.2354704080402144
  0
ARC
  5
84
100
AcDbEntity
  8
0
 62
256
370
-1
 48
1.0
  6
BYLAYER
100
AcDbCircle
 10
242.8825962571256696
 20
143.623357096885087
 30
0.0
 40
15.9989835869475527
100
AcDbArc
 50
315.1815923154357506
 51
121.3675168902157679
  0
ARC
  5
85
100
AcDbEntity
  8
0
 62
256
370
-1
 48
1.0
  6
BYLAYER
100
AcDbCircle
 10
216.7620767399055808
 20
150.9452830223271178
 30
0.0
 40
16.0015626835964753
100
AcDbArc
 50
27.2814867690029672
 51
144.1432442762985886
  0
ARC
  5
86
100
AcDbEntity
  8
0
 62
256
370
-1
 48
1.0
  6
BYLAYER
100
AcDbCircle
 10
189.3753282158513116
 20
148.2695271310070098
 30
0.0
 40
16.0024026747265964
100
AcDbArc
 50
47.6610993961924621
 51
176.6666096291673398
  0
ARC
  5
87
100
AcDbEntity
  8
0
 62
256
370
-1
 48
1.0
  6
BYLAYER
100
AcDbCircle
 10
89.3113987669471925
 20
40.1738985808875171
 30
0.0
 40
16.0000000000000249
100
AcDbArc
 50
357.5374266130796173
 51
269.8592881286308511
  0
ARC
  5
88
100
AcDbEntity
  8
0
 62
256
370
-1
 48
1.0
  6
BYLAYER
100
AcDbCircle
 10
108.0000000000000853
 20
20.0
 30
0.0
 40
16.0000000000000462
100
AcDbArc
 50
175.9182534446223372
 51
87.5593206605763186
  0
ARC
  5
89
100
AcDbEntity
  8
0
 62
256
370
-1
 48
1.0
  6
BYLAYER
100
AcDbCircle
 10
173.1423647152396654
 20
70.2512652623764069
 30
0.0
 40
15.9999999999997407
100
AcDbArc
 50
17.1821329002327765
 51
185.7787466085337655
  0
ARC
  5
8A
100
AcDbEntity
  8
0
 62
256
370
-1
 48
1.0
  6
BYLAYER
100
AcDbCircle
 10
154.453763482186929
 20
50.0773666814886766
 30
0.0
 40
16.0000000000001776
100
AcDbArc
 50
88.0352007413273014
 51
251.604152105401937
  0
ARC
  5
8B
100
AcDbEntity
  8
0
 62
256
370
-1
 48
1.0
  6
BYLAYER
100
AcDbCircle
 10
160.7570527975648247
 20
19.7919995533326869
 30
0.0
 40
16.0000000000000746
100
AcDbArc
 50
131.5768740963171126
 51
5.8888611251503287
  0
ARC
  5
8C
100
AcDbEntity
  8
0
 62
256
370
-1
 48
1.0
  6
BYLAYER
100
AcDbCircle
 10
179.4456511763889637
 20
39.965900778306974
 30
0.0
 40
15.999999999999881
100
AcDbArc
 50
268.1031719562757303
 51
4.8425657307778982
  0
ARC
  5
8D
100
AcDbEntity
  8
0
 62
256
370
-1
 48
1.0
  6
BYLAYER
100
AcDbCircle
 10
198.4550143727179261
 20
59.522244857912753
 30
0.0
 40
15.9976829998177674
100
AcDbArc
 50
266.943468385965275
 51
116.6525500713901806
  0
CIRCLE
  5
8E
100
AcDbEntity
  8
0
 62
256
370
-1
 48
1.0
  6
BYLAYER
100
AcDbCircle
 10
135.0000000008835741
 20
115.6511829862411673
 30
0.0
 40
16.0
  0
ARC
  5
8F
100
AcDbEntity
  8
0
 62
256
370
-1
 48
1.0
  6
BYLAYER
100
AcDbCircle
 10
30.2165715793909442
 20
131.2283683325101435
 30
0.0
 40
2.7429212096952202
100
AcDbArc
 50
243.2035100615584611
 51
333.8807575292676688
  0
ARC
  5
90
100
AcDbEntity
  8
0
 62
256
370
-1
 48
1.0
  6
BYLAYER
100
AcDbCircle
 10
38.6773112348680286
 20
108.2680635285315134
 30
0.0
 40
2.0815957474276776
100
AcDbArc
 50
61.5263874461699984
 51
157.4207433330667527
  0
ARC
  5
91
100
AcDbEntity
  8
0
 62
256
370
-1
 48
1.0
  6
BYLAYER
100
AcDbCircle
 10
62.5076730410036419
 20
135.3674112858866465
 30
0.0
 40
2.7967675317561267
100
AcDbArc
 50
220.6327922045223886
 51
311.7298938300569375
  0
ARC
  5
92
100
AcDbEntity
  8
0
 62
256
370
-1
 48
1.0
  6
BYLAYER
100
AcDbCircle
 10
60.0091414252580364
 20
111.1490615126262895
 30
0.0
 40
1.9518747683292663
100
AcDbArc
 50
36.5886316351586487
 51
130.4256028265179452
  0
ARC
  5
93
100
AcDbEntity
  8
0
 62
256
370
-1
 48
1.0
  6
BYLAYER
100
AcDbCircle
 10
78.3529867380218406
 20
102.7178501389370382
 30
0.0
 40
2.8162654185670237
100
AcDbArc
 50
8.8298112832579658
 51
101.2634179717737197
  0
ARC
  5
94
100
AcDbEntity
  8
0
 62
256
370
-1
 48
1.0
  6
BYLAYER
100
AcDbCircle
 10
92.8552284664015133
 20
122.4591139316336381
 30
0.0
 40
2.0263460213191413
100
AcDbArc
 50
184.2332193847135784
 51
288.1133197313073424
  0
ARC
  5
95
100
AcDbEntity
  8
0
 62
256
370
-1
 48
1.0
  6
BYLAYER
100
AcDbCircle
 10
157.533386576442922
 20
115.6705897284885225
 30
0.0
 40
2.8063205053037694
100
AcDbArc
 50
329.3646672450099686
 51
57.828691063149833
  0
ARC
  5
96
100
AcDbEntity
  8
0
 62
256
370
-1
 48
1.0
  6
BYLAYER
100
AcDbCircle
 10
190.8089341322685186
 20
103.864549702802023
 30
0.0
 40
1.8766486901891819
100
AcDbArc
 50
77.9722606721126112
 51
177.8821310883233764
  0
ARC
  5
97
100
AcDbEntity
  8
0
 62
256
370
-1
 48
1.0
  6
BYLAYER
100
AcDbCircle
 10
209.9890529305312441
 20
111.1837202575304957
 30
0.0
 40
1.9269404471509934
100
AcDbArc
 50
46.0790123385484378
 51
145.147188765754322
  0
ARC
  5
98
100
AcDbEntity
  8
0
 62
256
370
-1
 48
1.0
  6
BYLAYER
100
AcDbCircle
 10
231.2347984881965317
 20
108.0314197886905703
 30
0.0
 40
2.2447633444770525
100
AcDbArc
 50
21.2517481750133257
 51
117.0623079051864437
  0
ARC
  5
99
100
AcDbEntity
  8
0
 62
256
370
-1
 48
1.0
  6
BYLAYER
100
AcDbCircle
 10
255.6967747161726265
 20
130.9464608916607631
 30
0.0
 40
2.0265390139201931
100
AcDbArc
 50
136.311018238473082
 51
241.8278373413679958
  0
ARC
  5
9A
100
AcDbEntity
  8
0
 62
256
370
-1
 48
1.0
  6
BYLAYER
100
AcDbCircle
 10
233.3006530206737636
 20
159.6877424894866238
 30
0.0
 40
2.7111852195941695
100
AcDbArc
 50
211.2859578088236105
 51
297.5518574118277684
  0
ARC
  5
9B
100
AcDbEntity
  8
0
 62
256
370
-1
 48
1.0
  6
BYLAYER
100
AcDbCircle
 10
201.8773944351852379
 20
161.7900036734254172
 30
0.0
 40
2.4156782942455672
100
AcDbArc
 50
224.4582966657309839
 51
322.4682848963989272
  0
ARC
  5
9C
100
AcDbEntity
  8
0
 62
256
370
-1
 48
1.0
  6
BYLAYER
100
AcDbCircle
 10
171.3651522547366426
 20
149.3219187974737849
 30
0.0
 40
2.0384968824064873
100
AcDbArc
 50
261.8079714409783492
 51
356.5711972283679074
  0
ARC
  5
9D
100
AcDbEntity
  8
0
 62
256
370
-1
 48
1.0
  6
BYLAYER
100
AcDbCircle
 10
89.2452220573099311
 20
21.3692379352241275
 30
0.0
 40
2.8048377257914856
100
AcDbArc
 50
355.2889535414537363
 51
89.450848063791625
  0
ARC
  5
9E
100
AcDbEntity
  8
0
 62
256
370
-1
 48
1.0
  6
BYLAYER
100
AcDbCircle
 10
108.9252389277579454
 20
39.6079352384804508
 30
0.0
 40
3.6306498851070179
100
AcDbArc
 50
181.9178477671765108
 51
266.1484155166209575
  0
ARC
  5
9F
100
AcDbEntity
  8
0
 62
256
370
-1
 48
1.0
  6
BYLAYER
100
AcDbCircle
 10
148.8297883705658933
 20
33.1072218547695201
 30
0.0
 40
1.8778617850014074
100
AcDbArc
 50
314.2040621360485488
 51
72.179579253508777
  0
ARC
  5
A0
100
AcDbEntity
  8
0
 62
256
370
-1
 48
1.0
  6
BYLAYER
100
AcDbCircle
 10
178.8956560256163755
 20
21.731807899170505
 30
0.0
 40
2.2429528310125182
100
AcDbArc
 50
89.4789405379826377
 51
187.6406437765124338
  0
ARC
  5
A1
100
AcDbEntity
  8
0
 62
256
370
-1
 48
1.0
  6
BYLAYER
100
AcDbCircle
 10
197.5140989829954208
 20
41.4210115805392007
 30
0.0
 40
2.1281244560169559
100
AcDbArc
 50
87.6328080357572503
 51
182.8124637524139189
  0
ARC
  5
A2
100
AcDbEntity
  8
0
 62
256
370
-1
 48
1.0
  6
BYLAYER
100
AcDbCircle
 10
190.3759461483573716
 20
75.6851450860081627
 30
0.0
 40
2.0721124961450341
100
AcDbArc
 50
199.9592021464268612
 51
295.8305904844664838
  0
ARC
  5
A3
100
AcDbEntity
  8
0
 62
256
370
-1
 48
1.0
  6
BYLAYER
100
AcDbCircle
 10
154.8207702373078973
 20
68.4700351085701584
 30
0.0
 40
2.4089270443741602
100
AcDbArc
 50
274.3224900922321581
 51
4.0523590816176691
  0
ENDSEC
  0
SECTION
  2
OBJECTS
  0
DICTIONARY
  5
C
100
AcDbDictionary
280
0
281
1
  3
ACAD_GROUP
350
D
  3
ACAD_LAYOUT
350
1A
  3
ACAD_MLINESTYLE
350
17
  3
ACAD_PLOTSETTINGS
350
19
  3
ACAD_PLOTSTYLENAME
350
E
  3
AcDbVariableDictionary
350
A4
  3
QCAD_OBJECTS
350
A5
  0
DICTIONARY
  5
D
100
AcDbDictionary
280
0
281
1
  0
ACDBDICTIONARYWDFLT
  5
E
100
AcDbDictionary
281
1
  3
Normal
350
F
100
AcDbDictionaryWithDefault
340
F
  0
ACDBPLACEHOLDER
  5
F
  0
DICTIONARY
  5
17
100
AcDbDictionary
280
0
281
1
  3
Standard
350
18
  0
MLINESTYLE
  5
18
100
AcDbMlineStyle
  2
STANDARD
 70
0
  3

 62
256
 51
90.0
 52
90.0
 71
2
 49
0.5
 62
256
  6
BYLAYER
 49
-0.5
 62
256
  6
BYLAYER
  0
DICTIONARY
  5
19
100
AcDbDictionary
280
0
281
1
  0
DICTIONARY
  5
1A
100
AcDbDictionary
281
1
  3
Layout1
350
1E
  3
Layout2
350
26
  3
Model
350
22
  0
LAYOUT
  5
1E
100
AcDbPlotSettings
  1

  2
none_device
  4

  6

 40
0.0
 41
0.0
 42
0.0
 43
0.0
 44
0.0
 45
0.0
 46
0.0
 47
0.0
 48
0.0
 49
0.0
140
0.0
141
0.0
142
1.0
143
1.0
 70
688
 72
0
 73
0
 74
5
  7

 75
16
147
1.0
148
0.0
149
0.0
100
AcDbLayout
  1
Layout1
 70
1
 71
1
 10
0.0
 20
0.0
 11
420.0
 21
297.0
 12
0.0
 22
0.0
 32
0.0
 14
100000000000000000000.0
 24
100000000000000000000.0
 34
100000000000000000000.0
 15
-100000000000000000000.0
 25
-100000000000000000000.0
 35
-100000000000000000000.0
146
0.0
 13
0.0
 23
0.0
 33
0.0
 16
1.0
 26
0.0
 36
0.0
 17
0.0
 27
1.0
 37
0.0
 76
0
330
1B
  0
LAYOUT
  5
22
100
AcDbPlotSettings
  1

  2
none_device
  4

  6

 40
0.0
 41
0.0
 42
0.0
 43
0.0
 44
0.0
 45
0.0
 46
0.0
 47
0.0
 48
0.0
 49
0.0
140
0.0
141
0.0
142
1.0
143
1.0
 70
1712
 72
0
 73
0
 74
0
  7

 75
0
147
1.0
148
0.0
149
0.0
100
AcDbLayout
  1
Model
 70
1
 71
0
 10
0.0
 20
0.0
 11
12.0
 21
9.0
 12
0.0
 22
0.0
 32
0.0
 14
0.0
 24
0.0
 34
0.0
 15
0.0
 25
0.0
 35
0.0
146
0.0
 13
0.0
 23
0.0
 33
0.0
 16
1.0
 26
0.0
 36
0.0
 17
0.0
 27
1.0
 37
0.0
 76
0
330
1F
  0
LAYOUT
  5
26
100
AcDbPlotSettings
  1

  2
none_device
  4

  6

 40
0.0
 41
0.0
 42
0.0
 43
0.0
 44
0.0
 45
0.0
 46
0.0
 47
0.0
 48
0.0
 49
0.0
140
0.0
141
0.0
142
1.0
143
1.0
 70
688
 72
0
 73
0
 74
5
  7

 75
16
147
1.0
148
0.0
149
0.0
100
AcDbLayout
  1
Layout2
 70
1
 71
2
 10
0.0
 20
0.0
 11
12.0
 21
9.0
 12
0.0
 22
0.0
 32
0.0
 14
0.0
 24
0.0
 34
0.0
 15
0.0
 25
0.0
 35
0.0
146
0.0
 13
0.0
 23
0.0
 33
0.0
 16
1.0
 26
0.0
 36
0.0
 17
0.0
 27
1.0
 37
0.0
 76
0
330
23
  0
DICTIONARY
  5
A4
100
AcDbDictionary
281
1
  3
DIMASSOC
350
A7
  3
HIDETEXT
350
A6
  0
DICTIONARYVAR
  5
A6
100
DictionaryVariables
280
0
  1
2
  0
DICTIONARYVAR
  5
A7
100
DictionaryVariables
280
0
  1
1
  0
DICTIONARY
  5
A5
100
AcDbDictionary
281
1
  3
ColorSettings/BackgroundColor
350
A8
  3
ColorSettings/ColorMode
350
A9
  3
Grid/DisplayGrid00
350
AA
  3
Grid/DisplayGrid01
350
AB
  3
Grid/DisplayGrid02
350
AC
  3
Grid/DisplayGrid03
350
AD
  3
Grid/GridSpacingX00
350
AE
  3
Grid/GridSpacingX01
350
AF
  3
Grid/GridSpacingX02
350
B0
  3
Grid/GridSpacingX03
350
B1
  3
Grid/GridSpacingY00
350
B2
  3
Grid/GridSpacingY01
350
B3
  3
Grid/GridSpacingY02
350
B4
  3
Grid/GridSpacingY03
350
B5
  3
Grid/IsometricGrid00
350
B6
  3
Grid/IsometricGrid01
350
B7
  3
Grid/IsometricGrid02
350
B8
  3
Grid/IsometricGrid03
350
B9
  3
Grid/IsometricProjection00
350
BA
  3
Grid/IsometricProjection01
350
BB
  3
Grid/IsometricProjection02
350
BC
  3
Grid/IsometricProjection03
350
BD
  3
Grid/MetaGridSpacingX00
350
BE
  3
Grid/MetaGridSpacingX01
350
BF
  3
Grid/MetaGridSpacingX02
350
C0
  3
Grid/MetaGridSpacingX03
350
C1
  3
Grid/MetaGridSpacingY00
350
C2
  3
Grid/MetaGridSpacingY01
350
C3
  3
Grid/MetaGridSpacingY02
350
C4
  3
Grid/MetaGridSpacingY03
350
C5
  3
MultiPageSettings/Columns
350
C6
  3
MultiPageSettings/GlueMarginsBottom
350
C7
  3
MultiPageSettings/GlueMarginsLeft
350
C8
  3
MultiPageSettings/GlueMarginsRight
350
C9
  3
MultiPageSettings/GlueMarginsTop
350
CA
  3
MultiPageSettings/PrintCropMarks
350
CB
  3
MultiPageSettings/Rows
350
CC
  3
PageSettings/OffsetX
350
CD
  3
PageSettings/OffsetY
350
CE
  3
PageSettings/PageOrientation
350
CF
  3
PageSettings/PaperHeight
350
D0
  3
PageSettings/PaperWidth
350
D1
  3
PageSettings/Scale
350
D2
  3
PageSettings/ShowPaperBorders
350
D3
  3
PageTagSettings/EnablePageTags
350
D4
  3
PageTagSettings/TagAlignment
350
D5
  3
PageTagSettings/TagFont
350
D6
  3
PageTagSettings/TagPosition
350
D7
  3
QCADVersion
350
D8
  3
UnitSettings/PaperUnit
350
D9
  3
ViewportCenter
350
DA
  3
ViewportHeight
350
DB
  3
ViewportWidth
350
DC
  0
XRECORD
  5
A8
330
A5
100
AcDbXrecord
280
1
1000
White
  0
XRECORD
  5
A9
330
A5
100
AcDbXrecord
280
1
1000
FullColor
  0
XRECORD
  5
AA
330
A5
100
AcDbXrecord
280
1
290
1
  0
XRECORD
  5
AB
330
A5
100
AcDbXrecord
280
1
290
1
  0
XRECORD
  5
AC
330
A5
100
AcDbXrecord
280
1
290
1
  0
XRECORD
  5
AD
330
A5
100
AcDbXrecord
280
1
290
1
  0
XRECORD
  5
AE
330
A5
100
AcDbXrecord
280
1
1000
auto
  0
XRECORD
  5
AF
330
A5
100
AcDbXrecord
280
1
1000
auto
  0
XRECORD
  5
B0
330
A5
100
AcDbXrecord
280
1
1000
auto
  0
XRECORD
  5
B1
330
A5
100
AcDbXrecord
280
1
1000
auto
  0
XRECORD
  5
B2
330
A5
100
AcDbXrecord
280
1
1000
auto
  0
XRECORD
  5
B3
330
A5
100
AcDbXrecord
280
1
1000
auto
  0
XRECORD
  5
B4
330
A5
100
AcDbXrecord
280
1
1000
auto
  0
XRECORD
  5
B5
330
A5
100
AcDbXrecord
280
1
1000
auto
  0
XRECORD
  5
B6
330
A5
100
AcDbXrecord
280
1
290
0
  0
XRECORD
  5
B7
330
A5
100
AcDbXrecord
280
1
290
0
  0
XRECORD
  5
B8
330
A5
100
AcDbXrecord
280
1
290
0
  0
XRECORD
  5
B9
330
A5
100
AcDbXrecord
280
1
290
0
  0
XRECORD
  5
BA
330
A5
100
AcDbXrecord
280
1
 90
65537
  0
XRECORD
  5
BB
330
A5
100
AcDbXrecord
280
1
 90
65537
  0
XRECORD
  5
BC
330
A5
100
AcDbXrecord
280
1
 90
65537
  0
XRECORD
  5
BD
330
A5
100
AcDbXrecord
280
1
 90
65537
  0
XRECORD
  5
BE
330
A5
100
AcDbXrecord
280
1
1000
auto
  0
XRECORD
  5
BF
330
A5
100
AcDbXrecord
280
1
1000
auto
  0
XRECORD
  5
C0
330
A5
100
AcDbXrecord
280
1
1000
auto
  0
XRECORD
  5
C1
330
A5
100
AcDbXrecord
280
1
1000
auto
  0
XRECORD
  5
C2
330
A5
100
AcDbXrecord
280
1
1000
auto
  0
XRECORD
  5
C3
330
A5
100
AcDbXrecord
280
1
1000
auto
  0
XRECORD
  5
C4
330
A5
100
AcDbXrecord
280
1
1000
auto
  0
XRECORD
  5
C5
330
A5
100
AcDbXrecord
280
1
1000
auto
  0
XRECORD
  5
C6
330
A5
100
AcDbXrecord
280
1
 90
1
  0
XRECORD
  5
C7
330
A5
100
AcDbXrecord
280
1
 40
10.0
  0
XRECORD
  5
C8
330
A5
100
AcDbXrecord
280
1
 40
10.0
  0
XRECORD
  5
C9
330
A5
100
AcDbXrecord
280
1
 40
10.0
  0
XRECORD
  5
CA
330
A5
100
AcDbXrecord
280
1
 40
10.0
  0
XRECORD
  5
CB
330
A5
100
AcDbXrecord
280
1
290
0
  0
XRECORD
  5
CC
330
A5
100
AcDbXrecord
280
1
 90
1
  0
XRECORD
  5
CD
330
A5
100
AcDbXrecord
280
1
 40
0.0
  0
XRECORD
  5
CE
330
A5
100
AcDbXrecord
280
1
 40
0.0
  0
XRECORD
  5
CF
330
A5
100
AcDbXrecord
280
1
1000
Portrait
  0
XRECORD
  5
D0
330
A5
100
AcDbXrecord
280
1
 40
279.3999999999999773
  0
XRECORD
  5
D1
330
A5
100
AcDbXrecord
280
1
 40
215.9000000000000057
  0
XRECORD
  5
D2
330
A5
100
AcDbXrecord
280
1
1000
1:1
  0
XRECORD
  5
D3
330
A5
100
AcDbXrecord
280
1
290
1
  0
XRECORD
  5
D4
330
A5
100
AcDbXrecord
280
1
290
0
  0
XRECORD
  5
D5
330
A5
100
AcDbXrecord
280
1
1000
Inside
  0
XRECORD
  5
D6
330
A5
100
AcDbXrecord
280
1
1000
Arial,10,-1,5,50,0,0,0,0,0
  0
XRECORD
  5
D7
330
A5
100
AcDbXrecord
280
1
1000
TopLeft
  0
XRECORD
  5
D8
330
A5
100
AcDbXrecord
280
1
1000
3.27.6
  0
XRECORD
  5
D9
330
A5
100
AcDbXrecord
280
1
 90
4
  0
XRECORD
  5
DB
330
A5
100
AcDbXrecord
280
1
 40
111.3000000000000114
  0
XRECORD
  5
DC
330
A5
100
AcDbXrecord
280
1
 40
164.6000000000000227
  0
ENDSEC
  0
EOF
